{"glyphs":{"0":{"ha":746,"x_min":39,"x_max":718,"o":"m 602 563 l 620 563 l 620 654 l 602 654 l 602 745 l 587 745 l 587 810 l 571 810 l 571 857 l 556 857 l 556 890 l 541 890 l 541 921 l 524 921 l 517 929 q 514 930 515 929 q 510 932 513 932 l 510 952 l 494 952 l 494 966 l 461 966 l 454 975 q 442 978 449 975 q 429 981 435 981 l 429 998 l 324 998 l 324 982 l 293 982 l 293 966 l 260 966 l 260 952 l 247 952 l 247 935 l 236 928 q 235 925 236 926 q 233 921 233 924 l 216 921 l 216 888 l 203 882 q 201 869 203 875 q 199 856 199 863 l 190 849 q 187 829 190 840 q 184 810 184 819 l 174 802 q 171 776 174 788 q 168 743 168 764 l 159 736 q 155 680 159 708 q 152 620 152 651 l 136 613 l 136 391 l 152 391 l 152 296 l 168 296 l 168 232 l 184 232 l 184 186 l 198 186 l 205 175 q 213 174 209 175 l 216 174 l 216 138 l 231 138 l 231 123 l 247 123 l 254 113 q 260 111 258 113 l 260 92 l 293 92 l 300 75 l 429 75 l 429 92 l 463 92 l 463 107 l 494 107 l 494 123 l 510 123 l 510 138 l 518 144 q 519 149 518 146 q 521 155 521 152 l 541 155 l 541 170 l 556 170 l 556 217 l 564 222 q 567 235 564 229 q 570 250 570 241 l 587 250 l 587 312 l 595 317 q 599 385 595 353 q 602 453 602 418 l 620 453 l 620 496 l 602 496 l 602 563 m 320 1065 l 433 1065 l 441 1054 q 469 1051 454 1054 q 498 1048 484 1048 l 503 1039 q 514 1036 506 1039 l 514 1016 l 543 1016 l 543 1002 l 560 1002 l 567 991 q 575 989 570 991 l 575 971 l 591 971 l 598 959 q 606 958 604 959 l 606 939 l 623 939 l 623 925 l 637 925 l 637 892 l 654 892 l 654 845 l 669 845 l 669 814 l 685 814 l 685 734 l 700 734 l 700 640 l 718 640 l 718 400 l 705 393 q 703 351 705 374 q 700 308 700 328 l 690 300 q 688 280 690 289 q 685 260 685 271 l 674 254 q 671 233 674 243 q 669 214 669 224 l 654 214 l 654 198 l 643 190 q 641 178 643 183 q 639 165 639 172 l 623 165 l 623 133 l 612 126 q 610 123 612 125 q 609 119 609 122 l 591 119 l 591 102 l 581 95 q 578 84 581 92 q 576 72 576 76 l 543 72 l 543 56 l 533 49 q 532 46 533 47 q 532 43 532 45 l 514 41 l 514 23 l 503 16 q 502 11 503 14 l 433 11 l 433 -5 l 366 -5 l 366 11 l 289 11 l 289 24 l 256 24 l 250 34 q 237 37 245 34 q 227 39 229 39 l 227 57 l 210 57 l 203 65 q 191 68 199 65 q 180 71 183 71 l 180 90 l 164 90 l 164 103 l 148 103 l 148 119 l 133 119 l 133 152 l 118 152 l 118 182 l 100 182 l 100 214 l 85 214 l 85 262 l 72 262 l 72 308 l 56 308 l 56 419 l 39 419 l 39 609 l 47 614 q 52 682 47 648 q 56 751 56 716 l 72 751 l 72 798 l 85 798 l 85 845 l 94 850 q 96 865 94 857 q 99 876 99 872 l 118 876 l 118 907 l 126 914 q 127 920 126 917 q 129 925 129 922 l 148 925 l 148 954 l 156 959 q 157 965 156 962 q 159 971 159 968 l 180 971 l 180 986 l 189 991 q 190 997 189 994 q 191 1002 191 1000 l 212 1002 l 212 1016 l 227 1016 l 227 1034 l 275 1034 l 275 1048 l 320 1048 l 320 1065 z "},"1":{"ha":700,"x_min":41,"x_max":670,"o":"m 323 1065 l 355 1065 l 362 1054 q 373 1051 365 1054 l 373 1034 l 387 1034 l 387 591 l 373 591 l 373 547 l 387 547 l 387 496 l 373 496 l 373 453 l 387 453 l 387 401 l 373 401 l 373 328 l 387 328 l 387 293 l 373 293 l 373 138 l 387 138 l 387 107 l 403 107 l 408 98 q 418 95 410 98 l 418 75 l 654 75 l 654 61 l 670 61 l 670 11 l 103 11 l 103 24 l 71 24 l 71 61 l 87 61 l 87 75 l 243 75 l 243 92 l 274 92 l 274 107 l 290 107 l 290 387 l 274 387 l 274 423 l 290 423 l 290 637 l 274 637 l 274 751 l 290 751 l 290 952 l 274 952 l 274 966 l 153 966 l 153 952 l 57 952 l 57 982 l 41 982 l 41 1002 l 57 1002 l 57 1016 l 71 1016 l 71 1034 l 243 1034 l 243 1048 l 323 1048 l 323 1065 m 106 111 l 117 95 l 117 75 l 106 75 l 106 111 z "},"2":{"ha":716,"x_min":39,"x_max":686,"o":"m 307 1065 l 418 1065 l 425 1054 q 447 1051 437 1054 q 467 1048 457 1048 l 472 1039 q 485 1037 479 1039 q 498 1035 491 1035 l 498 1016 l 514 1016 l 514 1002 l 529 1002 l 536 991 q 547 989 538 991 l 547 971 l 560 971 l 567 959 q 576 956 568 959 l 576 939 l 591 939 l 591 925 l 606 925 l 606 892 l 623 892 l 623 845 l 637 845 l 637 743 l 628 736 q 625 718 628 726 q 623 699 623 709 l 612 692 q 609 672 612 682 q 606 654 606 662 l 591 654 l 591 620 l 582 613 q 581 610 582 612 q 581 608 581 609 l 560 605 l 560 591 l 547 591 l 547 572 l 534 566 q 532 554 534 559 q 530 543 530 549 l 514 543 l 514 528 l 503 519 q 502 513 503 515 l 484 510 l 484 495 l 472 488 q 470 476 472 481 q 468 464 468 471 l 452 464 l 452 449 l 441 442 q 440 439 441 441 q 439 437 439 438 l 418 434 l 418 419 l 407 411 q 405 398 407 404 q 403 385 403 392 l 393 378 q 392 376 393 377 q 391 372 391 374 l 370 372 l 370 354 l 361 347 q 360 345 361 346 q 359 342 359 343 l 342 339 l 342 323 l 331 316 q 330 313 331 315 q 330 311 330 312 l 309 308 l 309 292 l 298 285 q 298 282 298 283 q 297 279 297 281 l 279 277 l 279 260 l 269 254 q 266 244 266 245 l 247 244 l 247 213 l 236 206 q 234 195 236 201 q 232 182 232 189 l 216 182 l 216 164 l 203 159 l 198 107 l 418 107 l 423 98 l 463 92 l 463 107 l 620 107 l 620 123 l 650 123 l 650 138 l 655 138 l 655 123 l 686 123 l 686 90 l 675 81 q 673 60 675 71 q 670 39 670 50 l 661 34 q 659 29 659 31 q 658 24 658 27 l 623 24 l 623 11 l 587 11 l 587 24 l 547 24 l 547 11 l 495 11 l 495 24 l 279 24 l 279 11 l 72 11 l 72 24 l 54 24 l 47 34 q 43 35 45 34 q 39 37 42 37 l 39 75 l 49 81 q 52 95 49 87 q 54 107 54 103 l 72 107 l 72 123 l 80 129 q 83 138 80 133 l 104 138 l 104 155 l 118 155 l 118 170 l 134 170 l 134 186 l 142 193 q 144 202 142 198 l 164 202 l 164 217 l 180 217 l 180 250 l 189 255 q 190 260 189 258 q 191 266 191 263 l 213 266 l 213 279 l 227 279 l 227 296 l 243 296 l 243 312 l 251 317 q 252 323 251 320 q 254 328 254 326 l 275 328 l 275 343 l 283 349 q 285 354 283 351 q 286 359 286 357 l 307 359 l 307 391 l 321 391 l 321 406 l 338 406 l 338 423 l 346 429 q 347 433 346 431 q 349 437 349 434 l 369 437 l 369 453 l 384 453 l 384 483 l 392 488 q 393 494 392 491 q 395 499 395 496 l 415 499 l 415 514 l 431 514 l 431 547 l 448 547 l 448 563 l 456 568 q 458 582 456 574 q 461 594 461 590 l 479 594 l 479 625 l 488 631 l 492 655 q 495 671 495 663 l 511 671 l 511 718 l 525 718 l 525 890 l 511 890 l 511 921 l 494 921 l 487 929 q 484 930 484 929 q 481 930 483 930 l 479 952 l 463 952 l 463 966 l 446 966 l 439 975 l 441 975 l 422 978 q 408 981 415 979 q 399 982 400 982 l 399 998 l 263 998 l 263 981 l 252 974 q 250 970 251 971 q 250 966 250 968 l 231 966 l 231 951 l 221 944 q 220 941 221 943 q 220 939 220 940 l 198 936 l 198 921 l 184 921 l 184 840 l 174 833 q 172 821 174 826 q 170 810 170 817 l 153 810 l 153 793 l 141 787 q 127 779 141 780 q 104 779 113 779 l 104 795 l 87 795 l 87 810 l 72 810 l 72 845 l 80 850 q 83 869 79 854 q 87 892 87 883 l 104 892 l 104 907 l 118 907 l 118 939 l 134 939 l 134 954 l 142 959 q 144 965 142 962 q 145 971 145 968 l 164 971 l 164 986 l 180 986 l 180 1002 l 189 1008 q 190 1012 189 1010 q 191 1016 191 1013 l 213 1016 l 213 1034 l 243 1034 l 243 1048 l 307 1048 l 307 1065 m 342 24 l 343 3 l 307 3 l 353 24 l 342 24 z "},"3":{"ha":716,"x_min":20,"x_max":686,"o":"m 338 1048 l 342 1048 l 347 1039 q 382 1036 365 1039 q 418 1034 400 1034 l 426 1023 l 450 1019 q 467 1016 461 1016 l 467 1002 l 498 1002 l 505 991 q 516 989 510 991 q 529 987 522 987 l 529 971 l 547 971 l 553 959 q 560 958 557 959 l 560 939 l 576 939 l 576 907 l 593 907 l 598 898 q 606 897 604 898 l 606 830 l 623 830 l 623 715 l 612 708 q 609 688 612 699 q 606 667 606 677 l 593 667 l 593 637 l 582 629 q 581 625 582 627 q 579 621 579 624 l 560 621 l 560 605 l 547 605 l 547 590 l 536 583 l 529 532 l 547 532 l 553 519 q 560 518 557 519 l 560 499 l 576 499 l 583 488 q 587 487 585 488 q 593 486 589 486 l 593 469 l 606 469 l 613 458 q 623 456 614 458 l 623 437 l 637 437 l 637 406 l 655 406 l 655 374 l 670 374 l 670 312 l 686 312 l 686 243 l 675 236 q 673 216 675 225 q 670 198 670 208 l 661 190 q 658 170 661 179 q 655 151 655 161 l 643 144 q 641 132 643 137 q 639 119 639 126 l 623 119 l 623 90 l 612 81 q 610 75 612 77 l 593 72 l 593 56 l 582 49 q 581 46 582 47 q 581 43 581 45 l 560 41 l 560 24 l 547 24 l 547 11 l 514 11 l 514 -5 l 467 -5 l 467 -20 l 418 -20 l 418 -38 l 213 -38 l 213 -20 l 163 -20 l 156 -12 q 144 -9 152 -12 q 134 -7 137 -7 l 134 11 l 104 11 l 104 24 l 71 24 l 64 34 q 56 50 57 34 q 56 75 56 66 l 72 75 l 72 92 l 90 92 l 96 81 q 109 79 103 81 q 122 76 115 76 l 127 66 q 140 64 134 66 q 153 62 146 62 l 153 45 l 216 45 l 221 30 l 399 30 l 399 45 l 448 45 l 448 61 l 479 61 l 479 75 l 488 81 q 490 87 488 84 q 491 92 491 90 l 511 92 l 511 107 l 525 107 l 525 138 l 543 138 l 543 170 l 551 175 l 555 199 q 557 208 556 202 q 557 217 557 213 l 574 217 l 574 372 l 557 372 l 557 419 l 543 419 l 534 427 q 532 427 533 427 q 530 426 532 426 q 529 427 529 426 q 528 427 529 427 l 525 464 l 495 464 l 495 481 l 477 481 l 471 490 q 458 492 467 490 q 446 495 450 495 l 439 503 q 380 507 410 503 q 321 510 351 510 l 321 528 l 305 528 l 298 536 q 292 546 293 536 q 290 563 290 556 l 307 563 l 307 576 l 399 576 l 399 594 l 448 594 l 448 609 l 479 609 l 479 640 l 488 646 q 491 659 488 651 q 494 671 494 667 l 511 671 l 511 704 l 525 704 l 525 841 l 511 841 l 511 873 l 495 873 l 495 903 l 479 903 l 479 921 l 461 921 l 454 929 q 452 930 453 929 q 448 932 450 932 l 448 952 l 431 952 l 431 966 l 368 966 l 362 975 l 326 982 l 326 966 l 263 966 l 263 951 l 252 944 q 252 941 252 943 q 251 939 251 940 l 231 936 l 231 921 l 221 913 q 219 901 221 907 q 217 890 217 895 l 198 890 l 198 857 l 184 857 l 184 840 l 174 833 q 172 830 174 831 q 171 826 171 829 l 117 826 l 110 834 q 106 835 107 834 q 104 836 106 836 l 104 876 l 118 876 l 118 925 l 134 925 l 134 939 l 142 944 q 145 958 142 951 q 148 971 148 964 l 157 977 q 159 986 157 982 l 195 986 l 195 1002 l 227 1002 l 227 1016 l 258 1016 l 258 1034 l 338 1034 l 338 1048 m 20 61 l 38 72 l 56 72 l 56 61 l 20 61 z "},"4":{"ha":838,"x_min":37,"x_max":814,"o":"m 396 1067 l 380 1067 l 380 1051 l 366 1051 l 366 1019 l 349 1019 q 345 1007 349 1016 q 342 993 342 998 l 334 987 l 334 956 l 317 956 q 314 936 317 945 q 311 916 311 926 l 302 909 l 302 865 l 285 865 l 285 848 l 271 848 l 271 800 l 254 800 q 251 787 254 792 q 248 774 248 781 l 240 769 l 240 736 l 222 736 l 222 707 l 209 707 l 209 674 l 193 674 q 187 633 193 654 l 176 627 l 176 597 l 163 597 l 163 566 l 145 566 q 142 551 145 557 q 140 538 140 545 l 132 533 l 132 502 l 110 502 q 109 494 110 496 q 107 490 107 492 l 99 484 l 99 456 l 83 456 l 83 426 l 68 426 l 68 408 l 52 408 q 50 387 52 400 q 46 368 49 374 l 37 361 l 37 274 l 52 274 l 52 240 q 64 237 58 240 q 77 235 71 235 l 84 227 l 522 227 l 522 100 l 538 100 l 538 -9 q 551 -12 545 -9 q 563 -15 557 -15 l 571 -23 l 597 -23 q 598 -19 597 -20 q 600 -15 600 -18 l 610 -8 l 610 8 l 624 8 q 627 41 624 31 q 631 62 631 52 l 640 69 l 640 141 l 624 141 l 624 179 l 642 179 q 644 192 642 186 q 646 205 646 198 l 656 212 l 656 227 l 784 227 q 785 231 784 229 q 787 235 787 232 l 798 241 l 798 285 q 791 286 795 285 q 785 288 787 288 l 781 298 l 656 298 l 656 317 q 644 320 648 320 l 640 331 l 624 331 l 624 628 l 610 628 l 610 646 q 598 648 602 648 l 594 659 l 571 659 l 571 643 l 549 643 q 547 632 547 635 l 538 627 l 538 346 l 522 346 l 522 315 l 476 315 l 476 298 l 170 298 l 170 316 q 159 318 167 316 q 145 320 151 320 l 141 331 l 123 331 q 127 347 125 339 q 130 362 129 354 l 141 369 q 144 389 141 380 q 146 408 146 399 l 156 416 q 158 429 156 423 q 160 441 160 434 l 170 448 l 170 461 l 189 461 q 191 474 189 469 q 193 487 193 479 l 202 494 q 204 504 202 498 q 206 517 206 510 l 217 525 l 217 540 l 233 540 q 235 552 233 547 q 237 564 237 557 l 250 571 l 250 602 l 263 602 l 263 635 l 281 635 q 283 645 281 639 q 285 658 285 651 l 294 665 l 294 697 l 313 697 q 315 709 313 704 q 317 722 317 715 l 327 728 l 327 761 l 345 761 q 347 773 345 768 q 349 785 349 779 l 359 792 q 361 803 359 795 q 363 817 363 811 l 374 823 l 374 871 l 391 871 q 395 880 395 880 l 404 887 q 410 910 410 898 l 420 918 l 420 949 l 437 949 q 439 959 438 952 q 441 972 441 966 l 452 979 l 452 1010 l 468 1010 l 468 1067 l 452 1067 l 452 1082 l 400 1082 l 396 1067 m 514 33 l 525 42 l 538 38 l 538 33 l 514 33 m 406 1088 l 407 1088 q 405 1086 406 1088 q 403 1085 404 1085 l 403 1105 l 412 1097 l 406 1088 m 814 254 l 798 252 l 798 259 l 814 254 z "},"5":{"ha":716,"x_min":39,"x_max":693,"o":"m 559 1048 l 576 1048 l 582 1039 q 595 1037 587 1039 q 609 1035 602 1035 l 609 981 l 598 974 q 596 970 597 971 q 595 966 595 968 l 560 966 l 560 952 l 247 952 l 247 935 l 237 928 q 235 901 237 914 q 232 872 232 887 l 216 865 l 216 704 l 247 704 l 252 694 q 349 691 298 694 q 452 688 400 688 l 458 677 q 470 675 464 677 q 483 673 476 673 l 483 656 l 514 656 l 521 646 q 530 643 522 646 l 530 625 l 560 625 l 567 614 q 576 612 568 614 l 576 594 l 591 594 l 598 583 q 609 581 601 583 l 609 547 l 623 547 l 628 537 q 639 534 631 537 l 639 499 l 655 499 l 655 469 l 671 469 l 671 260 l 661 254 q 659 241 661 247 q 656 229 656 235 l 639 229 l 639 198 l 628 190 q 627 186 628 187 q 625 182 625 184 l 609 182 l 609 133 l 598 126 q 597 123 598 125 q 595 119 595 122 l 576 119 l 576 102 l 566 95 q 564 84 566 92 q 562 72 562 76 l 552 64 q 551 61 552 62 q 549 57 549 60 l 514 57 l 514 41 l 500 41 l 500 24 l 468 24 l 468 11 l 437 11 l 437 -5 l 372 -5 l 372 -20 l 165 -20 l 159 -12 l 160 -12 q 134 -9 146 -11 q 115 -7 123 -8 q 104 -5 107 -5 l 104 11 l 72 11 l 72 24 l 56 24 l 49 34 q 44 35 46 34 q 39 37 42 37 l 39 61 l 57 61 l 57 75 l 107 75 l 107 61 l 170 61 l 176 45 l 324 45 l 324 61 l 369 61 l 369 75 l 400 75 l 400 92 l 434 92 l 434 107 l 464 107 l 464 123 l 472 129 q 475 138 472 133 l 496 138 l 496 155 l 505 160 q 507 174 505 165 q 510 186 510 182 l 528 186 l 528 202 l 541 202 l 541 232 l 559 232 l 559 312 l 567 317 l 574 419 l 559 419 l 559 481 l 541 481 l 541 510 l 528 510 l 528 528 l 511 528 l 511 559 l 477 559 l 471 567 q 468 568 469 567 q 464 570 467 570 l 464 591 l 448 591 l 448 605 l 415 605 l 415 621 l 216 621 l 216 605 l 149 605 l 149 637 l 134 637 l 134 798 l 142 804 q 146 909 142 856 q 149 1016 149 963 l 180 1016 l 180 1034 l 559 1034 l 559 1048 m 693 411 l 693 408 l 688 406 l 671 406 l 671 419 l 693 411 m 693 349 l 693 346 l 688 343 l 671 343 l 671 355 l 693 349 z "},"6":{"ha":716,"x_min":39,"x_max":693,"o":"m 528 1080 l 547 1080 l 547 1065 l 576 1065 l 576 1013 l 547 1013 l 547 998 l 468 998 l 468 982 l 404 982 l 404 966 l 372 966 l 372 951 l 361 944 q 360 941 361 943 q 359 939 359 940 l 326 936 l 326 921 l 315 913 q 313 906 315 909 l 296 903 l 296 888 l 285 882 q 283 869 285 875 q 281 857 281 864 l 264 857 l 264 840 l 252 833 q 251 830 252 831 q 250 826 250 829 l 232 826 l 232 793 l 221 787 q 219 774 221 780 q 217 762 217 769 l 208 755 q 205 743 208 750 q 202 731 202 735 l 184 731 l 184 699 l 175 692 q 172 672 175 682 q 170 652 170 662 l 159 646 l 153 576 l 229 576 l 229 594 l 243 594 l 243 609 l 292 609 l 292 625 l 324 625 l 324 640 l 369 640 l 369 656 l 452 656 l 458 646 q 479 643 467 646 q 500 640 491 640 l 500 625 l 514 625 l 521 614 q 534 612 528 614 q 547 610 540 610 l 547 594 l 576 594 l 583 583 q 591 581 586 583 l 591 563 l 609 563 l 616 552 q 623 551 620 552 l 623 532 l 639 532 l 639 483 l 655 483 l 655 469 l 671 469 l 671 406 l 686 406 l 686 370 l 677 365 l 671 312 l 673 312 q 672 269 673 293 q 671 228 671 244 l 661 221 q 658 202 661 213 q 655 180 655 191 l 644 174 q 642 163 644 170 q 640 152 640 157 l 623 152 l 623 119 l 609 119 l 609 102 l 598 95 q 593 72 598 85 l 560 72 l 560 57 l 530 57 l 530 39 l 519 33 q 517 28 518 30 q 517 24 517 27 l 500 24 l 500 11 l 468 11 l 468 -5 l 404 -5 l 404 -20 l 324 -20 l 316 -12 q 288 -11 304 -12 q 259 -7 271 -9 l 259 11 l 229 11 l 229 24 l 195 24 l 189 34 q 186 35 187 34 q 183 35 184 35 l 180 57 l 165 57 l 159 65 q 149 66 153 65 l 149 103 l 134 103 l 134 119 l 118 119 l 118 152 l 104 152 l 104 182 l 88 182 l 88 214 l 72 214 l 72 277 l 57 277 l 57 355 l 39 355 l 39 532 l 57 532 l 57 609 l 65 614 l 65 613 q 68 637 66 625 q 71 658 69 648 q 72 671 72 667 l 88 671 l 88 718 l 96 723 l 96 722 q 97 728 96 722 q 100 741 98 734 q 103 756 102 749 q 104 768 104 764 l 118 768 l 118 798 l 134 798 l 134 830 l 142 836 q 144 845 142 841 l 167 845 l 167 876 l 180 876 l 180 892 l 197 892 l 197 907 l 205 914 q 206 920 205 917 q 208 925 208 922 l 229 925 l 229 939 l 243 939 l 243 954 l 259 954 l 259 971 l 269 977 q 270 986 269 982 l 307 986 l 307 1002 l 324 1002 l 324 1016 l 369 1016 l 369 1034 l 400 1034 l 400 1048 l 434 1048 l 434 1065 l 528 1065 l 528 1080 m 153 250 l 170 250 l 170 202 l 184 202 l 184 170 l 201 170 l 201 138 l 216 138 l 216 123 l 232 123 l 239 113 q 247 110 241 113 l 247 92 l 264 92 l 271 81 q 275 80 273 83 q 279 77 277 77 l 279 61 l 326 61 l 332 50 l 400 45 l 400 61 l 448 61 l 448 75 l 479 75 l 479 92 l 496 92 l 496 107 l 505 113 q 506 118 505 115 q 507 123 507 121 l 528 123 l 528 155 l 541 155 l 541 170 l 559 170 l 559 217 l 574 222 l 574 464 l 559 464 l 559 481 l 541 481 l 541 510 l 528 510 l 528 528 l 510 528 l 503 536 q 492 538 498 536 q 479 541 486 541 l 479 559 l 434 559 l 425 567 l 326 574 l 326 559 l 279 559 l 279 543 l 247 543 l 247 528 l 237 519 q 236 513 237 515 l 216 510 l 216 496 l 201 496 l 201 480 l 190 473 q 188 462 190 468 q 186 450 186 456 l 170 450 l 170 419 l 159 411 l 153 250 m 693 317 l 693 315 l 688 312 l 673 312 l 673 324 l 693 317 z "},"7":{"ha":684,"x_min":41,"x_max":654,"o":"m 85 1034 l 104 1034 l 111 1016 l 305 1016 l 305 1034 l 606 1034 l 613 1023 q 620 1020 614 1023 l 618 1020 q 623 1019 620 1019 l 623 1002 l 636 1002 l 643 991 q 654 989 646 991 l 654 921 l 643 913 q 640 901 643 907 q 637 888 637 894 l 628 882 q 626 869 628 875 q 624 857 624 864 l 606 857 l 606 825 l 597 818 q 594 791 597 806 q 591 762 591 777 l 579 755 q 576 735 579 746 q 574 716 574 724 l 560 716 l 560 682 l 549 675 q 547 665 549 671 q 545 654 545 659 l 528 654 l 528 620 l 518 613 q 516 603 518 609 q 514 591 514 597 l 496 591 l 496 559 l 483 559 l 483 495 l 471 488 q 468 469 471 477 q 465 449 465 460 l 456 442 q 455 439 456 441 q 454 437 454 438 l 434 434 l 434 401 l 419 401 l 419 354 l 407 347 q 404 328 407 338 q 401 308 401 317 l 392 300 q 389 280 392 289 q 387 260 387 271 l 376 254 q 373 226 376 239 q 370 198 370 213 l 355 198 l 355 180 l 345 174 q 342 138 345 156 q 339 102 339 121 l 330 95 q 328 84 330 92 q 326 72 326 76 l 307 72 l 307 23 l 297 16 q 296 11 297 14 l 278 11 l 278 -20 l 267 -28 q 266 -35 267 -33 l 229 -38 l 229 -52 l 212 -52 l 212 -38 l 194 -38 l 194 -20 l 180 -20 l 180 30 l 194 30 l 194 61 l 212 61 l 212 92 l 220 98 q 220 109 220 104 q 222 119 221 114 l 227 138 l 243 138 l 243 170 l 258 170 l 258 217 l 274 217 l 274 250 l 282 255 q 285 268 282 260 q 288 279 288 275 l 305 279 l 305 328 l 320 328 l 320 359 l 328 365 l 332 389 q 335 406 335 400 l 351 406 l 351 437 l 359 442 q 363 463 359 453 q 368 483 368 473 l 384 483 l 384 514 l 397 514 l 397 563 l 414 563 l 414 594 l 425 600 q 426 609 425 605 l 448 609 l 448 656 l 461 656 l 461 704 l 479 704 l 479 734 l 487 739 q 490 755 487 746 q 492 768 492 765 l 510 768 l 510 798 l 524 798 l 524 863 l 541 863 l 541 903 l 524 903 l 524 936 l 71 936 l 71 952 l 54 952 l 54 982 l 41 982 l 41 1002 l 54 1002 l 54 1016 l 85 1016 l 85 1034 z "},"8":{"ha":746,"x_min":39,"x_max":718,"o":"m 136 266 l 152 266 l 152 202 l 168 202 l 168 170 l 184 170 l 184 138 l 198 138 l 198 123 l 216 123 l 222 113 q 231 110 225 113 l 231 92 l 278 92 l 285 81 q 305 79 292 81 l 324 75 l 324 61 l 415 61 l 415 75 l 463 75 l 463 92 l 494 92 l 494 107 l 525 107 l 525 123 l 541 123 l 541 138 l 556 138 l 556 170 l 572 170 l 572 186 l 581 193 q 582 218 581 205 q 586 250 583 231 l 595 255 l 602 324 l 587 324 l 587 387 l 572 387 l 572 419 l 556 419 l 556 450 l 541 450 l 541 464 l 525 464 l 525 481 l 494 481 l 486 490 q 472 492 479 490 q 461 495 465 495 l 454 503 q 442 506 449 503 q 429 509 435 509 l 429 528 l 324 528 l 324 510 l 260 510 l 260 496 l 231 496 l 231 480 l 221 473 q 218 464 221 472 l 198 464 l 198 450 l 184 450 l 184 419 l 174 411 q 172 399 174 404 q 170 387 170 393 l 152 387 l 152 338 l 141 331 l 136 266 m 556 781 l 572 781 l 572 857 l 556 857 l 556 921 l 540 921 l 533 929 q 530 930 532 929 q 528 930 529 930 l 525 966 l 509 966 l 502 975 q 490 978 498 975 q 479 981 481 981 l 479 998 l 446 998 l 441 1013 l 309 1013 l 309 998 l 278 998 l 278 982 l 247 982 l 247 964 l 236 958 q 235 952 236 955 l 216 952 l 216 935 l 203 928 q 201 908 203 917 q 198 890 198 899 l 184 890 l 184 751 l 198 751 l 198 718 l 216 718 l 216 704 l 231 704 l 236 694 q 247 692 239 694 l 247 671 l 260 671 l 266 662 q 280 660 274 662 q 293 658 286 658 l 293 640 l 339 640 l 339 625 l 429 625 l 429 640 l 463 640 l 463 656 l 494 656 l 494 671 l 525 671 l 525 704 l 541 704 l 541 734 l 556 734 l 556 781 m 320 1080 l 433 1080 l 433 1065 l 498 1065 l 505 1054 q 516 1052 511 1054 q 528 1050 521 1050 l 528 1034 l 560 1034 l 567 1023 q 570 1021 568 1024 q 575 1019 572 1019 l 575 1002 l 591 1002 l 591 971 l 606 971 l 613 959 q 623 956 614 959 l 623 925 l 637 925 l 637 892 l 654 892 l 654 762 l 643 755 q 641 743 643 751 q 639 731 639 735 l 623 731 l 623 699 l 612 692 q 611 689 612 690 q 610 686 610 688 l 591 684 l 591 666 l 581 659 q 579 654 581 656 l 560 654 l 560 637 l 551 629 q 549 625 551 627 q 548 621 548 624 l 528 621 l 528 563 l 544 563 l 551 552 q 560 549 552 552 l 560 532 l 591 532 l 598 519 q 606 518 604 519 l 606 499 l 623 499 l 629 488 q 637 486 632 488 l 637 469 l 654 469 l 654 437 l 669 437 l 669 423 l 685 423 l 685 391 l 700 391 l 700 328 l 718 328 l 718 260 l 705 254 q 703 226 705 239 q 700 198 700 213 l 690 190 q 688 178 690 183 q 686 165 686 172 l 669 165 l 669 152 l 654 152 l 654 133 l 643 126 q 642 123 643 125 q 640 119 640 122 l 623 119 l 623 102 l 612 95 q 610 90 612 92 l 591 90 l 591 71 l 581 64 q 579 61 581 62 q 578 57 578 60 l 560 57 l 560 41 l 528 41 l 528 24 l 498 24 l 498 11 l 401 11 l 401 -5 l 351 -5 l 351 11 l 243 11 l 243 24 l 210 24 l 203 34 q 191 37 199 34 q 180 39 183 39 l 180 57 l 164 57 l 156 65 q 152 66 153 65 q 148 68 151 68 l 148 90 l 133 90 l 133 103 l 118 103 l 118 119 l 102 119 l 102 152 l 85 152 l 85 182 l 71 182 l 64 190 q 61 191 62 190 q 58 191 60 191 l 56 277 l 39 277 l 39 296 l 47 301 q 52 338 47 320 q 56 374 56 355 l 72 374 l 72 406 l 85 406 l 85 437 l 102 437 l 102 453 l 111 458 q 113 464 111 461 q 114 469 114 467 l 133 469 l 133 483 l 164 483 l 164 499 l 180 499 l 180 514 l 189 519 q 190 529 189 525 l 191 532 l 212 532 l 212 547 l 243 547 l 243 591 l 227 591 l 227 605 l 212 605 l 212 621 l 194 621 l 187 629 q 184 631 186 629 q 180 632 183 632 l 180 654 l 148 654 l 148 684 l 132 684 l 125 693 q 122 694 123 693 q 118 696 121 696 l 118 745 l 102 745 l 102 795 l 85 795 l 85 845 l 102 845 l 102 892 l 111 898 l 115 922 q 118 939 118 933 l 126 944 q 129 958 126 951 q 132 971 132 964 l 141 977 q 142 986 141 982 l 164 986 l 164 1002 l 180 1002 l 180 1016 l 212 1016 l 212 1034 l 227 1034 l 227 1048 l 275 1048 l 275 1065 l 320 1065 l 320 1080 z "},"9":{"ha":700,"x_min":41,"x_max":670,"o":"m 137 656 l 153 656 l 153 594 l 170 594 l 176 583 q 183 582 180 583 l 183 547 l 199 547 l 206 537 q 216 534 208 537 l 216 514 l 245 514 l 251 505 q 265 503 259 505 q 278 500 271 500 l 278 483 l 414 483 l 414 499 l 448 499 l 448 514 l 464 514 l 464 532 l 477 532 l 477 547 l 510 547 l 510 576 l 526 576 l 526 594 l 541 594 l 541 609 l 556 614 l 556 841 l 541 841 l 541 873 l 526 873 l 526 903 l 510 903 l 510 936 l 495 936 l 495 952 l 477 952 l 477 966 l 446 966 l 439 975 q 420 979 429 975 q 400 982 411 982 l 400 998 l 308 998 l 308 982 l 278 982 l 278 966 l 245 966 l 245 952 l 216 952 l 216 935 l 206 928 q 205 925 206 926 q 203 921 203 924 l 183 921 l 183 890 l 170 890 l 170 872 l 159 865 q 156 822 159 844 q 153 777 153 800 l 142 770 l 137 656 m 320 1065 l 387 1065 l 393 1054 q 415 1051 404 1054 q 437 1048 426 1048 l 442 1039 q 462 1036 452 1039 q 483 1034 472 1034 l 490 1023 q 501 1020 496 1023 q 513 1017 506 1017 l 518 1008 q 528 1005 519 1008 l 528 986 l 560 986 l 566 977 q 576 974 568 977 l 576 939 l 591 939 l 591 925 l 608 925 l 608 892 l 623 892 l 623 863 l 639 863 l 639 830 l 654 830 l 654 751 l 670 751 l 670 495 l 659 488 q 656 462 659 476 q 654 434 654 448 l 639 434 l 639 370 l 628 363 q 625 336 628 350 q 623 308 623 321 l 613 300 q 611 288 613 294 q 609 277 609 282 l 591 277 l 591 244 l 576 244 l 576 228 l 566 221 q 564 210 566 214 q 562 198 562 205 l 545 198 l 545 180 l 533 174 q 531 163 533 170 q 529 152 529 157 l 513 152 l 513 134 l 499 134 l 499 118 l 488 111 q 488 109 488 110 q 487 106 487 107 l 467 103 l 467 90 l 456 81 q 454 75 456 77 l 437 72 l 437 57 l 403 57 l 403 41 l 373 41 l 373 24 l 340 24 l 340 11 l 308 11 l 308 -5 l 263 -5 l 263 -20 l 199 -20 l 199 -38 l 195 -39 l 197 -20 l 133 -20 l 133 30 l 165 30 l 165 45 l 228 45 l 228 61 l 274 61 l 274 75 l 320 75 l 320 92 l 351 92 l 351 107 l 384 107 l 384 138 l 400 138 l 400 155 l 433 155 l 433 170 l 441 175 q 442 180 441 178 q 444 186 444 183 l 464 186 l 464 217 l 477 217 l 477 250 l 495 250 l 495 279 l 503 285 q 506 300 503 290 q 509 312 509 309 l 526 312 l 526 343 l 541 343 l 541 464 l 499 464 l 499 450 l 467 450 l 467 434 l 437 434 l 437 419 l 403 419 l 403 401 l 260 401 l 260 419 l 210 419 l 203 427 q 191 430 197 427 q 180 433 184 433 l 180 450 l 165 450 l 165 464 l 148 464 l 148 481 l 132 481 l 125 490 q 122 490 123 490 q 119 491 121 491 l 117 510 l 103 510 l 103 543 l 85 543 l 85 574 l 71 574 l 71 605 l 57 605 l 57 654 l 41 654 l 41 798 l 57 798 l 57 845 l 71 845 l 71 892 l 79 898 q 81 913 79 903 q 84 925 84 922 l 103 925 l 103 939 l 117 939 l 117 971 l 133 971 l 133 986 l 165 986 l 165 1002 l 174 1008 q 175 1012 174 1010 q 176 1016 176 1013 l 212 1016 l 212 1034 l 243 1034 l 243 1048 l 320 1048 l 320 1065 m 98 -3 l 114 11 l 133 11 l 133 -3 l 98 -3 z "},"\u0000":{"ha":0,"x_min":0,"x_max":0,"o":""},"\r":{"ha":1389,"x_min":0,"x_max":0,"o":""}," ":{"ha":597,"x_min":0,"x_max":0,"o":""},"b":{"ha":852,"x_min":18,"x_max":833,"o":"m 718 328 l 734 328 l 734 403 l 718 403 l 718 450 l 704 450 l 704 481 l 686 481 l 686 513 l 671 513 l 671 529 l 652 529 l 646 540 q 643 541 644 540 q 639 543 642 543 l 639 563 l 621 563 l 621 578 l 608 578 l 608 594 l 557 594 l 552 609 l 357 609 l 357 594 l 324 594 l 324 578 l 293 578 l 293 545 l 278 540 l 278 121 l 293 121 l 300 110 q 308 109 304 110 l 311 109 l 311 90 l 324 90 l 331 79 q 357 76 343 79 q 388 73 372 73 l 395 58 l 544 58 l 544 73 l 575 73 l 575 90 l 608 90 l 608 104 l 621 104 l 621 121 l 654 121 l 654 153 l 671 153 l 671 168 l 680 175 q 682 189 680 182 q 685 201 685 197 l 704 201 l 704 233 l 718 233 l 718 328 m 210 1057 l 278 1057 l 278 1043 l 293 1043 l 293 863 l 278 857 l 278 677 l 293 677 l 298 667 l 369 662 l 369 677 l 449 677 l 449 692 l 579 692 l 579 677 l 627 677 l 632 667 q 645 665 639 667 q 658 663 651 663 l 658 644 l 675 644 l 681 635 q 694 633 688 635 q 707 631 700 631 l 707 614 l 722 614 l 728 604 q 735 602 732 604 l 735 582 l 754 582 l 754 549 l 769 549 l 769 536 l 787 536 l 787 502 l 800 502 l 800 471 l 817 471 l 817 376 l 833 376 l 833 290 l 823 283 l 823 285 q 819 258 821 270 q 817 239 818 247 q 817 228 817 231 l 806 221 q 803 201 806 212 q 800 183 800 191 l 787 183 l 787 148 l 774 141 q 772 132 774 140 l 754 132 l 754 117 l 743 110 q 741 106 743 109 q 738 102 739 104 l 722 102 l 722 84 l 712 77 q 711 75 712 76 q 711 72 711 73 l 689 69 l 689 54 l 658 54 l 658 37 l 648 30 q 647 27 648 28 q 646 23 646 26 l 594 23 l 594 5 l 548 5 l 548 -9 l 368 -9 l 362 5 l 247 5 l 247 -9 l 197 -9 l 189 -1 q 186 -2 187 -1 q 184 -3 186 -3 q 182 18 183 -3 q 181 68 182 38 q 180 136 180 99 q 180 205 180 172 q 179 264 179 239 q 179 297 179 289 l 197 297 l 197 911 l 179 911 l 179 943 l 163 943 l 156 951 q 115 954 137 951 q 69 958 92 958 l 69 975 l 53 975 l 49 979 l 52 979 q 52 994 52 985 q 53 1010 53 1004 l 84 1010 l 84 1025 l 164 1025 l 164 1043 l 210 1043 l 210 1057 m 317 1015 l 317 1012 l 293 1012 l 293 1021 l 317 1015 m 38 997 l 38 986 q 42 984 41 986 q 46 982 43 982 l 46 979 l 18 979 l 38 997 z "},"c":{"ha":760,"x_min":38,"x_max":738,"o":"m 339 708 l 517 708 l 524 697 q 543 694 533 697 q 564 692 553 692 l 564 677 l 594 677 l 600 667 q 612 665 604 667 l 612 644 l 627 644 l 632 635 q 640 633 637 635 l 640 614 l 658 614 l 658 582 l 673 582 l 673 502 l 690 502 l 690 498 l 678 491 q 676 479 678 484 q 674 467 674 473 l 658 467 l 658 450 l 609 450 l 601 460 q 587 463 595 460 q 576 465 579 465 l 576 499 l 559 499 l 559 594 l 544 594 l 537 602 q 534 603 536 602 q 532 604 533 604 l 529 627 l 479 627 l 473 642 l 324 642 l 324 627 l 294 627 l 294 609 l 262 609 l 262 593 l 252 586 q 252 583 252 585 q 251 581 251 582 l 229 578 l 229 563 l 216 563 l 216 545 l 203 540 q 201 535 202 537 q 201 529 201 533 l 183 529 l 183 499 l 172 491 q 170 469 172 483 l 165 450 l 152 450 l 152 247 l 165 247 l 165 201 l 183 201 l 183 187 l 198 187 l 198 153 l 216 153 l 222 142 q 229 141 227 142 l 229 121 l 262 121 l 269 110 q 281 108 275 110 q 294 106 288 106 l 300 96 l 298 96 q 331 92 316 94 q 357 90 345 91 q 376 90 369 90 l 382 73 l 496 73 l 496 90 l 591 90 l 591 104 l 623 104 l 623 121 l 669 121 l 669 137 l 724 137 l 731 126 q 738 125 735 126 l 738 102 l 724 102 l 724 84 l 711 77 q 710 75 711 76 q 709 72 709 73 l 673 69 l 673 54 l 627 54 l 627 38 l 594 38 l 594 23 l 517 23 l 517 5 l 468 5 l 468 -9 l 305 -9 l 298 -1 l 300 -1 q 275 1 288 0 q 255 4 264 3 q 243 5 245 5 l 243 23 l 193 23 l 186 31 q 182 32 183 31 q 180 33 182 33 l 180 54 l 164 54 l 164 69 l 148 69 l 148 85 l 134 85 l 126 94 q 124 93 125 94 q 122 92 123 92 q 121 93 121 92 q 119 94 121 94 l 117 118 l 102 118 l 102 149 l 84 149 l 84 183 l 69 183 l 69 229 l 52 229 l 52 275 l 38 275 l 38 359 l 52 359 l 52 454 l 69 454 l 69 484 l 77 491 q 80 505 77 496 q 83 517 83 513 l 102 517 l 102 549 l 110 555 q 111 560 110 557 q 113 566 113 563 l 134 566 l 134 582 l 148 582 l 148 598 l 164 598 l 164 614 l 174 620 q 175 629 174 625 l 194 629 l 194 644 l 227 644 l 227 662 l 243 662 l 243 677 l 290 677 l 290 692 l 339 692 l 339 708 z "},"d":{"ha":823,"x_min":38,"x_max":803,"o":"m 136 279 l 152 279 l 152 217 l 168 217 l 168 187 l 183 187 l 190 175 q 198 172 193 175 l 197 172 q 201 171 198 171 l 201 137 l 214 137 l 221 126 q 232 123 224 126 l 232 104 l 247 104 l 247 90 l 278 90 l 285 79 q 336 76 311 79 q 391 73 361 73 l 396 64 l 449 58 l 449 73 l 513 73 l 513 90 l 545 90 l 545 104 l 562 104 l 562 121 l 575 121 l 575 264 l 593 264 l 593 513 l 575 513 l 575 578 l 545 578 l 545 594 l 511 594 l 505 602 q 486 606 494 602 q 467 609 477 609 l 467 627 l 327 627 l 327 609 l 278 609 l 278 594 l 247 594 l 247 578 l 214 578 l 214 547 l 201 547 l 201 528 l 190 521 q 189 518 190 519 q 189 515 189 517 l 168 513 l 168 480 l 157 473 q 155 453 157 464 q 152 433 152 442 l 141 426 l 136 279 m 625 1057 l 675 1057 l 675 1010 l 689 1010 l 689 975 l 675 975 l 675 882 l 689 882 l 689 864 l 675 864 l 675 137 l 689 137 l 689 104 l 770 104 l 770 90 l 803 90 l 803 53 l 792 46 q 791 43 792 45 q 791 41 791 42 l 722 38 l 722 23 l 675 23 l 675 5 l 608 5 l 608 23 l 502 23 l 502 5 l 438 5 l 438 -9 l 258 -9 l 251 -1 q 239 1 247 -1 q 229 4 232 4 l 229 23 l 195 23 l 189 31 q 186 31 187 31 q 184 30 186 30 q 183 31 183 30 q 182 31 183 31 l 179 54 l 151 54 l 151 69 l 133 69 l 133 85 l 117 85 l 110 94 q 108 93 109 94 q 106 92 107 92 q 104 93 104 92 q 103 94 104 94 l 100 132 l 87 132 l 87 149 l 71 149 l 71 183 l 54 183 l 54 244 l 38 244 l 38 406 l 54 406 l 54 454 l 62 460 q 66 487 62 472 l 69 502 l 87 502 l 87 536 l 100 536 l 100 549 l 118 549 l 118 566 l 126 572 q 127 582 126 578 l 151 582 l 151 598 l 164 598 l 164 614 l 172 620 q 174 629 172 625 l 212 629 l 212 644 l 243 644 l 243 662 l 275 662 l 275 677 l 502 677 l 507 667 l 575 662 l 575 708 l 593 708 l 593 769 l 575 769 l 575 836 l 593 836 l 593 911 l 575 911 l 575 943 l 528 943 l 521 951 l 480 955 q 465 957 473 956 q 449 958 456 958 l 449 993 l 467 993 l 467 1010 l 498 1010 l 498 1025 l 575 1025 l 575 1043 l 625 1043 l 625 1057 z "},"e":{"ha":776,"x_min":38,"x_max":754,"o":"m 608 454 l 623 454 l 623 499 l 608 499 l 608 529 l 590 529 l 583 540 q 581 541 582 540 q 576 543 579 543 l 576 563 l 559 563 l 559 594 l 526 594 l 519 602 q 517 604 518 602 q 513 605 515 605 l 513 627 l 463 627 l 457 642 l 311 642 l 311 627 l 278 627 l 278 608 l 267 601 q 266 598 267 600 q 264 594 264 597 l 245 594 l 245 578 l 235 570 q 233 563 235 566 l 216 563 l 216 545 l 203 540 q 201 535 202 537 q 201 529 201 533 l 183 529 l 183 499 l 165 491 l 165 392 l 449 392 l 449 406 l 591 406 l 591 423 l 608 423 l 608 454 m 307 708 l 500 708 l 507 697 q 519 695 514 697 q 532 693 525 693 l 538 682 q 550 680 544 682 q 563 678 556 678 l 563 662 l 581 662 l 587 651 q 599 648 593 651 q 610 646 605 646 l 610 629 l 627 629 l 632 620 q 640 618 637 620 l 640 598 l 658 598 l 658 566 l 673 566 l 680 555 q 690 552 682 555 l 690 517 l 705 517 l 705 471 l 722 471 l 722 369 l 711 362 q 709 357 711 359 l 658 357 l 658 340 l 245 340 l 245 324 l 165 324 l 165 308 l 152 308 l 152 233 l 165 233 l 165 201 l 183 201 l 183 168 l 198 168 l 203 159 q 213 157 209 159 l 216 157 l 216 137 l 229 137 l 236 126 q 248 124 240 126 q 262 122 256 122 l 262 104 l 294 104 l 294 90 l 357 90 l 363 73 l 513 73 l 513 90 l 608 90 l 608 104 l 655 104 l 655 121 l 701 121 l 701 137 l 738 137 l 745 126 q 754 123 746 126 l 754 102 l 743 94 q 742 90 743 91 q 741 85 741 88 l 722 85 l 722 69 l 690 69 l 690 54 l 658 54 l 658 38 l 594 38 l 594 23 l 532 23 l 532 5 l 453 5 l 453 -9 l 320 -9 l 313 -1 l 315 -1 l 290 1 q 271 4 279 3 q 258 5 262 5 l 258 23 l 209 23 l 202 31 q 191 34 198 31 q 180 37 183 37 l 180 54 l 163 54 l 163 69 l 148 69 l 148 85 l 115 85 l 109 94 q 106 95 107 94 q 102 96 104 96 l 102 132 l 84 132 l 84 149 l 69 149 l 69 183 l 52 183 l 52 262 l 38 262 l 38 376 l 52 376 l 52 454 l 69 454 l 69 484 l 77 491 q 80 505 77 496 q 83 517 83 513 l 102 517 l 102 549 l 110 555 q 111 560 110 557 q 113 566 113 563 l 133 566 l 133 582 l 148 582 l 148 614 l 156 620 q 157 629 156 625 l 180 629 l 180 644 l 210 644 l 210 662 l 243 662 l 243 677 l 274 677 l 274 692 l 307 692 l 307 708 z "},"f":{"ha":789,"x_min":34,"x_max":776,"o":"m 464 1063 l 562 1063 l 562 1050 l 738 1050 l 745 1038 q 754 1035 746 1038 l 754 964 l 720 964 l 720 948 l 709 941 q 699 937 709 939 q 673 934 688 935 q 644 933 658 933 q 623 933 629 933 l 623 949 l 543 949 l 537 964 l 389 964 l 389 949 l 355 949 l 355 933 l 342 933 l 342 917 l 330 910 q 328 898 330 903 q 326 886 326 892 l 309 886 l 309 699 l 324 699 l 324 684 l 342 684 l 349 667 l 623 667 l 623 684 l 658 684 l 665 673 q 677 671 671 673 q 690 669 684 669 l 690 632 l 678 625 q 677 623 678 624 q 677 620 677 621 l 355 617 l 355 601 l 324 601 l 324 111 l 342 111 l 342 80 l 355 80 l 361 71 q 445 68 403 71 q 530 65 487 65 l 537 53 l 606 47 l 606 65 l 609 65 l 616 53 q 627 51 621 53 q 640 49 633 49 l 640 12 l 627 12 l 627 -3 l 50 -3 l 43 5 q 40 6 41 5 q 38 7 39 7 l 38 34 l 52 34 l 52 47 l 84 47 l 84 65 l 194 65 l 194 80 l 227 80 l 227 98 l 243 98 l 243 585 l 227 585 l 227 601 l 193 601 l 186 609 q 139 610 163 609 q 84 616 115 612 l 84 633 l 69 633 l 69 667 l 100 667 l 100 684 l 210 684 l 210 699 l 218 704 q 222 765 218 734 q 227 826 227 796 l 243 826 l 243 891 l 256 891 l 256 921 l 274 921 l 274 954 l 282 959 q 282 964 282 960 q 283 970 282 967 l 307 970 l 307 986 l 320 986 l 320 1000 l 353 1000 l 353 1017 l 369 1017 l 369 1032 l 400 1032 l 400 1050 l 464 1050 l 464 1063 m 576 -3 l 576 -38 l 562 -23 l 562 -3 l 576 -3 m 34 636 l 52 655 l 52 647 l 69 647 l 69 636 l 34 636 m 637 617 l 631 593 l 628 593 l 628 617 l 637 617 m 776 1021 l 776 1019 l 754 1017 l 754 1028 l 776 1021 z "},"g":{"ha":822,"x_min":38,"x_max":802,"o":"m 701 -191 l 718 -191 l 718 -66 l 701 -66 l 701 -49 l 685 -49 l 678 -41 q 666 -38 673 -41 q 652 -35 659 -35 l 646 -27 q 634 -24 642 -27 q 624 -22 627 -22 l 624 -3 l 198 -3 l 198 -20 l 183 -20 l 183 -35 l 172 -42 q 171 -45 172 -43 q 170 -49 170 -46 l 152 -49 l 152 -68 l 140 -75 q 138 -85 140 -79 q 136 -98 136 -92 l 136 -96 l 121 -104 l 121 -205 l 134 -205 l 134 -237 l 152 -237 l 159 -248 q 167 -251 161 -248 l 167 -269 l 198 -269 l 205 -279 q 241 -282 222 -279 q 278 -285 260 -285 l 283 -294 q 315 -298 290 -294 q 357 -301 339 -301 l 362 -311 l 401 -316 l 401 -301 l 528 -301 l 528 -285 l 576 -285 l 576 -269 l 624 -269 l 624 -254 l 654 -254 l 654 -237 l 663 -232 q 665 -222 663 -227 l 686 -222 l 686 -205 l 701 -205 l 701 -191 m 183 366 l 198 366 l 198 335 l 214 335 l 221 323 q 231 320 222 323 l 231 304 l 247 304 l 254 292 q 273 289 263 292 q 293 286 283 286 l 298 271 l 465 271 l 465 286 l 495 286 l 495 304 l 528 304 l 528 335 l 545 335 l 545 366 l 560 373 l 560 519 l 545 519 l 545 553 l 528 553 l 528 585 l 513 585 l 513 601 l 480 601 l 473 609 q 460 612 471 609 l 449 616 l 449 633 l 293 633 l 293 617 l 260 617 l 260 601 l 231 601 l 231 583 l 220 576 q 218 565 220 571 q 216 553 216 559 l 198 553 l 198 519 l 183 519 l 183 366 m 289 684 l 437 684 l 444 673 q 464 670 453 673 q 484 667 475 667 l 490 658 q 511 655 500 658 q 532 652 521 652 l 538 642 q 550 640 545 642 q 563 637 555 637 l 563 620 l 755 620 l 755 605 l 769 605 l 769 570 l 755 570 l 755 553 l 642 553 l 642 538 l 632 529 l 627 492 l 642 492 l 642 393 l 632 387 q 630 375 632 381 q 628 362 628 369 l 609 362 l 609 331 l 595 331 l 595 300 l 586 292 q 585 285 586 288 l 563 282 l 563 269 l 532 269 l 532 251 l 499 251 l 499 236 l 453 236 l 453 220 l 311 220 l 311 203 l 278 203 l 278 189 l 267 182 q 264 171 267 179 l 247 171 l 247 155 l 236 148 q 234 137 236 145 q 232 125 232 129 l 214 125 l 214 80 l 247 80 l 252 71 q 367 68 308 71 q 484 65 426 65 l 491 53 l 528 47 l 528 65 l 595 65 l 602 53 q 645 50 621 53 q 689 47 669 47 l 689 34 l 722 34 l 728 23 q 732 22 730 23 q 738 20 734 20 l 738 1 l 755 1 l 762 -9 q 774 -12 768 -9 q 787 -14 780 -14 l 787 -31 l 802 -31 l 802 -163 l 792 -170 q 790 -182 792 -174 q 788 -194 788 -190 l 769 -194 l 769 -227 l 755 -227 l 755 -241 l 745 -248 q 743 -253 745 -251 q 742 -258 742 -255 l 722 -258 l 722 -273 l 689 -273 l 689 -289 l 678 -296 q 677 -302 678 -300 l 642 -305 l 642 -319 l 595 -319 l 595 -336 l 549 -336 l 549 -351 l 468 -351 l 468 -368 l 370 -368 l 370 -351 l 224 -351 l 217 -343 q 198 -340 206 -343 q 179 -336 190 -336 l 179 -319 l 149 -319 l 149 -305 l 117 -305 l 117 -288 l 99 -288 l 92 -279 q 90 -279 91 -279 q 87 -278 88 -278 l 84 -240 l 71 -240 l 71 -227 l 53 -227 l 53 -175 l 38 -175 l 38 -141 l 46 -134 q 47 -123 46 -127 q 49 -113 47 -118 l 53 -94 l 71 -94 l 71 -77 l 84 -77 l 84 -47 l 100 -47 l 100 -31 l 110 -26 q 110 -21 110 -24 q 111 -15 110 -18 l 133 -15 l 133 18 l 141 23 l 149 62 l 133 62 l 133 111 l 141 117 q 144 132 141 122 q 146 144 146 141 l 156 149 q 157 155 156 152 q 159 160 159 157 l 179 160 l 179 175 l 189 182 q 191 195 189 187 q 194 208 194 203 l 212 208 l 212 251 l 195 251 l 195 269 l 179 269 l 179 282 l 163 282 l 163 300 l 149 300 l 149 331 l 133 331 l 133 346 l 117 346 l 117 395 l 100 395 l 100 509 l 110 514 l 114 540 q 117 556 117 551 l 133 556 l 133 589 l 141 594 q 142 600 141 597 q 144 605 144 602 l 163 605 l 163 620 l 195 620 l 195 636 l 212 636 l 212 652 l 243 652 l 243 667 l 289 667 l 289 684 m 793 578 l 793 575 l 769 575 l 769 585 l 793 578 z "},"h":{"ha":930,"x_min":35,"x_max":913,"o":"m 241 1050 l 263 1050 l 270 1038 q 278 1035 273 1038 l 278 1017 l 296 1017 l 296 963 l 283 956 q 281 907 283 933 q 278 853 278 880 l 269 848 l 263 779 l 278 779 l 278 757 l 263 751 l 263 652 l 278 652 l 278 605 l 323 605 l 323 620 l 387 620 l 387 636 l 400 636 l 400 652 l 448 652 l 448 667 l 480 667 l 480 684 l 628 684 l 635 673 q 654 670 644 673 q 674 667 665 667 l 680 658 q 690 655 682 658 l 690 636 l 707 636 l 713 625 q 720 624 718 625 l 720 605 l 738 605 l 745 594 q 753 591 747 594 l 753 556 l 772 556 l 772 509 l 785 509 l 785 445 l 802 445 l 802 378 l 785 370 l 785 47 l 880 47 l 880 34 l 913 34 l 913 11 l 902 4 q 901 1 902 3 q 899 -3 899 0 l 880 -3 l 880 -20 l 656 -20 l 656 -3 l 624 -3 l 624 34 l 656 34 l 656 47 l 670 47 l 670 65 l 678 71 q 682 154 678 110 q 685 240 685 198 l 703 240 l 703 457 l 685 457 l 685 505 l 670 505 l 670 538 l 655 538 l 648 547 q 646 546 647 547 q 644 545 646 545 q 643 546 643 545 q 642 547 643 547 l 639 570 l 624 570 l 624 585 l 593 585 l 593 601 l 437 601 l 437 585 l 389 585 l 389 570 l 342 570 l 342 553 l 309 553 l 309 538 l 296 538 l 296 518 l 283 511 q 282 509 283 510 q 281 505 281 507 l 263 505 l 263 111 l 278 111 l 278 65 l 309 65 l 316 53 q 353 50 334 53 q 389 47 372 47 l 389 34 l 420 34 l 420 12 l 404 12 l 404 -3 l 245 -3 l 245 -20 l 149 -20 l 149 -3 l 118 -3 l 118 47 l 149 47 l 149 65 l 157 71 q 159 80 157 76 l 182 80 l 182 761 l 195 761 l 195 838 l 182 838 l 182 903 l 163 903 l 156 911 q 144 914 151 911 q 130 917 137 917 l 123 925 q 96 929 113 925 q 69 933 79 933 l 69 949 l 50 949 l 43 958 q 37 962 39 958 q 35 970 35 966 l 52 970 l 52 986 l 85 986 l 85 1000 l 149 1000 l 149 1017 l 182 1017 l 182 1032 l 241 1032 l 241 1050 z "},"i":{"ha":746,"x_min":19,"x_max":724,"o":"m 339 1020 l 391 1020 l 396 1010 q 409 1008 404 1010 q 422 1006 414 1006 l 422 987 l 439 987 l 439 974 l 454 974 l 454 905 l 445 898 q 444 895 445 897 q 442 891 442 894 l 422 891 l 422 872 l 408 872 l 408 857 l 396 850 q 393 841 396 849 l 357 841 l 357 826 l 338 826 l 331 834 q 312 838 320 834 q 293 841 304 841 l 293 859 l 275 859 l 275 872 l 260 872 l 260 941 l 269 947 q 271 962 269 952 q 274 974 274 971 l 293 974 l 293 987 l 307 987 l 307 1005 l 339 1005 l 339 1020 m 324 703 l 357 703 l 365 692 q 378 690 372 692 q 391 686 384 689 l 391 639 l 408 639 l 408 620 l 391 614 l 391 99 l 408 99 l 408 84 l 439 84 l 446 73 q 565 71 506 73 q 690 68 624 68 l 696 58 q 710 56 705 58 q 724 53 715 53 l 724 15 l 712 8 q 711 5 712 7 q 711 3 711 4 l 677 0 l 677 -15 l 623 -15 l 617 0 l 90 0 l 90 -14 l 80 -7 q 66 -4 75 -7 q 56 -1 58 -1 l 56 52 l 64 58 q 65 68 64 64 l 229 68 l 229 84 l 260 84 l 260 99 l 293 99 l 293 604 l 244 604 l 244 621 l 106 621 l 106 604 l 71 604 l 71 621 l 54 621 l 47 629 q 45 629 46 629 q 43 628 45 628 q 39 638 41 628 q 38 655 38 648 l 56 655 l 56 671 l 180 671 l 180 685 l 324 685 l 324 703 m 19 22 l 35 33 l 56 33 l 56 22 l 19 22 z "},"j":{"ha":624,"x_min":39,"x_max":597,"o":"m 435 1005 l 517 1005 l 524 993 q 534 990 526 993 l 534 974 l 549 974 l 549 905 l 540 898 q 538 895 540 897 q 537 891 537 894 l 517 891 l 517 872 l 503 872 l 503 857 l 492 850 q 488 841 492 845 l 454 841 l 454 826 l 434 826 l 427 834 q 414 837 423 834 q 403 840 406 840 l 403 859 l 372 859 l 372 906 l 357 906 l 357 910 l 365 916 l 369 940 q 372 956 372 948 l 389 956 l 389 974 l 403 974 l 403 987 l 435 987 l 435 1005 m 574 945 l 574 943 l 549 943 l 549 952 l 574 945 m 514 685 l 549 685 l 549 671 l 566 671 l 572 661 q 581 659 578 661 l 581 228 l 597 228 l 597 144 l 586 136 l 581 52 l 597 52 l 597 47 l 586 42 l 581 4 l 597 4 l 597 -144 l 586 -151 q 583 -185 586 -167 q 581 -222 581 -203 l 566 -222 l 566 -252 l 534 -252 l 534 -271 l 522 -278 q 521 -281 522 -279 q 519 -285 519 -282 l 503 -285 l 503 -300 l 471 -300 l 471 -316 l 423 -316 l 423 -331 l 311 -331 l 311 -349 l 292 -349 l 292 -331 l 183 -331 l 175 -323 l 151 -320 q 132 -317 141 -319 q 119 -316 122 -316 l 119 -300 l 87 -300 l 87 -285 l 69 -285 l 62 -277 q 58 -276 60 -277 q 56 -275 57 -275 l 56 -252 l 39 -252 l 39 -250 l 56 -250 l 56 -217 l 71 -217 l 71 -202 l 87 -202 l 87 -186 l 106 -186 l 113 -197 q 125 -199 119 -197 q 138 -201 132 -201 l 138 -217 l 168 -217 l 175 -229 q 184 -232 176 -229 l 184 -250 l 217 -250 l 224 -262 q 235 -264 231 -262 q 247 -266 240 -266 l 254 -281 l 389 -281 l 389 -267 l 420 -267 l 420 -250 l 429 -244 q 430 -235 429 -239 l 450 -235 l 450 -217 l 481 -217 l 481 -107 l 499 -107 l 499 -46 l 481 -46 l 481 4 l 499 4 l 499 80 l 481 80 l 481 589 l 290 589 l 283 597 q 263 600 277 597 l 244 604 l 244 621 l 229 621 l 225 625 l 228 625 q 229 640 228 631 q 229 655 229 648 l 262 655 l 262 671 l 514 671 l 514 685 m 212 643 l 212 632 q 214 631 213 632 q 216 631 214 631 l 222 628 l 222 625 l 194 625 l 212 643 z "},"k":{"ha":944,"x_min":16,"x_max":935,"o":"m 241 1051 l 260 1051 l 260 1036 l 293 1036 l 293 871 l 277 864 l 277 369 l 293 369 l 298 359 l 351 354 l 351 369 l 368 369 l 368 387 l 377 392 q 378 396 377 395 q 380 400 380 397 l 400 400 l 400 416 l 434 416 l 434 433 l 448 433 l 448 448 l 457 454 q 458 460 457 457 q 460 465 460 463 l 480 465 l 480 479 l 495 479 l 495 496 l 511 496 l 511 511 l 519 517 q 521 522 519 519 q 522 528 522 525 l 544 528 l 544 544 l 557 544 l 557 621 l 543 621 l 536 629 q 526 631 530 629 l 526 655 l 544 655 l 544 671 l 800 671 l 807 661 q 818 658 810 661 l 818 639 l 831 639 l 831 635 l 818 636 l 818 621 l 769 621 l 769 604 l 735 604 l 735 589 l 704 589 l 704 571 l 671 571 l 671 557 l 642 557 l 642 540 l 631 533 q 630 530 631 532 q 629 526 629 528 l 612 524 l 612 507 l 579 507 l 579 494 l 567 486 q 566 479 567 481 l 547 476 l 547 460 l 536 453 q 534 446 536 449 l 515 444 l 515 354 l 530 354 l 537 343 q 547 340 538 343 l 547 307 l 562 307 l 567 297 q 579 294 571 297 l 579 274 l 594 274 l 594 241 l 612 241 l 612 228 l 625 228 l 632 217 q 636 216 633 217 q 642 213 639 214 l 642 195 l 658 195 l 665 184 q 671 183 669 184 l 671 163 l 689 163 l 694 153 q 704 151 696 153 l 704 115 l 720 115 l 727 104 q 739 102 732 104 q 751 100 745 100 l 758 90 q 762 88 761 90 q 769 87 762 87 l 769 68 l 845 68 l 845 84 l 910 84 l 910 33 l 880 33 l 880 15 l 869 8 q 869 5 869 7 q 868 3 868 4 l 818 0 l 818 -15 l 747 -15 l 741 -7 q 728 -4 736 -7 q 716 -1 719 -1 l 716 16 l 699 16 l 692 26 q 688 26 689 26 q 685 27 686 27 l 685 49 l 670 49 l 670 64 l 654 64 l 654 80 l 637 80 l 631 88 q 628 89 629 88 q 625 90 627 90 l 623 113 l 606 113 l 606 126 l 590 126 l 590 144 l 575 144 l 575 175 l 556 175 l 549 186 q 546 186 547 186 q 544 187 545 187 l 544 224 l 525 224 l 518 232 q 515 233 517 232 q 511 235 514 235 l 511 270 l 495 270 l 495 286 l 479 286 l 472 294 q 468 296 469 294 q 464 297 467 297 l 464 334 l 434 334 l 434 351 l 388 351 l 388 332 l 378 326 q 377 323 378 324 q 376 319 376 321 l 355 319 l 355 302 l 346 294 q 345 290 346 292 q 343 286 343 289 l 323 286 l 323 270 l 309 270 l 309 254 l 298 247 q 298 244 298 245 q 297 241 297 243 l 277 239 l 277 99 l 293 99 l 293 68 l 309 68 l 315 58 l 313 58 q 339 54 327 56 q 359 52 350 53 q 373 52 369 52 l 380 41 q 391 39 385 41 q 404 37 397 37 l 411 27 q 415 27 412 27 q 420 26 418 27 l 420 16 l 404 16 l 404 0 l 183 0 l 183 -15 l 145 -15 l 138 -7 q 134 -6 136 -7 q 132 -5 133 -5 l 132 16 l 115 16 l 115 22 l 132 22 l 132 52 l 163 52 l 163 68 l 171 73 q 175 118 171 96 q 179 163 179 140 l 195 163 l 195 206 l 179 206 l 179 228 l 195 228 l 195 270 l 179 270 l 179 338 l 195 338 l 195 444 l 179 444 l 179 479 l 195 479 l 195 524 l 179 524 l 179 528 l 195 528 l 195 810 l 179 810 l 179 939 l 69 939 l 69 952 l 50 952 l 50 987 l 69 987 l 69 1005 l 146 1005 l 146 1020 l 179 1020 l 179 1036 l 241 1036 l 241 1051 m 16 974 l 33 985 l 50 985 l 50 974 l 16 974 m 910 64 l 935 56 l 935 53 l 910 53 l 910 64 z "},"l":{"ha":716,"x_min":38,"x_max":699,"o":"m 308 1051 l 374 1051 l 374 1036 l 391 1036 l 391 556 l 374 549 l 374 354 l 391 354 l 391 269 l 374 262 l 374 115 l 391 115 l 391 84 l 422 84 l 429 73 q 524 71 473 73 q 627 68 575 68 l 633 58 q 646 56 640 58 q 659 53 652 53 l 659 35 l 675 35 l 675 0 l 627 0 l 627 -15 l 574 -15 l 568 0 l 281 0 l 281 -15 l 244 -15 l 236 -7 q 155 -3 195 -7 q 71 0 114 0 l 71 35 l 79 41 q 80 46 79 43 q 81 52 81 49 l 100 52 l 100 68 l 259 68 l 259 84 l 275 84 l 275 99 l 292 104 l 292 224 l 275 224 l 275 241 l 292 247 l 292 939 l 275 939 l 275 952 l 136 952 l 136 939 l 54 939 l 54 952 l 38 952 l 38 987 l 47 993 q 49 999 47 996 q 50 1005 50 1002 l 117 1005 l 117 1020 l 227 1020 l 227 1036 l 308 1036 l 308 1051 m 699 26 l 699 23 l 675 23 l 675 33 l 699 26 m 412 914 l 412 911 l 391 910 l 391 921 l 412 914 z "},"m":{"ha":1053,"x_min":31,"x_max":1040,"o":"m 788 26 q 779 24 781 26 q 788 23 783 23 l 793 14 l 810 14 l 810 -3 l 1024 -3 l 1024 54 l 978 54 l 978 72 q 964 74 971 72 q 949 76 956 76 l 945 87 l 930 87 l 930 277 l 945 283 l 945 547 l 930 547 l 930 598 q 918 601 922 601 l 911 610 l 899 610 l 899 642 l 883 642 l 883 661 q 871 663 878 663 l 867 674 l 836 674 l 836 688 l 715 688 l 715 674 l 652 674 l 652 658 l 620 658 l 620 642 l 549 642 l 549 659 q 535 661 541 659 q 522 663 529 663 l 515 674 l 486 674 l 486 688 l 350 688 l 350 674 l 288 674 l 288 658 l 252 663 l 248 674 l 218 674 l 218 688 l 178 688 l 178 674 l 96 674 l 96 658 l 49 658 l 49 628 l 31 628 l 31 618 l 49 618 l 49 586 l 145 586 l 145 568 l 160 568 q 157 330 159 454 q 153 91 155 205 l 145 85 l 145 71 l 123 71 q 121 60 121 62 l 113 53 l 113 14 l 145 14 l 145 -3 l 345 -3 q 349 7 349 7 l 359 14 l 359 41 q 347 43 351 43 l 343 54 l 278 54 l 278 75 q 273 76 275 76 q 269 76 270 76 l 264 87 l 248 87 l 248 548 l 264 555 l 264 568 l 278 568 l 278 586 l 313 586 q 315 590 313 589 q 316 594 316 591 l 328 601 l 328 618 l 461 618 l 461 601 l 477 601 l 477 568 l 494 568 l 494 555 l 507 555 l 507 505 l 525 505 l 525 165 l 507 165 l 507 71 l 490 71 q 487 60 487 62 l 477 53 l 477 38 l 461 38 l 461 14 l 477 14 l 477 -3 l 675 -3 l 675 54 l 629 54 l 629 73 q 617 76 621 76 l 613 87 l 597 87 l 597 568 l 616 568 q 617 574 616 571 q 618 579 618 576 l 629 586 l 629 601 l 644 601 l 644 618 l 793 618 l 793 586 l 826 586 l 826 555 l 842 555 l 842 106 l 826 100 l 826 54 l 810 54 l 810 38 l 793 38 l 793 24 l 788 26 m 429 688 l 423 688 l 423 713 l 433 703 l 429 688 m 675 30 l 692 24 l 675 24 l 675 30 m 1040 24 l 1024 24 l 1024 30 l 1040 24 m 373 24 l 359 30 l 373 24 m 777 31 l 777 30 l 770 24 l 777 31 z "},"n":{"ha":928,"x_min":35,"x_max":910,"o":"m 511 703 l 625 703 l 632 692 q 642 689 633 692 l 642 671 l 671 671 l 678 661 q 691 659 685 661 q 704 656 697 656 l 704 639 l 720 639 l 720 625 l 735 625 l 742 614 q 751 612 743 614 l 751 576 l 769 576 l 769 528 l 785 528 l 785 84 l 800 84 l 807 73 q 844 71 826 73 q 880 68 861 68 l 887 58 q 899 56 892 58 q 910 53 905 53 l 910 0 l 880 0 l 880 -15 l 780 -15 l 773 -7 q 696 -3 732 -7 q 623 0 659 0 l 623 35 l 639 35 l 639 52 l 654 52 l 654 68 l 670 68 l 670 84 l 678 90 q 682 179 678 132 q 685 274 685 227 l 700 274 l 700 444 l 685 444 l 685 524 l 670 524 l 670 557 l 654 557 l 654 571 l 639 571 l 639 589 l 621 589 l 614 597 q 602 600 610 597 q 590 602 593 602 l 590 621 l 453 621 l 453 604 l 420 604 l 420 589 l 373 589 l 373 571 l 340 571 l 340 557 l 293 557 l 293 522 l 282 515 q 279 448 282 481 q 277 381 277 415 l 260 374 l 260 179 l 277 179 l 277 84 l 293 84 l 300 73 q 336 71 317 73 q 373 68 354 68 l 378 58 q 391 56 385 58 q 404 53 397 53 l 404 35 l 420 35 l 420 16 l 404 16 l 404 0 l 132 0 l 132 16 l 114 16 l 110 22 l 115 22 l 115 52 l 132 52 l 132 68 l 163 68 l 163 84 l 179 90 l 179 589 l 161 589 l 155 597 q 105 600 130 597 q 50 604 80 604 l 50 621 l 35 621 l 35 639 l 43 644 q 43 649 43 646 q 45 655 43 652 l 83 655 l 83 671 l 163 671 l 163 685 l 229 685 l 229 671 l 245 671 l 252 661 q 260 659 258 661 l 260 625 l 351 625 l 351 639 l 368 639 l 368 655 l 400 655 l 400 671 l 464 671 l 464 685 l 511 685 l 511 703 m 587 22 l 604 33 l 623 33 l 623 22 l 587 22 m 100 39 l 100 22 q 104 26 103 27 q 109 24 106 24 l 109 22 l 81 22 l 100 39 m 420 33 l 442 22 l 442 23 l 420 22 l 420 33 z "},"o":{"ha":792,"x_min":38,"x_max":772,"o":"m 655 290 l 671 290 l 671 397 l 655 397 l 655 461 l 639 461 l 639 494 l 623 494 l 623 507 l 608 507 l 608 557 l 593 557 l 593 571 l 576 571 l 576 589 l 560 589 l 553 597 q 542 600 548 597 q 529 602 536 602 l 529 621 l 498 621 l 490 636 l 278 636 l 278 621 l 245 621 l 245 604 l 232 604 l 232 587 l 221 581 q 220 576 221 578 q 218 571 218 574 l 199 571 l 199 556 l 189 549 q 186 536 189 543 q 184 522 184 530 l 174 515 q 171 495 174 506 q 168 475 168 484 l 157 468 q 155 442 157 457 q 152 415 152 427 l 136 407 l 136 274 l 152 274 l 152 210 l 168 210 l 174 201 q 183 199 179 201 l 183 163 l 199 163 l 205 153 q 214 151 206 153 l 214 130 l 232 130 l 237 121 q 245 119 243 121 l 245 99 l 263 99 l 263 84 l 296 84 l 302 73 q 320 71 309 73 q 342 68 331 68 l 347 52 l 467 52 l 467 68 l 513 68 l 513 84 l 545 84 l 545 99 l 576 99 l 576 115 l 593 115 l 593 130 l 601 137 q 604 151 601 142 q 606 163 606 159 l 616 168 q 618 183 616 175 q 621 195 621 191 l 639 195 l 639 228 l 647 233 l 655 290 m 355 718 l 438 718 l 444 708 q 480 705 463 708 q 517 703 498 703 l 524 692 l 548 688 q 564 685 556 685 l 564 671 l 612 671 l 618 661 q 627 658 621 661 l 627 639 l 643 639 l 643 625 l 658 625 l 665 614 q 674 612 666 614 l 674 593 l 690 593 l 690 560 l 707 560 l 713 549 q 722 547 716 549 l 722 511 l 741 511 l 741 479 l 754 479 l 754 400 l 772 400 l 772 317 l 760 311 q 757 290 760 301 q 754 270 754 279 l 741 270 l 741 191 l 727 184 q 725 172 727 179 q 723 159 723 165 l 707 159 l 707 144 l 696 136 q 694 129 696 132 l 674 126 l 674 111 l 663 104 q 662 100 663 102 q 661 95 661 98 l 643 95 l 643 80 l 612 80 l 612 64 l 600 56 q 598 49 600 52 l 581 49 l 581 33 l 548 33 l 548 16 l 517 16 l 517 0 l 452 0 l 452 -15 l 321 -15 l 315 -7 l 316 -7 q 298 -4 307 -5 q 284 -1 292 -3 q 274 0 277 0 l 274 16 l 227 16 l 220 26 q 207 28 213 26 q 197 31 201 31 l 197 49 l 179 49 l 179 64 l 148 64 l 148 80 l 132 80 l 125 88 q 122 90 123 88 q 118 91 121 91 l 118 113 l 100 113 l 100 144 l 85 144 l 85 175 l 69 175 l 69 224 l 54 224 l 54 255 l 38 255 l 38 433 l 54 433 l 54 479 l 69 479 l 69 511 l 85 511 l 85 544 l 94 549 q 95 555 94 552 q 96 560 96 557 l 118 560 l 118 593 l 126 598 q 127 608 126 604 l 164 608 l 164 625 l 172 631 q 174 635 172 633 q 175 639 175 636 l 197 639 l 197 655 l 228 655 l 228 671 l 260 671 l 260 685 l 290 685 l 290 703 l 355 703 l 355 718 z "},"p":{"ha":822,"x_min":38,"x_max":802,"o":"m 245 326 l 262 326 l 262 165 l 278 165 l 278 119 l 294 119 l 301 109 q 313 106 308 109 q 326 104 317 104 l 326 87 l 358 87 l 365 71 l 529 71 l 529 87 l 560 87 l 560 103 l 593 103 l 593 119 l 606 119 l 606 133 l 624 133 l 624 151 l 632 156 q 635 169 632 163 q 637 182 637 175 l 647 187 q 650 201 647 193 q 652 213 652 209 l 671 213 l 671 245 l 685 245 l 685 464 l 671 464 l 671 496 l 654 496 l 654 510 l 639 510 l 639 526 l 624 526 l 616 537 q 614 536 614 537 q 612 536 613 536 q 610 536 610 536 q 609 537 610 537 l 606 560 l 591 560 l 585 568 q 575 570 579 568 l 575 593 l 560 593 l 560 606 l 529 606 l 529 624 l 326 624 l 326 606 l 294 606 l 294 591 l 283 585 q 281 573 283 579 q 279 560 279 567 l 262 560 l 262 384 l 251 377 l 245 326 m 195 707 l 199 707 l 206 696 q 219 694 213 696 q 232 692 225 692 l 232 674 l 245 674 l 252 663 l 290 658 l 290 674 l 354 674 l 354 690 l 401 690 l 401 707 l 548 707 l 555 696 q 567 694 562 696 q 579 692 572 692 l 579 674 l 627 674 l 633 663 q 646 661 640 663 q 658 659 651 659 l 658 642 l 674 642 l 674 628 l 689 628 l 696 617 q 707 614 699 617 l 707 595 l 720 595 l 727 585 q 735 583 731 585 l 738 583 l 738 548 l 754 548 l 760 538 q 770 536 762 538 l 770 481 l 785 481 l 785 373 l 802 373 l 802 273 l 791 266 q 789 254 791 260 q 787 240 787 247 l 777 233 q 774 221 777 227 q 772 209 772 216 l 754 209 l 754 180 l 745 171 q 743 159 745 165 q 741 148 741 153 l 720 148 l 720 130 l 707 130 l 707 114 l 694 107 q 694 104 694 106 q 693 102 693 103 l 674 99 l 674 81 l 663 75 q 662 72 663 73 q 661 68 661 71 l 643 68 l 643 52 l 595 52 l 595 35 l 564 35 l 564 20 l 484 20 l 484 3 l 401 3 l 401 20 l 278 20 l 278 -12 l 262 -18 l 262 -199 l 278 -199 l 278 -263 l 309 -263 l 315 -273 q 351 -275 332 -273 q 389 -278 369 -278 l 396 -289 q 406 -292 397 -289 l 406 -313 l 372 -313 l 372 -328 l 117 -328 l 110 -320 q 96 -317 104 -320 q 85 -315 88 -315 l 85 -294 l 94 -289 q 95 -283 94 -286 q 96 -278 96 -281 l 149 -278 l 149 -263 l 157 -256 q 160 -235 157 -245 q 163 -214 163 -225 l 178 -214 l 178 576 l 164 576 l 164 593 l 149 593 l 149 606 l 54 606 l 54 624 l 38 624 l 38 642 l 54 642 l 54 658 l 85 658 l 85 674 l 164 674 l 164 690 l 195 690 l 195 707 z "},"q":{"ha":792,"x_min":38,"x_max":772,"o":"m 136 277 l 152 277 l 152 231 l 168 231 l 168 198 l 183 198 l 183 165 l 199 165 l 205 156 q 214 153 206 156 l 214 133 l 232 133 l 232 119 l 245 119 l 252 109 q 265 106 259 109 q 278 104 271 104 l 278 87 l 342 87 l 349 71 l 513 71 l 513 87 l 545 87 l 545 103 l 562 103 l 562 119 l 576 119 l 576 576 l 562 576 l 562 593 l 545 593 l 545 606 l 529 606 l 529 624 l 385 624 l 380 632 l 342 639 l 342 624 l 296 624 l 296 606 l 263 606 l 263 591 l 251 585 q 250 582 251 583 q 250 579 250 581 l 214 576 l 214 559 l 205 552 q 203 540 205 545 q 201 526 201 534 l 183 526 l 183 510 l 168 510 l 168 477 l 157 471 q 155 451 157 460 q 152 431 152 442 l 142 426 l 136 277 m 639 720 l 658 720 l 658 707 l 674 707 l 674 623 l 658 616 l 658 -245 l 674 -245 l 681 -256 q 693 -259 686 -256 q 707 -262 700 -262 l 707 -278 l 772 -278 l 772 -313 l 722 -313 l 722 -328 l 511 -328 l 505 -320 q 492 -317 500 -320 q 480 -315 483 -315 l 480 -292 l 498 -294 l 498 -278 l 529 -278 l 529 -263 l 538 -256 q 540 -251 538 -254 q 541 -245 541 -248 l 562 -245 l 562 -232 l 576 -232 l 576 3 l 562 3 l 562 20 l 406 20 l 406 3 l 339 3 l 339 20 l 289 20 l 282 28 l 283 28 l 264 31 q 252 34 258 33 q 243 35 245 35 l 243 52 l 209 52 l 202 61 q 191 64 198 61 q 178 66 184 66 l 171 76 q 159 79 167 76 q 148 81 151 81 l 140 91 l 134 91 q 133 92 133 91 l 133 115 l 117 115 l 117 148 l 100 148 l 100 161 l 85 161 l 85 195 l 69 195 l 69 241 l 54 241 l 54 274 l 38 274 l 38 419 l 54 419 l 54 481 l 69 481 l 69 533 l 85 533 l 85 548 l 94 553 q 96 567 94 559 q 99 579 99 575 l 110 586 q 111 590 110 587 q 113 595 113 593 l 133 595 l 133 612 l 148 612 l 148 628 l 164 628 l 164 642 l 172 647 q 174 658 172 654 l 210 658 l 210 674 l 243 674 l 243 690 l 307 690 l 307 707 l 452 707 l 458 696 q 480 693 469 696 q 502 690 491 690 l 509 674 l 608 674 l 608 690 l 623 690 l 623 707 l 639 707 l 639 720 m 464 -282 l 480 -282 l 480 -292 l 453 -289 l 464 -282 z "},"r":{"ha":822,"x_min":38,"x_max":802,"o":"m 654 720 l 674 720 l 674 707 l 738 707 l 746 696 q 758 694 751 696 q 770 692 764 692 l 770 674 l 785 674 l 792 663 q 802 661 793 663 l 802 605 l 791 598 q 789 593 791 595 l 770 593 l 770 576 l 654 576 l 654 593 l 606 593 l 606 606 l 564 606 l 564 593 l 502 593 l 502 576 l 469 576 l 469 560 l 438 560 l 438 543 l 427 536 q 425 526 427 532 l 406 526 l 406 509 l 395 502 q 393 496 395 499 l 372 496 l 372 477 l 361 471 q 359 468 361 469 q 358 464 358 467 l 340 464 l 340 103 l 355 103 l 362 92 q 372 90 363 92 l 372 71 l 610 71 l 616 61 q 627 58 618 61 l 627 20 l 616 12 q 598 6 616 8 q 557 3 581 4 q 512 3 534 3 q 480 3 490 3 l 480 20 l 438 20 l 438 3 l 132 3 l 132 20 l 117 20 l 110 28 q 108 28 109 28 q 106 27 107 27 q 102 37 103 27 q 100 54 100 47 l 118 54 l 118 71 l 195 71 l 195 87 l 228 87 l 228 103 l 236 109 q 239 121 236 114 q 241 133 241 129 l 259 133 l 259 418 l 251 418 l 259 419 l 259 464 l 243 464 l 243 593 l 228 593 l 228 606 l 195 606 l 195 624 l 119 624 l 119 606 l 54 606 l 54 624 l 38 624 l 38 658 l 54 658 l 54 674 l 146 674 l 146 690 l 243 690 l 243 707 l 294 707 l 294 674 l 309 674 l 316 663 q 326 661 317 663 l 326 612 l 340 612 l 340 579 l 401 579 l 401 595 l 434 595 l 434 612 l 442 617 q 444 623 442 620 q 445 628 445 625 l 467 628 l 467 642 l 496 642 l 496 658 l 529 658 l 529 674 l 560 674 l 560 690 l 593 690 l 593 707 l 654 707 l 654 720 m 41 590 l 41 606 l 54 606 l 54 575 l 41 590 m 627 35 l 650 28 l 650 26 l 627 26 l 627 35 z "},"s":{"ha":684,"x_min":39,"x_max":658,"o":"m 338 720 l 391 720 l 391 707 l 453 707 l 460 696 q 518 693 487 696 q 581 690 549 690 l 587 680 q 595 678 593 680 l 595 658 l 612 658 l 612 595 l 628 595 l 628 543 l 617 536 q 614 515 617 525 q 612 496 612 506 l 544 496 l 544 526 l 528 526 l 528 560 l 514 560 l 514 606 l 498 606 l 498 624 l 449 624 l 444 639 l 247 639 l 247 624 l 216 624 l 216 605 l 206 598 q 205 593 206 595 l 183 593 l 183 560 l 170 560 l 170 481 l 183 481 l 183 452 l 201 452 l 208 441 q 216 438 210 441 l 216 419 l 262 419 l 262 404 l 376 404 l 381 395 q 425 392 401 395 q 471 389 448 389 l 477 378 q 495 376 484 378 q 517 373 506 373 l 524 362 q 536 360 530 362 q 549 358 543 358 l 549 340 l 581 340 l 581 326 l 595 326 l 602 315 q 612 312 604 315 l 612 294 l 628 294 l 635 282 q 644 279 636 282 l 644 231 l 658 231 l 658 148 l 644 148 l 644 129 l 633 122 q 632 119 633 121 q 631 115 631 118 l 612 115 l 612 81 l 601 75 q 600 72 601 73 q 598 68 598 71 l 581 68 l 581 52 l 549 52 l 549 34 l 537 27 q 536 24 537 26 q 534 20 534 23 l 499 20 l 499 3 l 407 3 l 407 -11 l 290 -11 l 290 3 l 198 3 l 198 20 l 153 20 l 153 3 l 102 3 l 102 20 l 84 20 l 77 28 q 75 29 76 28 q 72 30 73 30 l 69 52 l 53 52 l 53 115 l 39 115 l 39 133 l 53 133 l 53 180 l 49 180 l 53 182 l 53 213 l 69 213 l 69 231 l 104 231 l 111 220 q 121 217 113 220 l 121 198 l 137 198 l 137 151 l 153 151 l 153 119 l 170 119 l 176 109 q 183 107 180 109 l 183 87 l 216 87 l 222 76 q 234 74 229 76 q 247 72 239 72 l 247 54 l 450 54 l 450 71 l 481 71 l 481 87 l 514 87 l 514 103 l 528 103 l 528 133 l 544 133 l 544 259 l 526 259 l 519 267 q 508 270 515 267 q 498 273 500 273 l 498 290 l 450 290 l 450 305 l 387 305 l 387 321 l 259 321 l 252 330 q 232 332 244 330 q 212 336 220 334 l 212 354 l 180 354 l 180 368 l 148 368 l 148 385 l 132 385 l 125 393 q 122 394 123 393 q 119 395 121 395 l 117 418 l 102 418 l 102 446 l 85 446 l 85 479 l 69 479 l 69 533 l 79 538 q 79 550 79 545 q 81 560 80 555 l 85 579 l 102 579 l 102 595 l 117 595 l 117 612 l 133 612 l 133 628 l 141 633 q 142 637 141 636 q 144 642 144 639 l 165 642 l 165 658 l 174 663 q 175 669 174 666 q 176 674 176 671 l 212 674 l 212 690 l 244 690 l 244 707 l 338 707 l 338 720 m 210 338 q 210 336 210 336 q 209 338 209 336 l 210 338 m 593 496 l 585 471 l 582 471 l 582 496 l 593 496 z "},"t":{"ha":732,"x_min":38,"x_max":708,"o":"m 213 865 l 248 865 l 255 854 q 263 852 258 854 l 263 707 l 281 707 l 288 696 q 313 693 298 696 q 343 690 328 690 l 350 680 l 404 674 l 404 690 l 659 690 l 666 680 q 674 678 670 680 l 677 678 l 677 639 l 644 639 l 644 624 l 576 624 l 571 632 l 533 639 l 533 624 l 248 624 l 248 496 l 232 488 l 232 103 l 248 103 l 255 92 q 263 90 258 92 l 263 71 l 281 71 l 286 54 l 467 54 l 467 71 l 578 71 l 578 87 l 624 87 l 624 103 l 677 103 l 684 92 q 695 90 689 92 q 708 88 701 88 l 708 66 l 697 60 q 694 52 697 57 l 659 52 l 659 35 l 627 35 l 627 20 l 581 20 l 581 3 l 500 3 l 500 -11 l 357 -11 l 357 -28 l 308 -28 l 308 -11 l 260 -11 l 260 3 l 229 3 l 229 20 l 197 20 l 197 52 l 179 52 l 172 61 q 169 62 170 61 q 167 62 168 62 l 167 99 l 149 99 l 149 435 l 167 435 l 167 606 l 134 606 l 134 624 l 54 624 l 46 632 q 42 633 43 632 q 38 635 41 635 l 38 658 l 46 663 q 47 667 46 666 l 46 667 q 49 674 46 669 l 149 674 l 149 690 l 167 690 l 167 720 l 180 720 l 180 849 l 213 849 l 213 865 m 644 726 l 655 709 l 655 690 l 644 690 l 644 726 m 263 829 l 288 822 l 288 819 l 282 817 l 263 817 l 263 829 z "},"u":{"ha":928,"x_min":18,"x_max":910,"o":"m 194 690 l 245 690 l 252 680 q 260 678 258 680 l 260 526 l 245 526 l 245 213 l 260 213 l 260 165 l 277 165 l 282 156 q 293 153 285 156 l 293 119 l 309 119 l 316 109 q 328 106 321 109 q 340 104 334 104 l 340 87 l 388 87 l 395 71 l 557 71 l 557 87 l 590 87 l 590 103 l 636 103 l 636 119 l 654 119 l 654 133 l 662 140 q 663 145 662 142 q 665 151 665 148 l 686 151 l 686 576 l 669 576 l 669 593 l 654 593 l 654 606 l 575 606 l 575 624 l 557 624 l 557 642 l 575 642 l 575 658 l 654 658 l 654 674 l 732 674 l 732 690 l 751 690 l 758 680 q 769 677 761 680 l 769 628 l 785 628 l 785 576 l 769 568 l 769 133 l 785 133 l 785 119 l 818 119 l 825 109 q 859 106 841 109 q 895 103 876 103 l 895 71 l 910 71 l 910 66 l 901 60 q 898 52 901 57 l 831 52 l 831 35 l 802 35 l 802 20 l 751 20 l 751 3 l 732 3 l 732 20 l 699 20 l 692 28 q 688 29 689 28 q 686 30 688 30 l 686 52 l 609 52 l 609 35 l 562 35 l 562 20 l 515 20 l 515 3 l 435 3 l 435 -11 l 369 -11 l 369 3 l 320 3 l 320 20 l 286 20 l 279 28 q 276 29 277 28 q 274 30 275 30 l 274 52 l 256 52 l 250 61 q 236 64 244 61 q 225 66 228 66 l 225 99 l 212 99 l 212 115 l 194 115 l 194 161 l 179 161 l 179 446 l 161 446 l 161 481 l 179 481 l 179 560 l 161 560 l 161 593 l 146 593 l 146 606 l 69 606 l 69 624 l 50 624 l 46 628 l 49 628 q 50 642 49 633 q 50 658 50 651 l 83 658 l 83 674 l 194 674 l 194 690 m 142 340 l 159 354 l 179 354 l 179 340 l 142 340 m 149 251 l 159 259 l 179 259 l 179 245 l 149 251 m 35 646 l 35 635 q 39 633 38 635 q 43 631 41 631 l 43 628 l 18 628 l 35 646 z "},"v":{"ha":939,"x_min":43,"x_max":940,"o":"m 910 670 l 921 670 l 921 663 l 910 663 l 910 624 l 849 624 l 849 605 l 838 598 q 836 588 838 594 q 834 576 834 582 l 817 576 l 817 560 l 802 560 l 802 509 l 791 502 q 788 482 791 492 q 785 463 785 472 l 774 456 q 772 444 774 450 q 770 433 770 438 l 751 433 l 751 384 l 742 377 q 740 366 742 372 q 738 354 738 359 l 719 354 l 719 321 l 705 321 l 705 304 l 694 297 q 691 276 694 286 q 688 259 688 266 l 678 251 q 677 244 678 247 l 656 241 l 656 195 l 642 195 l 642 146 l 631 140 q 629 127 631 133 q 627 115 627 122 l 609 115 l 609 83 l 595 83 l 595 50 l 585 43 q 584 41 585 42 q 583 38 583 39 l 563 35 l 563 1 l 552 -5 q 551 -11 552 -8 l 479 -11 l 479 3 l 465 3 l 465 20 l 448 20 l 448 52 l 431 52 l 425 61 q 419 62 422 61 q 414 64 416 64 l 414 115 l 400 115 l 400 148 l 385 148 l 385 180 l 368 180 l 368 209 l 353 209 l 353 241 l 335 241 l 335 274 l 321 274 l 321 321 l 304 321 l 297 330 q 294 330 294 330 q 292 331 293 331 l 289 385 l 273 385 l 273 418 l 259 418 l 259 464 l 241 464 l 241 496 l 227 496 l 227 526 l 209 526 l 209 576 l 195 576 l 195 606 l 178 606 l 178 624 l 66 624 l 58 632 l 53 632 q 52 633 52 632 l 52 656 l 43 656 l 52 658 l 52 674 l 66 674 l 66 690 l 293 690 l 300 680 q 327 677 312 680 q 357 674 342 674 l 363 663 q 372 661 366 663 l 372 639 l 324 639 l 324 624 l 293 624 l 293 548 l 308 548 l 308 499 l 324 499 l 324 468 l 340 468 l 340 419 l 357 419 l 357 389 l 372 389 l 372 357 l 387 357 l 387 309 l 403 309 l 403 277 l 419 277 l 419 245 l 437 245 l 437 213 l 450 213 l 450 182 l 468 182 l 468 165 l 483 165 l 488 156 q 500 153 492 156 l 500 119 l 543 119 l 543 133 l 559 133 l 559 151 l 567 156 q 568 165 567 161 l 591 165 l 591 213 l 600 220 q 602 233 600 225 q 605 245 605 241 l 624 245 l 624 294 l 637 294 l 637 326 l 646 331 q 650 358 646 343 l 652 373 l 670 373 l 670 419 l 684 419 l 684 452 l 701 452 l 701 481 l 716 487 l 716 624 l 669 624 l 662 632 l 663 632 q 639 635 651 633 q 618 637 628 636 q 606 639 609 639 l 606 674 l 637 674 l 637 690 l 891 690 l 891 707 l 910 707 l 910 670 m 579 663 l 589 670 l 606 670 l 606 658 l 579 663 m 940 663 l 921 658 l 921 663 l 940 663 z "},"w":{"ha":1047,"x_min":16,"x_max":1051,"o":"m 320 707 l 327 696 q 353 693 338 696 q 382 690 368 690 l 382 656 l 372 648 q 370 642 372 644 l 256 639 l 256 623 l 239 616 l 239 481 l 256 481 l 256 419 l 271 419 l 271 357 l 289 357 l 289 309 l 302 309 l 302 245 l 320 245 l 320 213 l 335 213 l 335 165 l 380 165 l 380 182 l 393 182 l 393 198 l 411 198 l 411 231 l 419 236 l 423 260 q 426 277 426 271 l 445 277 l 445 340 l 453 346 q 456 368 453 357 q 458 389 458 378 l 473 389 l 473 419 l 491 419 l 491 468 l 499 473 q 500 477 499 476 q 502 481 502 479 l 537 481 l 537 499 l 541 499 l 548 487 q 556 486 552 487 l 559 486 l 559 468 l 572 468 l 572 435 l 589 435 l 589 404 l 605 404 l 605 357 l 621 357 l 621 309 l 637 309 l 637 277 l 654 277 l 654 231 l 667 231 l 674 220 q 684 217 675 220 l 684 182 l 728 182 l 728 213 l 760 213 l 760 277 l 768 282 q 770 300 766 286 q 774 326 774 315 l 791 326 l 791 389 l 802 395 l 802 393 q 804 418 803 406 q 807 438 806 429 q 808 452 808 448 l 817 457 l 817 456 q 819 488 818 473 q 822 514 821 502 q 823 533 823 526 l 831 538 l 840 606 l 823 606 l 823 624 l 807 624 l 800 632 q 749 635 774 632 q 696 639 723 639 l 696 656 l 682 656 l 682 690 l 711 690 l 711 707 l 985 707 l 991 696 q 1001 693 993 696 l 1001 674 l 1016 674 l 1019 669 q 1017 663 1019 666 q 1016 656 1016 659 l 1006 648 q 1005 642 1006 644 l 970 639 l 970 624 l 937 624 l 937 591 l 926 585 q 924 572 926 579 q 922 559 922 566 l 913 552 q 909 509 913 530 q 906 463 906 487 l 897 456 q 894 428 897 444 q 891 399 891 412 l 880 392 q 878 379 880 385 q 876 366 876 373 l 865 359 q 863 340 865 350 q 860 320 860 331 l 849 313 q 846 293 849 304 q 844 273 844 282 l 834 266 l 830 225 q 828 210 829 218 q 827 194 827 201 l 817 187 q 814 176 817 183 q 812 161 812 168 l 795 161 l 795 99 l 784 91 q 782 79 784 85 q 780 68 780 73 l 764 68 l 764 34 l 751 27 q 750 24 751 26 q 749 20 749 23 l 731 20 l 731 3 l 682 3 l 682 20 l 665 20 l 665 52 l 650 52 l 650 83 l 632 83 l 632 115 l 617 115 l 617 161 l 601 161 l 601 227 l 586 227 l 586 274 l 570 274 l 570 321 l 495 321 l 495 273 l 484 266 q 482 254 484 260 q 480 241 480 248 l 463 241 l 463 180 l 452 171 q 449 151 452 161 q 446 130 446 141 l 430 130 l 430 81 l 420 75 q 418 63 420 69 q 416 52 416 57 l 399 52 l 399 34 l 388 27 q 386 16 388 22 q 384 3 384 9 l 331 3 l 331 20 l 315 20 l 308 28 q 305 29 307 28 q 302 30 304 30 l 300 68 l 285 68 l 285 115 l 267 115 l 267 161 l 254 161 l 254 227 l 236 227 l 236 274 l 221 274 l 221 321 l 206 321 l 206 368 l 189 368 l 189 418 l 175 418 l 175 479 l 157 479 l 157 544 l 142 544 l 142 576 l 125 576 l 125 606 l 95 606 l 95 624 l 45 624 l 45 663 l 34 663 l 34 671 l 45 671 l 45 707 l 320 707 m 652 663 l 662 670 l 682 670 l 682 658 l 652 663 m 1051 670 l 1035 658 l 1034 661 q 1021 663 1025 663 l 1019 670 l 1051 670 m 34 689 l 34 670 l 16 671 l 34 689 z "},"x":{"ha":914,"x_min":35,"x_max":903,"o":"m 69 686 l 278 686 l 285 675 q 319 673 301 675 q 355 670 338 670 l 355 636 l 342 636 l 342 620 l 332 613 q 330 605 332 610 l 309 605 l 309 526 l 342 526 l 342 496 l 355 496 l 362 486 q 373 483 365 486 l 373 464 l 388 464 l 388 449 l 404 449 l 412 438 q 424 436 418 438 q 437 434 430 434 l 437 418 l 480 418 l 480 433 l 513 433 l 513 449 l 530 449 l 530 464 l 544 464 l 544 480 l 560 480 l 560 496 l 570 502 q 571 507 570 505 q 572 513 572 510 l 593 513 l 593 526 l 608 526 l 608 605 l 591 605 l 585 614 q 572 617 579 614 q 559 620 566 620 l 552 629 q 545 640 547 629 q 544 656 544 650 l 560 656 l 560 670 l 818 670 l 818 656 l 831 656 l 831 621 l 753 621 l 753 605 l 722 605 l 722 589 l 707 589 l 707 574 l 696 566 q 694 559 696 562 l 674 556 l 674 543 l 643 543 l 643 522 l 631 515 q 629 503 631 509 q 627 490 627 496 l 617 483 q 616 477 617 480 l 594 477 l 594 444 l 585 437 q 584 434 585 435 q 583 431 583 433 l 566 429 l 566 411 l 548 406 l 548 308 l 566 308 l 572 297 q 579 296 576 297 l 579 275 l 594 275 l 601 264 q 612 262 604 264 l 612 243 l 625 243 l 625 212 l 658 212 l 665 201 q 674 198 666 201 l 674 180 l 690 180 l 690 148 l 707 148 l 712 138 q 722 137 718 138 l 722 115 l 738 115 l 743 106 q 753 103 745 106 l 753 83 l 785 83 l 785 69 l 849 69 l 856 58 l 864 54 l 864 37 l 882 37 l 882 1 l 575 1 l 568 9 q 561 26 562 9 q 560 52 560 42 l 608 52 l 608 69 l 616 75 l 623 144 l 608 144 l 608 160 l 591 160 l 585 168 q 582 169 583 168 q 579 170 581 170 l 576 208 l 559 208 l 552 216 q 548 217 549 216 q 544 218 547 218 l 544 240 l 530 240 l 530 254 l 513 254 l 513 271 l 496 271 l 491 279 l 404 286 l 404 270 l 393 263 q 391 252 393 260 q 389 240 389 244 l 373 240 l 373 224 l 342 224 l 342 190 l 332 183 q 331 175 332 180 l 309 175 l 309 160 l 296 160 l 296 126 l 283 121 l 278 83 l 296 83 l 296 52 l 355 52 l 361 42 q 373 39 365 42 l 373 33 l 361 26 q 359 14 361 20 q 357 1 357 8 l 84 1 l 77 9 q 70 26 71 9 q 69 52 69 42 l 85 52 l 85 69 l 132 69 l 132 83 l 179 83 l 179 100 l 195 100 l 195 115 l 203 121 q 205 126 203 123 q 206 132 206 129 l 228 132 l 228 148 l 241 148 l 241 161 l 259 161 l 259 195 l 267 201 q 269 206 267 203 q 270 212 270 209 l 307 212 l 307 243 l 323 243 l 323 259 l 338 259 l 338 275 l 354 275 l 354 290 l 362 297 l 370 399 l 354 399 l 354 429 l 338 429 l 338 445 l 321 445 l 315 454 q 312 455 313 454 q 309 456 311 456 l 307 477 l 292 477 l 292 491 l 274 491 l 274 509 l 258 509 l 251 517 q 249 516 250 517 q 247 515 248 515 q 245 516 245 515 q 244 517 245 517 l 241 543 l 228 543 l 228 556 l 210 556 l 210 574 l 194 574 l 187 582 q 184 583 186 582 q 182 583 183 583 l 179 605 l 146 605 l 140 614 q 98 618 119 614 q 50 621 76 621 l 43 629 q 37 640 38 629 q 35 656 35 650 l 52 656 l 52 670 l 62 675 l 69 686 m 355 652 l 380 644 l 380 642 l 374 639 l 355 639 l 355 652 m 517 646 l 529 652 l 544 652 l 544 639 l 517 646 m 882 16 l 903 9 l 903 7 l 882 5 l 882 16 z "},"y":{"ha":882,"x_min":31,"x_max":865,"o":"m 193 673 l 52 673 l 52 618 q 95 615 73 618 q 138 612 117 612 l 145 602 l 161 602 l 161 586 l 176 586 l 176 553 l 193 553 l 193 521 l 208 521 l 208 488 l 224 488 l 224 458 l 240 458 l 240 426 l 256 426 l 256 380 l 270 380 l 270 347 l 288 347 l 288 334 l 302 334 l 302 301 l 320 301 l 320 283 l 334 283 l 334 251 l 350 251 l 350 217 q 354 215 351 217 q 361 213 357 213 l 368 205 l 382 205 l 382 172 l 399 172 l 399 141 l 414 141 l 414 109 l 430 109 l 430 77 l 446 77 q 443 45 445 62 q 439 12 441 27 l 430 7 l 430 -24 l 412 -24 q 410 -39 412 -33 q 407 -52 407 -45 l 397 -56 l 393 -72 q 391 -83 391 -80 l 382 -88 l 382 -119 l 365 -119 q 362 -134 365 -127 q 359 -146 359 -140 l 350 -152 l 350 -165 l 334 -165 l 334 -199 l 320 -199 l 320 -231 l 288 -231 l 288 -247 l 189 -247 l 184 -231 l 114 -231 l 114 -247 l 96 -247 q 94 -262 96 -254 q 91 -275 91 -270 l 83 -281 l 83 -304 l 98 -304 l 98 -323 q 104 -326 100 -326 q 109 -326 107 -326 l 115 -334 l 136 -338 q 142 -339 138 -339 q 148 -340 145 -339 q 156 -342 152 -342 l 155 -342 l 153 -342 l 161 -350 l 201 -350 l 201 -334 l 267 -334 q 269 -330 267 -331 q 270 -326 270 -328 l 281 -319 l 281 -304 l 313 -304 q 316 -294 316 -296 l 328 -288 l 328 -271 l 362 -271 q 364 -260 362 -269 q 366 -247 366 -252 l 376 -240 l 376 -208 l 389 -208 l 389 -194 l 410 -194 q 412 -180 410 -187 q 414 -167 414 -174 l 423 -160 q 426 -139 423 -149 q 429 -118 429 -129 l 441 -111 l 441 -80 l 454 -80 l 454 -50 l 472 -50 q 474 -38 472 -43 q 476 -26 476 -33 l 487 -18 l 487 31 l 507 31 q 509 38 509 34 l 519 45 q 522 58 519 52 q 524 71 524 64 l 534 77 l 534 109 l 551 109 q 555 118 555 118 l 567 125 q 570 146 567 136 q 572 165 572 156 l 582 172 l 582 205 l 600 205 q 602 218 600 213 q 604 231 604 222 l 613 237 l 613 283 l 629 283 q 633 294 633 293 l 646 301 q 648 321 646 312 q 651 340 651 331 l 661 347 q 663 360 661 355 q 665 373 665 365 l 677 380 l 677 426 l 693 426 q 695 439 693 434 q 697 452 697 444 l 708 458 l 708 506 l 723 506 l 723 553 l 741 553 q 743 566 741 560 q 745 579 745 572 l 757 586 l 757 602 l 804 602 l 804 618 l 852 618 l 852 675 q 841 678 844 678 l 837 689 l 796 689 l 796 673 l 761 678 l 757 689 l 682 689 l 682 673 l 540 673 l 540 629 q 549 627 544 627 l 557 618 q 572 617 560 618 q 598 614 585 616 q 632 612 613 613 l 629 612 l 628 612 l 636 602 l 651 602 q 648 569 650 587 q 644 536 646 551 l 636 528 q 632 507 636 517 q 628 487 628 498 l 620 481 q 616 459 620 472 q 613 439 613 446 l 605 434 q 604 414 605 427 q 600 393 602 400 l 589 387 l 589 357 l 571 357 q 568 342 571 350 q 566 328 566 335 l 557 323 l 557 278 l 540 278 l 540 229 l 526 229 l 526 214 l 509 214 l 509 198 l 458 203 l 454 214 l 441 214 l 441 229 l 423 229 l 423 262 l 408 262 l 408 311 l 389 311 l 389 324 l 376 324 l 376 357 l 361 357 l 361 388 l 343 388 l 343 420 l 328 420 l 328 452 l 311 452 l 311 483 l 297 483 l 297 515 l 281 515 l 286 595 l 297 602 l 297 618 l 346 618 q 347 623 346 621 q 349 627 349 624 l 361 633 l 361 659 l 328 659 l 328 673 q 267 675 297 673 q 206 678 237 678 l 199 689 l 193 689 l 193 673 m 31 647 q 35 650 34 650 l 52 650 l 52 642 l 31 647 m 145 673 l 138 673 l 142 690 q 145 686 145 688 l 145 673 m 525 647 q 529 650 528 650 l 540 650 l 540 642 l 525 647 m 852 648 l 865 642 l 852 642 l 852 648 z "},"z":{"ha":716,"x_min":19,"x_max":692,"o":"m 134 686 l 439 686 l 446 670 l 593 670 l 593 686 l 644 686 l 651 675 q 659 673 654 675 l 659 656 l 677 656 l 677 635 l 665 628 q 663 616 665 623 q 661 605 661 610 l 644 605 l 644 587 l 633 581 q 632 578 633 579 q 631 574 631 576 l 613 574 l 613 555 l 602 548 q 601 543 602 545 l 581 543 l 581 522 l 570 515 q 568 513 570 514 q 567 509 567 511 l 551 509 l 551 490 l 538 483 q 537 477 538 480 l 518 477 l 518 461 l 503 461 l 503 444 l 492 437 q 492 434 492 435 q 491 431 491 433 l 472 429 l 472 411 l 460 404 q 458 399 460 401 l 439 399 l 439 381 l 427 374 q 427 372 427 373 q 426 369 426 370 l 408 366 l 408 349 l 397 342 q 396 336 397 339 l 376 336 l 376 317 l 365 311 q 363 308 365 309 q 362 304 362 307 l 343 304 l 343 286 l 311 286 l 311 270 l 300 263 q 298 252 300 260 q 296 240 296 244 l 286 232 q 286 229 286 231 q 285 227 285 228 l 248 224 l 248 206 l 239 199 q 238 197 239 198 q 237 194 237 195 l 216 191 l 216 175 l 202 175 l 202 159 l 190 153 l 184 69 l 216 69 l 222 58 l 327 52 l 467 52 l 467 69 l 545 69 l 545 83 l 578 83 l 578 100 l 593 100 l 593 115 l 609 115 l 609 132 l 617 138 q 620 151 617 145 q 623 161 623 157 l 642 161 l 642 195 l 673 195 l 673 212 l 677 212 l 684 201 q 692 198 686 201 l 692 95 l 682 88 q 680 62 682 76 q 677 33 677 47 l 665 26 q 663 21 665 23 q 662 16 662 19 l 644 16 l 644 1 l 115 1 l 109 9 q 90 13 98 9 q 71 16 81 16 l 71 34 l 56 34 l 56 83 l 64 88 q 66 103 64 94 q 69 115 69 113 l 80 122 q 81 126 80 123 q 83 132 83 129 l 103 132 l 103 148 l 117 148 l 117 161 l 134 161 l 134 180 l 142 186 q 144 195 142 191 l 167 195 l 167 212 l 180 212 l 180 227 l 198 227 l 198 243 l 206 248 q 206 253 206 250 q 208 259 206 256 l 229 259 l 229 275 l 260 275 l 260 308 l 269 313 q 270 317 269 316 q 271 321 271 319 l 293 321 l 293 339 l 301 345 q 302 354 301 350 l 323 354 l 323 370 l 339 370 l 339 385 l 347 391 q 349 400 347 396 l 373 400 l 373 418 l 387 418 l 387 433 l 419 433 l 419 449 l 437 449 l 437 464 l 450 464 l 450 480 l 467 480 l 467 513 l 476 518 q 477 522 476 521 q 479 526 479 524 l 515 526 l 515 560 l 532 560 l 532 605 l 515 605 l 507 621 l 202 621 l 202 605 l 170 605 l 170 574 l 159 566 q 153 543 159 556 l 144 534 q 141 513 144 522 q 138 491 138 503 l 106 491 l 106 477 l 102 476 l 103 491 l 87 491 l 87 608 l 103 608 l 103 656 l 117 656 l 117 670 l 134 670 l 134 686 m 19 69 l 35 80 l 56 80 l 56 69 l 19 69 m 52 513 l 56 524 l 87 524 l 87 513 l 52 513 m 332 79 l 339 72 l 339 52 l 327 52 l 332 79 z "},"A":{"ha":1004,"x_min":38,"x_max":979,"o":"m 339 397 l 353 397 l 353 384 l 617 384 l 617 397 l 648 397 l 648 475 l 633 475 l 633 505 l 617 505 l 617 566 l 601 566 l 601 614 l 585 614 l 585 661 l 571 661 l 571 693 l 555 693 l 555 739 l 538 739 l 538 770 l 525 770 l 525 802 l 479 802 l 479 787 l 448 787 l 448 757 l 433 757 l 433 707 l 422 700 q 420 689 422 697 q 418 677 418 681 l 401 677 l 401 613 l 391 606 q 388 594 391 600 q 385 583 385 589 l 369 583 l 369 534 l 358 528 q 356 516 358 522 q 354 505 354 510 l 345 498 l 339 397 m 491 1009 l 511 1009 l 517 1000 q 528 997 519 1000 l 528 978 l 543 978 l 543 948 l 557 948 l 557 899 l 574 899 l 574 869 l 589 869 l 589 822 l 605 822 l 605 774 l 621 774 l 621 727 l 637 727 l 637 680 l 651 680 l 651 632 l 669 632 l 669 587 l 684 587 l 684 538 l 700 538 l 700 507 l 713 507 l 713 477 l 731 477 l 731 446 l 746 446 l 746 384 l 762 384 l 762 351 l 777 351 l 777 320 l 792 320 l 792 258 l 808 258 l 808 225 l 823 225 l 823 178 l 841 178 l 841 148 l 854 148 l 854 115 l 871 115 l 871 85 l 903 85 l 910 73 q 928 71 917 73 q 949 68 939 68 l 955 58 q 966 56 960 58 q 979 54 972 54 l 979 18 l 966 18 l 966 3 l 663 3 l 656 11 l 658 11 l 639 14 q 626 16 632 15 q 617 18 620 18 l 617 37 l 633 37 l 633 53 l 696 53 l 696 68 l 742 68 l 742 85 l 758 85 l 758 159 l 742 159 l 742 206 l 728 206 l 728 255 l 711 255 l 711 285 l 694 285 l 688 293 q 685 294 686 293 q 682 294 684 294 l 680 317 l 461 317 l 461 331 l 321 331 l 321 317 l 293 317 l 293 298 l 282 292 q 279 266 282 281 q 275 236 275 251 l 266 229 q 263 209 266 220 q 260 187 260 198 l 250 180 l 244 99 l 260 99 l 260 85 l 275 85 l 282 73 q 325 71 301 73 q 369 68 349 68 l 374 58 q 384 56 376 58 l 384 34 l 374 27 q 373 20 374 23 l 198 18 l 198 3 l 68 3 l 61 11 q 48 14 54 11 q 38 16 42 16 l 38 53 l 54 53 l 54 68 l 85 68 l 85 85 l 115 85 l 115 99 l 132 99 l 132 115 l 140 121 l 144 145 q 146 161 146 156 l 163 161 l 163 178 l 178 178 l 178 225 l 194 225 l 194 273 l 202 278 l 206 302 q 208 311 208 305 q 209 320 209 316 l 227 320 l 227 351 l 235 357 q 237 372 235 363 q 240 384 240 380 l 258 384 l 258 415 l 271 415 l 271 477 l 289 477 l 289 507 l 297 513 q 300 526 297 518 q 302 538 302 534 l 320 538 l 320 587 l 334 587 l 334 617 l 343 623 q 346 641 342 627 q 350 665 350 655 l 366 665 l 366 727 l 380 727 l 380 774 l 397 774 l 397 822 l 406 827 q 408 841 406 833 q 411 853 411 849 l 429 853 l 429 917 l 437 922 q 438 949 437 935 q 442 978 439 963 l 475 978 l 475 994 l 491 994 l 491 1009 z "},"B":{"ha":806,"x_min":39,"x_max":777,"o":"m 651 210 l 659 216 l 666 317 l 651 317 l 651 363 l 635 363 l 635 395 l 620 395 l 620 411 l 602 411 l 602 426 l 589 426 l 589 442 l 571 442 l 564 450 q 551 453 559 450 q 540 456 543 456 l 540 475 l 510 475 l 510 488 l 445 488 l 445 505 l 277 505 l 277 487 l 262 481 l 262 85 l 277 85 l 283 73 q 304 71 294 73 q 324 68 315 68 l 330 53 l 510 53 l 510 68 l 540 68 l 540 85 l 572 85 l 572 99 l 589 99 l 589 115 l 620 115 l 620 148 l 628 153 q 631 166 628 159 q 633 178 633 174 l 651 178 l 651 210 m 572 696 l 589 696 l 589 819 l 572 819 l 572 865 l 556 865 l 556 882 l 538 882 l 532 890 q 520 892 528 890 q 510 895 513 895 l 510 913 l 445 913 l 445 928 l 308 928 l 308 913 l 277 913 l 277 880 l 262 875 l 262 587 l 277 587 l 277 555 l 415 555 l 415 570 l 464 570 l 464 587 l 494 587 l 494 601 l 502 606 q 503 612 502 609 q 505 617 505 614 l 540 617 l 540 632 l 556 632 l 556 665 l 566 670 l 572 696 m 56 978 l 481 978 l 487 968 l 486 968 q 519 964 505 966 q 545 962 533 963 q 562 962 557 962 l 562 948 l 591 948 l 598 937 q 606 935 601 937 l 606 917 l 639 917 l 639 886 l 652 886 l 659 875 q 669 872 661 875 l 669 837 l 685 837 l 685 707 l 675 700 q 670 677 675 690 l 652 677 l 652 646 l 639 646 l 639 627 l 629 620 q 628 614 629 617 l 606 614 l 606 597 l 597 590 q 595 587 597 589 q 594 583 594 586 l 575 583 l 575 566 l 562 566 l 562 525 l 575 525 l 582 513 q 591 510 583 513 l 591 492 l 639 492 l 644 483 q 652 481 650 483 l 652 460 l 685 460 l 685 446 l 701 446 l 708 435 q 715 434 712 435 l 715 415 l 732 415 l 732 384 l 747 384 l 754 373 q 764 370 755 373 l 764 320 l 777 320 l 777 206 l 764 206 l 764 174 l 753 167 q 751 155 753 160 q 749 144 749 151 l 732 144 l 732 111 l 720 104 q 720 102 720 103 q 719 99 719 100 l 701 96 l 701 79 l 690 72 q 690 69 690 71 q 689 66 689 68 l 652 64 l 652 49 l 639 49 l 639 35 l 606 35 l 606 18 l 575 18 l 575 3 l 513 3 l 513 -14 l 509 -15 l 510 3 l 308 3 l 308 -14 l 243 -14 l 243 3 l 54 3 l 47 11 q 41 20 42 11 q 39 37 39 30 l 56 37 l 56 53 l 87 53 l 87 68 l 133 68 l 133 85 l 149 85 l 149 99 l 157 104 q 161 220 157 161 q 164 335 164 278 l 182 335 l 182 475 l 164 475 l 164 791 l 182 791 l 182 865 l 164 865 l 164 897 l 133 897 l 133 913 l 56 913 l 56 928 l 39 928 l 39 962 l 56 962 l 56 978 m 685 770 l 708 764 l 708 761 l 685 761 l 685 770 z "},"C":{"ha":792,"x_min":39,"x_max":764,"o":"m 368 994 l 514 994 l 521 983 q 556 981 538 983 q 593 978 574 978 l 598 968 q 665 965 631 968 q 734 962 699 962 l 734 948 l 747 948 l 747 917 l 764 917 l 764 911 l 747 906 l 747 727 l 764 727 l 764 722 l 753 715 q 751 712 753 713 q 750 708 750 711 l 734 708 l 734 693 l 696 693 l 689 701 q 686 702 686 701 q 684 703 685 703 l 684 739 l 666 739 l 666 819 l 651 819 l 651 849 l 633 849 l 627 857 q 624 859 625 857 l 621 882 l 602 882 l 595 890 q 583 892 591 890 q 572 895 575 895 l 572 913 l 357 913 l 357 897 l 326 897 l 326 882 l 294 882 l 294 865 l 283 857 q 282 853 283 854 q 281 849 281 852 l 262 849 l 262 833 l 251 826 q 249 813 251 819 q 247 800 247 807 l 237 793 q 236 791 237 792 q 235 787 235 789 l 214 787 l 214 755 l 205 749 q 202 728 205 738 q 199 708 199 718 l 186 708 l 186 644 l 175 637 q 172 570 175 604 q 168 503 168 536 l 159 498 l 153 430 l 168 430 l 168 304 l 186 304 l 186 241 l 199 241 l 199 194 l 214 194 l 221 183 q 232 180 224 183 l 232 148 l 245 148 l 252 137 q 259 134 254 137 l 258 134 q 262 133 259 133 l 262 115 l 277 115 l 283 104 q 296 102 290 104 q 309 100 302 100 l 315 91 q 328 89 321 91 q 340 87 334 87 l 340 68 l 372 68 l 377 53 l 541 53 l 541 68 l 572 68 l 572 85 l 604 85 l 604 99 l 621 99 l 621 115 l 635 115 l 635 148 l 651 148 l 651 161 l 659 167 l 659 165 q 662 191 661 179 q 665 212 663 202 q 666 225 666 221 l 684 225 l 684 273 l 697 273 l 697 289 l 705 294 q 708 304 705 298 l 734 304 l 734 289 l 764 289 l 764 111 l 753 104 q 752 102 753 103 q 751 99 751 100 l 734 96 l 734 79 l 722 72 q 721 69 722 71 q 720 66 720 68 l 685 64 l 685 47 l 675 41 q 674 35 675 38 l 639 35 l 639 18 l 606 18 l 606 3 l 544 3 l 544 -14 l 481 -14 l 481 -28 l 416 -28 l 416 -14 l 336 -14 l 336 3 l 289 3 l 282 11 q 269 14 275 11 q 259 16 263 16 l 259 35 l 228 35 l 228 49 l 212 49 l 205 57 q 202 58 203 57 q 199 58 201 58 l 197 80 l 180 80 l 174 90 q 172 89 172 90 q 170 88 171 88 q 168 89 168 88 q 167 90 168 90 l 164 113 l 151 113 l 151 144 l 133 144 l 126 152 q 123 153 125 152 q 119 155 122 155 l 119 175 l 102 175 l 102 221 l 87 221 l 87 255 l 71 255 l 71 300 l 56 300 l 56 380 l 39 380 l 39 570 l 56 570 l 56 632 l 71 632 l 71 680 l 87 680 l 87 727 l 95 732 q 98 747 95 738 q 100 760 100 755 l 119 760 l 119 791 l 127 796 q 127 801 127 798 q 129 807 127 804 l 151 807 l 151 837 l 164 837 l 164 853 l 182 853 l 182 869 l 190 875 q 191 880 190 878 q 193 886 193 883 l 213 886 l 213 899 l 228 899 l 228 917 l 236 922 q 237 932 236 928 l 273 932 l 273 948 l 290 948 l 290 962 l 321 962 l 321 978 l 368 978 l 368 994 z "},"D":{"ha":884,"x_min":39,"x_max":859,"o":"m 728 430 l 736 435 l 743 519 l 728 519 l 728 628 l 712 628 l 712 677 l 699 677 l 699 723 l 682 723 l 682 739 l 666 739 l 666 770 l 651 770 l 651 787 l 633 787 l 633 819 l 602 819 l 595 827 q 593 829 594 827 q 589 830 591 830 l 589 849 l 570 849 l 563 857 q 560 859 562 857 l 557 882 l 494 882 l 488 897 l 309 897 l 309 880 l 298 873 q 298 871 298 872 q 297 868 297 869 l 277 865 l 277 380 l 263 380 l 263 304 l 277 304 l 277 85 l 293 85 l 300 73 q 319 71 309 73 q 339 68 330 68 l 345 53 l 461 53 l 461 68 l 509 68 l 509 85 l 557 85 l 557 99 l 589 99 l 589 115 l 620 115 l 620 148 l 633 148 l 633 161 l 651 161 l 651 178 l 659 183 q 662 198 659 189 q 665 210 665 208 l 682 210 l 682 241 l 690 250 q 694 269 690 260 q 699 289 699 278 l 712 289 l 712 335 l 728 335 l 728 430 m 71 978 l 153 978 l 159 962 l 353 962 l 353 978 l 355 978 l 362 968 q 435 965 397 968 q 513 962 473 962 l 513 948 l 560 948 l 567 937 q 579 935 571 937 q 593 933 587 933 l 593 917 l 623 917 l 629 905 q 642 903 636 905 q 655 901 648 901 l 661 891 q 670 888 662 891 l 670 869 l 684 869 l 689 860 q 701 857 693 860 l 701 837 l 716 837 l 722 827 q 732 825 724 827 l 732 807 l 747 807 l 754 796 q 764 793 755 796 l 764 760 l 779 760 l 785 749 q 789 747 787 749 q 795 743 792 745 l 795 712 l 810 712 l 810 665 l 826 665 l 826 601 l 841 601 l 841 525 l 859 525 l 859 410 l 846 403 q 844 361 846 384 q 841 316 841 338 l 831 309 q 829 290 831 300 q 826 270 826 279 l 815 263 q 812 241 815 252 q 810 221 810 231 l 795 221 l 795 187 l 784 180 q 782 170 784 176 q 780 159 780 164 l 764 159 l 764 144 l 753 136 q 751 129 753 132 l 732 126 l 732 111 l 722 104 q 720 92 722 98 q 718 80 718 87 l 684 80 l 684 64 l 670 64 l 670 47 l 661 41 q 659 35 661 38 l 623 35 l 623 16 l 612 9 q 610 7 612 8 q 609 3 609 5 l 513 3 l 513 -14 l 88 -14 l 88 3 l 69 3 l 62 11 q 60 12 61 11 q 56 14 58 14 l 56 37 l 88 37 l 88 53 l 133 53 l 133 68 l 164 68 l 164 85 l 180 85 l 180 680 l 189 685 l 197 787 l 180 787 l 180 791 l 189 796 l 197 849 l 180 849 l 180 882 l 163 882 l 156 890 q 136 893 145 890 q 118 897 127 897 l 118 913 l 56 913 l 56 928 l 39 928 l 39 948 l 56 948 l 56 962 l 64 968 l 71 978 z "},"E":{"ha":838,"x_min":39,"x_max":811,"o":"m 54 978 l 762 978 l 768 968 q 776 966 770 968 l 774 966 q 779 964 776 964 l 779 917 l 795 917 l 795 880 l 784 873 q 781 838 784 856 q 779 800 779 819 l 768 793 q 765 776 768 784 q 762 757 762 768 l 749 757 l 749 739 l 712 739 l 712 770 l 696 770 l 696 849 l 681 849 l 681 882 l 648 882 l 642 890 l 593 894 q 574 896 586 895 q 556 897 563 897 l 556 913 l 293 913 l 293 895 l 282 888 q 279 793 282 842 q 277 693 277 743 l 266 685 l 260 617 l 277 617 l 277 570 l 293 570 l 298 555 l 492 555 l 492 587 l 509 587 l 509 617 l 518 623 q 521 641 517 627 q 525 665 525 655 l 541 665 l 541 680 l 545 680 l 551 670 q 559 669 556 670 l 559 363 l 541 363 l 541 380 l 525 380 l 525 411 l 509 411 l 509 442 l 492 442 l 492 475 l 479 475 l 479 488 l 431 488 l 431 505 l 293 505 l 293 475 l 282 467 q 281 460 282 463 l 260 457 l 260 115 l 277 115 l 277 85 l 293 85 l 300 68 l 604 68 l 604 85 l 666 85 l 666 99 l 696 99 l 696 115 l 712 115 l 712 148 l 720 153 l 720 152 q 723 176 722 164 q 726 197 724 187 q 727 210 727 206 l 745 210 l 745 258 l 753 263 q 754 273 753 269 l 779 273 l 784 263 q 795 260 787 263 l 795 225 l 811 225 l 811 34 l 800 27 q 799 20 800 23 l 779 18 l 779 3 l 749 3 l 749 -14 l 743 -15 l 745 3 l 84 3 l 77 11 q 73 12 75 11 q 71 12 72 12 l 71 35 l 62 35 l 71 37 l 71 53 l 102 53 l 102 68 l 149 68 l 149 85 l 165 85 l 165 99 l 179 99 l 179 897 l 149 897 l 149 913 l 71 913 l 71 928 l 54 928 l 54 944 l 39 944 l 39 962 l 47 968 l 54 978 m 586 637 l 579 632 l 559 632 l 559 646 l 586 637 z "},"F":{"ha":868,"x_min":20,"x_max":841,"o":"m 213 991 l 220 978 l 557 978 l 557 994 l 796 994 l 803 983 q 814 981 810 983 q 826 979 819 979 l 826 948 l 841 948 l 841 833 l 831 826 q 829 774 831 800 q 826 722 826 749 l 815 715 q 814 712 815 713 q 812 708 812 711 l 789 708 l 783 716 q 780 717 781 716 q 777 718 779 718 l 774 739 l 761 739 l 761 849 l 745 849 l 736 857 q 732 859 734 857 q 728 860 731 860 l 728 882 l 681 882 l 674 890 l 675 890 l 651 892 q 632 895 642 894 q 620 897 623 897 l 620 913 l 461 913 l 461 928 l 339 928 l 339 913 l 309 913 l 309 555 l 339 555 l 346 538 l 479 538 l 479 555 l 541 555 l 541 617 l 557 617 l 557 665 l 593 665 l 598 655 q 606 654 604 655 l 606 347 l 570 347 l 563 355 q 559 356 560 355 q 557 357 559 357 l 557 411 l 541 411 l 541 457 l 526 457 l 526 475 l 461 475 l 461 488 l 339 488 l 339 475 l 326 475 l 326 456 l 315 449 q 312 407 315 430 q 309 363 309 384 l 300 355 l 293 271 l 293 210 l 309 210 l 309 115 l 326 115 l 332 104 q 339 103 336 104 l 339 85 l 388 85 l 395 73 q 437 71 415 73 q 481 68 458 68 l 487 58 q 498 56 490 58 l 498 34 l 487 27 q 486 20 487 23 l 468 18 l 468 3 l 100 3 l 94 11 q 82 14 88 11 q 71 16 76 16 l 71 53 l 88 53 l 88 68 l 118 68 l 118 85 l 197 85 l 197 115 l 213 115 l 213 368 l 227 368 l 227 457 l 213 457 l 213 555 l 227 555 l 227 661 l 213 661 l 213 897 l 197 897 l 197 913 l 134 913 l 134 928 l 91 928 l 91 913 l 87 911 l 88 928 l 56 928 l 56 978 l 213 978 l 213 991 m 328 271 l 312 258 l 293 258 l 293 271 l 328 271 m 20 948 l 37 959 l 56 959 l 56 948 l 20 948 m 582 689 l 589 682 l 589 665 l 576 665 l 582 689 m 582 323 l 576 323 l 576 330 l 576 347 l 589 347 l 582 323 z "},"G":{"ha":868,"x_min":39,"x_max":841,"o":"m 368 994 l 544 994 l 551 983 q 586 981 568 983 q 623 978 604 978 l 628 968 q 694 965 661 968 q 764 962 728 962 l 764 948 l 779 948 l 779 917 l 795 917 l 795 880 l 784 873 q 781 798 784 838 q 779 722 779 758 l 769 715 q 767 705 769 711 q 765 693 765 699 l 712 693 l 712 723 l 699 723 l 699 802 l 681 802 l 681 834 l 666 834 l 666 865 l 651 865 l 651 882 l 635 882 l 627 890 q 614 892 620 890 q 604 895 608 895 l 604 913 l 571 913 l 571 928 l 388 928 l 388 913 l 357 913 l 357 897 l 309 897 l 309 880 l 300 873 q 298 869 300 871 q 296 865 296 868 l 277 865 l 277 849 l 263 849 l 263 833 l 252 826 q 251 823 252 825 q 250 819 250 822 l 231 819 l 231 785 l 220 779 q 218 768 220 774 q 216 757 216 762 l 199 757 l 199 722 l 187 715 q 185 705 187 711 q 183 693 183 699 l 174 685 q 171 650 174 667 q 168 613 168 633 l 153 608 l 153 351 l 168 351 l 168 273 l 182 273 l 182 225 l 199 225 l 205 216 q 214 213 206 216 l 214 178 l 231 178 l 231 148 l 247 148 l 254 137 q 265 134 260 137 q 277 132 270 132 l 277 115 l 293 115 l 300 104 q 309 102 301 104 l 309 85 l 357 85 l 363 73 q 375 71 369 73 q 388 69 381 69 l 388 53 l 557 53 l 557 68 l 589 68 l 589 85 l 620 85 l 620 99 l 651 99 l 651 115 l 666 121 l 666 300 l 651 300 l 651 317 l 635 317 l 635 331 l 509 331 l 509 347 l 495 347 l 495 384 l 526 384 l 526 397 l 826 397 l 826 384 l 841 384 l 841 346 l 831 339 q 831 336 831 338 q 830 334 830 335 l 795 331 l 795 317 l 764 317 l 764 79 l 753 72 q 752 69 753 71 q 751 66 751 68 l 670 64 l 670 49 l 639 49 l 639 35 l 606 35 l 606 18 l 575 18 l 575 3 l 530 3 l 530 -14 l 481 -14 l 481 -28 l 430 -28 l 430 -14 l 336 -14 l 336 3 l 305 3 l 297 11 q 277 14 286 11 q 259 18 267 18 l 259 35 l 227 35 l 227 49 l 209 49 l 202 57 q 199 58 199 57 q 197 58 198 58 l 197 80 l 179 80 l 172 90 q 170 90 171 90 q 167 91 168 91 l 164 113 l 151 113 l 151 126 l 133 126 l 133 159 l 118 159 l 118 189 l 102 189 l 102 206 l 88 206 l 88 237 l 71 237 l 71 300 l 56 300 l 56 411 l 39 411 l 39 538 l 56 538 l 56 632 l 64 639 q 66 670 62 646 q 71 712 71 694 l 88 712 l 88 741 l 102 741 l 102 774 l 118 774 l 118 807 l 126 812 q 129 825 126 818 q 132 837 132 833 l 151 837 l 151 853 l 164 853 l 164 869 l 180 869 l 180 886 l 189 891 q 190 895 189 892 q 193 899 191 897 l 210 899 l 210 917 l 241 917 l 241 932 l 259 932 l 259 948 l 290 948 l 290 962 l 321 962 l 321 978 l 368 978 l 368 994 m 743 693 l 736 669 l 734 669 l 734 693 l 743 693 z "},"H":{"ha":914,"x_min":39,"x_max":888,"o":"m 71 962 l 294 962 l 294 948 l 340 948 l 347 937 q 357 935 349 937 l 357 897 l 308 897 l 308 882 l 278 882 l 278 722 l 263 716 l 263 555 l 278 555 l 285 544 q 294 541 286 544 l 294 525 l 635 525 l 635 538 l 666 538 l 666 587 l 674 593 l 681 661 l 666 661 l 666 882 l 602 882 l 595 890 l 597 890 q 571 892 583 891 q 552 895 560 894 q 541 897 544 897 l 541 948 l 589 948 l 589 962 l 685 962 l 685 948 l 841 948 l 848 937 q 857 935 849 937 l 857 897 l 811 897 l 811 882 l 779 882 l 779 849 l 765 849 l 765 68 l 779 68 l 784 58 q 811 56 796 58 q 841 53 826 53 l 848 42 q 861 40 854 42 q 873 38 867 38 l 873 20 l 888 20 l 888 -14 l 841 -14 l 841 -28 l 652 -28 l 652 -14 l 604 -14 l 604 3 l 589 3 l 589 20 l 604 20 l 604 37 l 635 37 l 635 53 l 652 53 l 652 68 l 666 68 l 666 335 l 674 340 l 681 411 l 666 411 l 666 442 l 397 442 l 392 450 l 308 457 l 308 442 l 278 442 l 278 410 l 263 404 l 263 68 l 278 68 l 283 58 q 295 56 289 58 q 308 54 301 54 l 308 37 l 372 37 l 377 27 q 382 26 378 27 q 388 23 385 24 l 388 -14 l 326 -14 l 326 -28 l 228 -28 l 228 -14 l 155 -14 l 155 -28 l 118 -28 l 118 -14 l 87 -14 l 87 37 l 118 37 l 118 53 l 165 53 l 165 241 l 182 241 l 182 300 l 165 300 l 165 617 l 182 617 l 182 661 l 165 661 l 165 774 l 182 774 l 182 849 l 165 849 l 165 882 l 132 882 l 125 890 l 126 890 q 95 892 110 891 q 71 895 83 894 q 56 897 58 897 l 56 913 l 39 913 l 39 932 l 56 932 l 56 948 l 64 954 l 71 962 m 52 7 l 71 18 l 87 18 l 87 7 l 52 7 m 507 917 l 524 928 l 541 928 l 541 917 l 507 917 z "},"I":{"ha":732,"x_min":37,"x_max":705,"o":"m 624 981 l 54 981 l 54 951 l 37 951 l 37 925 l 54 925 l 54 910 l 164 910 l 164 894 q 222 890 190 894 q 283 887 254 887 l 290 879 l 304 879 l 304 831 l 321 831 l 321 743 l 304 743 q 300 439 304 591 q 297 122 297 286 l 289 117 l 289 88 l 256 88 l 256 71 l 193 76 l 186 88 l 132 88 l 132 71 l 96 71 q 94 60 94 62 l 85 54 l 85 33 l 102 33 l 102 9 q 105 9 103 9 q 110 8 107 8 l 117 0 l 674 0 l 674 15 l 705 15 l 705 39 l 689 39 l 689 58 q 678 61 681 61 l 673 71 q 572 73 629 71 q 460 76 514 76 l 453 88 l 420 88 l 420 102 l 407 102 l 407 557 l 391 557 l 396 618 l 407 625 l 407 879 l 420 879 l 420 894 l 563 894 l 563 910 l 642 910 l 642 967 l 639 967 q 633 970 636 968 q 629 971 631 971 l 624 981 m 525 981 l 517 981 l 517 1005 l 526 994 l 525 981 m 656 951 l 642 951 l 642 956 l 656 951 z "},"J":{"ha":838,"x_min":39,"x_max":818,"o":"m 351 978 l 779 978 l 784 968 q 789 967 785 968 q 795 964 792 966 l 795 926 l 784 920 q 783 913 784 917 l 667 913 l 667 897 l 654 897 l 654 880 l 637 873 l 637 665 l 654 665 l 654 627 l 643 620 l 637 587 l 654 587 l 654 174 l 643 167 q 640 146 643 157 q 637 125 637 136 l 628 118 q 625 99 628 113 l 621 80 l 608 80 l 608 62 l 597 56 q 595 53 597 54 q 594 49 594 52 l 576 49 l 576 34 l 564 27 q 563 20 564 23 l 529 18 l 529 3 l 465 3 l 465 -14 l 274 -14 l 274 3 l 210 3 l 203 11 q 184 14 193 11 q 165 18 175 18 l 165 35 l 134 35 l 134 49 l 84 49 l 77 57 q 73 58 75 57 q 71 58 72 58 l 71 80 l 54 80 l 54 144 l 39 144 l 39 225 l 47 231 q 49 236 47 233 q 50 241 50 239 l 121 241 l 127 231 q 138 228 130 231 l 138 194 l 152 194 l 152 161 l 167 161 l 167 130 l 184 130 l 190 121 q 198 119 195 121 l 198 99 l 214 99 l 214 85 l 247 85 l 254 73 q 320 71 286 73 q 387 68 354 68 l 392 58 l 429 53 l 429 68 l 479 68 l 479 85 l 509 85 l 509 99 l 518 104 q 519 110 518 107 q 521 115 521 113 l 541 115 l 541 148 l 556 153 l 556 882 l 524 882 l 517 890 q 498 893 506 890 q 479 897 490 897 l 479 913 l 353 913 l 353 928 l 336 928 l 336 948 l 345 954 l 351 978 m 415 -14 l 415 -46 l 400 -31 l 400 -14 l 415 -14 m 95 267 l 102 260 l 102 241 l 90 241 l 95 267 m 753 888 l 750 888 l 750 913 l 760 913 l 753 888 m 795 959 l 818 952 l 818 949 l 795 949 l 795 959 z "},"K":{"ha":974,"x_min":28,"x_max":952,"o":"m 50 925 l 66 925 l 66 910 l 161 910 l 161 894 l 176 894 q 175 701 176 802 q 173 500 174 601 q 171 298 172 399 q 170 106 170 198 l 161 100 l 161 88 l 130 88 l 130 71 l 98 71 l 98 56 l 81 56 l 81 11 q 87 8 84 8 q 92 8 91 8 l 99 0 l 171 0 l 171 15 q 186 12 178 14 q 201 8 194 9 l 208 0 l 388 0 l 388 15 l 419 15 l 419 39 l 404 39 l 404 58 q 392 61 396 61 l 387 71 q 360 73 376 71 q 331 76 345 76 l 324 88 l 294 88 l 294 102 l 279 102 l 279 151 l 262 151 l 267 179 l 279 186 l 279 439 l 311 439 l 311 454 q 334 451 321 453 q 358 448 347 449 l 365 439 l 396 439 l 396 423 l 410 423 l 410 408 l 426 408 l 426 388 q 431 385 429 385 q 437 385 434 385 l 444 377 l 456 377 l 456 355 q 462 353 458 353 q 467 353 465 353 l 473 345 l 488 345 l 488 315 l 506 315 l 506 293 q 515 290 509 290 l 522 282 l 537 282 l 537 244 q 543 243 540 244 q 547 243 545 243 l 553 235 l 568 235 l 568 214 q 578 212 571 212 l 585 203 l 601 203 l 601 186 l 614 186 l 614 152 q 621 149 617 149 q 625 149 624 149 l 632 141 l 646 141 l 646 110 l 663 110 l 663 94 l 677 94 l 677 57 q 686 54 680 54 l 693 46 l 708 46 l 708 33 l 724 33 l 724 14 q 737 11 731 14 q 749 8 743 8 l 755 0 l 897 0 l 897 -16 l 905 -16 l 905 0 l 939 0 q 940 4 939 3 q 941 8 941 5 l 952 15 l 952 39 l 936 39 l 936 60 q 930 61 933 61 q 925 61 926 61 l 920 71 q 892 73 906 71 q 863 76 878 76 l 856 88 l 795 88 l 795 102 l 781 102 l 781 121 q 769 123 773 123 l 762 133 l 749 133 l 749 167 q 736 170 741 170 l 732 180 l 719 180 l 719 199 q 705 202 711 202 l 701 213 l 686 213 l 686 231 q 674 233 678 233 l 670 244 l 654 244 l 654 279 q 648 281 651 281 q 644 281 646 281 l 640 292 l 624 292 l 624 307 l 609 307 l 609 340 q 595 343 601 343 l 591 354 l 578 354 l 578 373 q 566 376 570 376 l 562 387 l 545 387 l 545 403 q 534 406 537 406 l 528 418 l 515 418 l 515 435 q 503 438 507 438 l 499 449 l 481 449 l 481 483 q 469 486 473 486 l 464 495 l 450 495 l 450 581 l 484 581 q 486 585 484 583 q 487 589 487 586 l 499 595 l 499 612 l 519 612 q 521 618 521 614 l 530 625 q 532 638 530 633 q 534 651 534 643 l 545 658 l 545 674 l 564 674 q 566 678 564 677 q 567 682 567 680 l 578 690 l 578 705 l 594 705 q 595 709 594 708 q 597 713 597 711 l 609 720 l 609 736 l 625 736 q 629 747 629 746 l 640 754 l 640 768 l 654 768 l 654 799 l 673 799 q 674 804 673 802 q 675 810 675 807 l 686 817 l 686 831 l 704 831 q 705 836 704 834 q 707 840 707 837 l 719 846 l 719 863 l 734 863 q 738 872 738 872 l 749 879 l 749 894 l 781 894 l 781 910 l 831 910 q 833 918 833 913 l 844 925 l 844 941 l 857 941 l 857 951 l 844 951 l 844 981 q 821 983 831 981 q 799 986 810 986 l 795 997 l 708 997 l 708 981 l 552 981 l 552 964 l 537 964 l 537 925 l 568 925 l 568 910 l 601 910 l 601 879 l 614 879 l 614 840 l 601 840 l 601 810 l 579 810 q 576 798 576 804 l 568 792 l 568 777 l 552 777 l 552 743 l 537 743 l 537 730 l 519 730 q 517 715 519 722 q 514 703 514 709 l 506 697 l 506 682 l 483 682 q 480 671 480 674 l 472 666 l 472 652 l 456 652 l 456 635 l 438 635 q 435 624 435 627 l 426 618 l 426 604 l 410 604 l 410 590 l 396 590 l 396 572 l 374 572 q 372 562 372 564 l 363 556 l 363 541 l 334 541 l 334 528 l 294 528 l 294 557 l 279 557 l 279 590 l 262 590 l 267 667 l 279 674 l 279 715 l 262 715 l 262 879 l 281 879 q 283 891 281 886 q 285 903 285 897 l 294 910 l 294 925 l 358 925 q 362 935 362 935 l 373 941 l 373 967 l 370 967 q 365 970 368 968 q 361 971 362 971 l 355 981 l 50 981 l 50 925 m 591 1004 l 602 981 q 602 985 602 987 q 601 981 601 983 l 591 981 l 591 1004 m 184 1005 l 194 981 q 193 985 194 987 q 193 981 193 983 l 184 981 l 184 1005 m 28 951 l 38 960 l 50 956 l 50 951 l 28 951 m 98 981 l 91 981 l 96 997 l 98 996 l 98 981 m 65 43 q 69 46 68 46 l 81 46 l 81 39 l 65 43 m 262 768 l 278 762 l 262 762 l 262 768 z "},"L":{"ha":914,"x_min":39,"x_max":888,"o":"m 71 994 l 449 994 l 456 983 q 469 981 463 983 q 483 979 475 979 l 483 943 l 469 936 q 469 933 469 935 q 468 930 468 932 l 433 928 l 433 913 l 354 913 l 354 897 l 340 897 l 340 880 l 324 873 l 324 774 l 340 774 l 340 755 l 330 749 l 324 680 l 340 680 l 340 644 l 324 637 l 324 115 l 340 115 l 340 85 l 372 85 l 378 68 l 572 68 l 572 85 l 696 85 l 696 99 l 743 99 l 743 115 l 776 115 l 776 194 l 789 194 l 789 289 l 806 289 l 806 304 l 856 304 l 856 289 l 873 289 l 873 68 l 888 68 l 888 47 l 879 41 q 876 21 879 30 q 873 3 873 12 l 841 3 l 841 -14 l 760 -14 l 760 3 l 115 3 l 109 11 q 97 14 103 11 q 85 16 91 16 l 85 53 l 103 53 l 103 68 l 117 68 l 117 85 l 212 85 l 212 99 l 225 99 l 225 760 l 241 760 l 241 882 l 224 882 l 217 890 q 214 890 214 890 q 212 891 213 891 l 212 913 l 71 913 l 71 928 l 39 928 l 39 978 l 71 978 l 71 994 m 58 42 l 71 49 l 85 49 l 85 37 l 58 42 m 503 952 l 503 949 l 483 948 l 483 959 l 503 952 z "},"M":{"ha":1053,"x_min":26,"x_max":1042,"o":"m 87 1009 l 216 1009 l 221 1000 q 241 997 232 1000 q 262 994 251 994 l 269 983 q 275 982 273 983 l 275 962 l 293 962 l 293 932 l 308 932 l 308 899 l 324 899 l 324 869 l 339 869 l 339 822 l 357 822 l 357 791 l 370 791 l 370 760 l 387 760 l 387 727 l 403 727 l 403 696 l 419 696 l 419 665 l 433 665 l 433 632 l 449 632 l 449 601 l 465 601 l 465 555 l 479 555 l 486 544 q 495 541 487 544 l 495 507 l 572 507 l 572 538 l 589 538 l 589 555 l 602 555 l 602 601 l 618 601 l 618 632 l 628 639 l 632 663 q 635 680 635 674 l 651 680 l 651 712 l 665 712 l 665 741 l 682 741 l 682 774 l 690 780 l 694 804 q 696 812 696 807 q 697 822 697 818 l 713 822 l 713 869 l 727 869 l 727 917 l 736 922 q 738 932 736 928 l 760 932 l 760 962 l 768 968 q 770 982 768 974 q 773 994 773 990 l 997 994 l 1004 983 q 1018 981 1010 983 q 1031 979 1025 979 l 1031 944 l 981 944 l 981 928 l 949 928 l 949 913 l 888 913 l 888 880 l 878 873 l 872 837 l 888 837 l 888 707 l 878 700 l 872 632 l 888 632 l 888 583 l 872 575 l 872 415 l 888 415 l 888 378 l 878 372 l 872 335 l 888 335 l 888 316 l 872 309 l 872 210 l 888 210 l 888 205 l 878 199 l 872 148 l 888 148 l 888 115 l 903 115 l 910 104 q 930 102 920 104 q 949 99 940 99 l 949 85 l 997 85 l 1004 73 q 1008 72 1006 73 q 1015 71 1009 71 l 1015 53 l 1031 53 l 1031 34 l 1020 27 q 1019 20 1020 23 l 949 18 l 949 3 l 929 3 l 922 11 q 812 14 868 11 q 697 18 755 18 l 697 35 l 682 35 l 682 68 l 690 73 q 692 79 690 76 q 693 85 693 83 l 743 85 l 743 99 l 774 99 l 774 115 l 792 115 l 792 430 l 806 430 l 806 677 l 792 677 l 792 787 l 747 787 l 747 755 l 738 749 q 737 745 738 747 q 736 742 736 743 l 715 739 l 715 707 l 705 700 q 703 689 705 697 q 701 677 701 681 l 692 669 q 690 657 692 662 q 688 646 688 652 l 669 646 l 669 627 l 659 620 q 656 602 659 610 q 654 583 654 594 l 643 575 q 640 555 643 564 q 637 536 637 547 l 624 536 l 624 518 l 612 511 q 610 500 612 505 q 608 488 608 495 l 591 488 l 591 456 l 581 449 q 578 437 581 442 q 576 425 576 431 l 566 418 q 564 411 566 415 l 544 411 l 544 378 l 534 372 q 525 363 534 363 l 525 380 l 505 380 l 498 388 q 494 389 495 388 q 492 389 494 389 l 492 411 l 477 411 l 477 442 l 461 442 l 453 450 l 448 450 q 446 452 446 450 l 446 505 l 430 505 l 430 536 l 415 536 l 415 566 l 397 566 l 397 598 l 384 598 l 384 628 l 368 628 l 368 661 l 353 661 l 353 693 l 335 693 l 335 723 l 320 723 l 320 757 l 245 757 l 245 644 l 236 639 l 229 583 l 229 368 l 245 368 l 245 178 l 262 178 l 262 130 l 275 130 l 281 121 q 290 119 286 121 l 293 119 l 293 99 l 357 99 l 357 85 l 387 85 l 387 34 l 376 27 q 357 22 376 24 q 309 20 338 20 q 246 18 281 19 q 179 18 212 18 q 121 18 146 18 q 87 18 96 18 l 87 35 l 69 35 l 69 68 l 87 68 l 87 85 l 100 85 l 100 99 l 133 99 l 133 115 l 149 115 l 149 130 l 157 137 q 161 256 157 194 q 164 384 164 319 l 180 384 l 180 913 l 164 913 l 164 928 l 133 928 l 133 944 l 54 944 l 54 994 l 87 994 l 87 1009 m 652 42 l 662 49 l 682 49 l 682 37 l 652 42 m 26 983 l 35 990 l 54 990 l 54 978 l 26 983 m 252 575 l 252 572 l 247 570 l 229 570 l 229 583 l 252 575 m 410 42 l 410 39 l 404 37 l 387 37 l 387 49 l 410 42 m 1042 944 l 1035 920 l 1032 920 l 1032 944 l 1042 944 z "},"N":{"ha":898,"x_min":27,"x_max":872,"o":"m 54 994 l 121 994 l 127 983 q 193 981 159 983 q 262 978 227 978 l 267 968 q 275 966 270 968 l 274 966 q 278 964 275 964 l 278 932 l 292 932 l 292 899 l 309 899 l 309 869 l 324 869 l 330 860 q 340 857 332 860 l 340 807 l 354 807 l 354 774 l 370 774 l 376 765 q 387 762 378 765 l 387 727 l 400 727 l 400 696 l 418 696 l 418 665 l 433 665 l 433 632 l 449 632 l 454 623 q 464 620 456 623 l 464 601 l 483 601 l 483 570 l 496 570 l 496 538 l 513 538 l 513 507 l 529 507 l 534 498 q 545 495 537 498 l 545 460 l 559 460 l 559 446 l 575 446 l 575 415 l 591 415 l 591 384 l 605 384 l 612 373 q 621 370 613 373 l 621 351 l 637 351 l 637 320 l 669 320 l 675 309 l 713 304 l 713 723 l 697 723 l 697 849 l 681 849 l 681 882 l 663 882 l 656 890 l 658 890 l 633 892 q 615 895 624 894 q 604 897 606 897 l 604 913 l 572 913 l 572 928 l 541 928 l 541 962 l 549 968 q 551 978 549 974 l 856 978 l 863 968 q 867 967 864 970 q 872 964 869 964 l 872 926 l 863 920 q 861 913 863 917 l 825 913 l 825 897 l 793 897 l 793 818 l 784 812 l 779 741 l 793 741 l 793 693 l 779 685 l 779 351 l 793 351 l 793 16 l 784 9 q 783 7 784 8 q 781 3 781 5 l 749 3 l 749 -14 l 727 -14 l 727 3 l 712 3 l 705 11 q 703 12 704 11 q 700 12 701 12 l 697 35 l 681 35 l 681 64 l 665 64 l 665 96 l 650 96 l 650 126 l 632 126 l 632 159 l 618 159 l 618 189 l 604 189 l 604 221 l 587 221 l 587 271 l 572 271 l 572 285 l 556 285 l 556 331 l 541 331 l 541 347 l 524 347 l 524 380 l 509 380 l 502 388 q 499 389 500 388 q 496 389 498 389 l 494 426 l 479 426 l 479 457 l 460 457 l 460 488 l 445 488 l 445 505 l 429 505 l 429 536 l 414 536 l 414 566 l 397 566 l 397 598 l 382 598 l 382 614 l 369 614 l 369 646 l 351 646 l 351 677 l 336 677 l 336 708 l 319 708 l 312 716 q 308 717 309 716 q 305 718 307 718 l 305 757 l 274 757 l 274 770 l 229 770 l 229 738 l 214 732 l 214 289 l 229 289 l 229 148 l 245 148 l 245 115 l 262 115 l 269 104 q 288 102 278 104 q 309 99 298 99 l 309 85 l 370 85 l 377 73 q 387 71 378 73 l 387 53 l 400 53 l 400 18 l 309 18 l 309 3 l 87 3 l 79 11 q 65 14 73 11 q 54 16 57 16 l 54 53 l 71 53 l 71 68 l 79 73 q 80 79 79 76 q 81 85 81 83 l 103 85 l 103 99 l 117 99 l 117 115 l 149 115 l 149 897 l 133 897 l 133 913 l 54 913 l 54 928 l 39 928 l 39 978 l 47 983 l 54 994 m 27 42 l 54 49 l 54 37 l 27 42 z "},"O":{"ha":852,"x_min":39,"x_max":825,"o":"m 696 430 l 712 430 l 712 598 l 696 598 l 696 693 l 681 693 l 681 757 l 665 757 l 665 770 l 650 770 l 650 802 l 633 802 l 633 834 l 617 834 l 617 865 l 604 865 l 604 882 l 570 882 l 563 890 q 551 892 559 890 q 541 895 544 895 l 541 913 l 509 913 l 509 928 l 460 928 l 460 944 l 369 944 l 369 928 l 323 928 l 323 913 l 277 913 l 277 895 l 266 888 q 264 886 266 887 q 263 882 263 884 l 247 882 l 247 865 l 235 857 q 233 846 235 852 q 231 834 231 840 l 214 834 l 214 800 l 203 793 q 201 782 203 787 q 199 770 199 777 l 182 770 l 182 722 l 171 715 q 168 688 171 703 q 165 661 165 674 l 152 661 l 152 351 l 165 351 l 165 289 l 182 289 l 182 241 l 198 241 l 198 210 l 214 210 l 214 178 l 229 178 l 236 167 q 247 164 239 167 l 247 148 l 260 148 l 267 137 q 274 134 269 137 l 273 134 q 277 133 274 133 l 277 115 l 309 115 l 316 104 q 328 102 323 104 q 339 100 332 100 l 345 91 q 365 88 355 91 q 385 85 374 85 l 392 73 l 460 68 l 460 85 l 525 85 l 525 99 l 555 99 l 555 115 l 587 115 l 587 130 l 604 130 l 604 148 l 617 148 l 617 178 l 625 183 q 627 189 625 186 q 628 194 628 191 l 650 194 l 650 225 l 658 231 q 661 246 658 237 q 663 258 663 255 l 681 258 l 681 320 l 696 320 l 696 430 m 396 1027 l 418 1027 l 425 1015 q 465 1012 442 1015 q 513 1009 488 1009 l 519 1000 q 548 997 533 1000 q 576 994 563 994 l 583 983 q 602 981 589 983 l 605 981 l 605 962 l 621 962 l 621 948 l 637 948 l 644 937 q 656 935 651 937 q 667 933 661 933 l 667 917 l 685 917 l 685 886 l 700 886 l 707 875 q 716 872 708 875 l 716 853 l 730 853 l 736 842 q 747 840 739 842 l 747 807 l 762 807 l 762 760 l 779 760 l 779 727 l 792 727 l 792 665 l 810 665 l 810 587 l 825 587 l 825 425 l 815 418 q 812 382 815 400 q 810 346 810 365 l 799 339 q 795 305 799 324 q 792 271 792 286 l 779 271 l 779 236 l 768 229 q 766 218 768 222 q 764 206 764 213 l 747 206 l 747 174 l 735 167 q 733 155 735 160 q 731 144 731 151 l 722 136 q 720 129 722 132 l 685 126 l 685 111 l 673 104 q 672 102 673 103 q 671 99 671 100 l 654 96 l 654 79 l 643 72 q 642 69 643 71 q 642 66 642 68 l 621 64 l 621 49 l 590 49 l 590 35 l 559 35 l 559 18 l 465 18 l 465 3 l 349 3 l 342 11 l 343 11 l 319 14 q 300 16 309 15 q 288 18 290 18 l 288 35 l 258 35 l 258 49 l 224 49 l 217 57 q 205 60 213 57 q 194 62 197 62 l 194 80 l 178 80 l 171 90 q 168 90 170 90 q 165 91 167 91 l 163 126 l 148 126 l 148 144 l 134 144 l 126 152 q 124 151 125 152 q 122 151 123 151 q 121 151 121 151 q 119 152 121 152 l 117 189 l 102 189 l 102 206 l 85 206 l 85 255 l 71 255 l 71 300 l 54 300 l 54 363 l 39 363 l 39 601 l 47 606 q 51 658 47 631 q 54 712 54 685 l 71 712 l 71 741 l 85 741 l 85 791 l 102 791 l 102 807 l 110 812 l 114 837 q 117 853 117 848 l 134 853 l 134 869 l 148 869 l 148 886 l 156 891 q 159 904 156 898 q 161 917 161 910 l 194 917 l 194 932 l 210 932 l 210 948 l 243 948 l 243 962 l 251 968 q 252 978 251 974 l 288 978 l 288 994 l 350 994 l 350 1009 l 396 1009 l 396 1027 z "},"P":{"ha":852,"x_min":39,"x_max":825,"o":"m 690 636 l 705 642 l 705 810 l 690 810 l 690 842 l 671 842 l 665 850 q 662 852 663 850 q 658 853 661 853 l 658 875 l 642 875 l 635 883 q 629 884 632 883 q 624 886 627 886 l 624 907 l 591 907 l 585 917 q 570 920 578 917 q 559 922 563 922 l 559 940 l 336 940 l 336 922 l 320 916 l 320 519 l 336 519 l 342 505 l 528 505 l 528 519 l 593 519 l 593 537 l 624 537 l 624 552 l 658 552 l 658 586 l 666 591 q 667 597 666 594 q 669 602 669 600 l 690 602 l 690 636 m 71 1008 l 597 1008 l 602 998 q 640 996 621 998 q 677 993 658 993 l 684 982 q 694 979 686 982 l 694 960 l 727 960 l 732 951 q 743 948 735 951 l 743 928 l 760 928 l 765 918 q 774 916 766 918 l 774 880 l 792 880 l 792 863 l 808 863 l 808 830 l 825 830 l 825 662 l 814 655 q 812 642 814 648 q 810 629 810 635 l 792 629 l 792 598 l 774 598 l 774 563 l 765 556 q 764 553 765 555 q 764 551 764 552 l 743 548 l 743 533 l 732 525 q 730 514 732 522 l 694 514 l 694 499 l 662 499 l 662 484 l 631 484 l 631 467 l 564 467 l 564 452 l 515 452 l 515 434 l 320 434 l 320 385 l 305 380 l 305 114 l 320 114 l 320 81 l 353 81 l 359 69 q 410 66 385 69 q 467 64 435 64 l 472 54 q 486 52 480 54 q 499 50 492 50 l 499 31 l 515 31 l 515 9 l 505 3 q 503 0 505 1 q 502 -4 502 -1 l 449 -4 l 449 -22 l 365 -22 l 365 -4 l 286 -4 l 286 -22 l 90 -22 l 90 -4 l 71 -4 l 71 31 l 90 31 l 90 49 l 98 54 q 99 64 98 60 l 184 64 l 184 81 l 202 81 l 202 96 l 217 102 l 217 890 l 202 890 l 202 924 l 170 924 l 170 940 l 61 940 l 61 924 l 56 924 l 56 955 l 39 955 l 39 977 l 56 977 l 56 993 l 64 998 l 71 1008 z "},"Q":{"ha":882,"x_min":39,"x_max":854,"o":"m 705 342 l 722 342 l 722 646 l 705 646 l 705 696 l 689 696 l 689 743 l 673 743 l 673 792 l 658 792 l 658 825 l 640 825 l 640 842 l 624 842 l 624 875 l 591 875 l 585 883 l 560 887 q 544 890 552 890 l 544 907 l 510 907 l 503 917 q 498 918 500 917 q 494 920 496 920 l 494 940 l 351 940 l 351 924 l 320 924 l 320 907 l 286 907 l 286 890 l 255 890 l 255 873 l 244 867 q 243 862 244 864 q 241 857 241 860 l 221 857 l 221 823 l 212 817 q 210 814 212 815 q 209 810 209 812 l 189 810 l 189 760 l 179 753 q 177 740 179 747 q 175 728 175 732 l 157 728 l 157 662 l 142 656 l 142 326 l 157 326 l 157 262 l 174 262 l 174 227 l 189 227 l 189 195 l 206 195 l 206 161 l 221 161 l 227 152 q 236 151 232 152 l 239 151 l 239 129 l 255 129 l 260 119 q 271 117 263 119 l 271 96 l 286 96 l 292 87 q 306 85 298 87 q 320 83 313 83 l 320 64 l 368 64 l 373 49 l 511 49 l 511 64 l 559 64 l 559 81 l 576 81 l 576 96 l 586 102 q 587 114 586 110 l 624 114 l 624 146 l 632 152 q 633 161 632 157 l 658 161 l 658 195 l 666 201 l 670 225 q 673 241 673 236 l 689 241 l 689 309 l 699 315 l 705 342 m 365 1008 l 484 1008 l 490 998 q 527 996 509 998 q 564 993 545 993 l 571 982 q 583 980 575 982 q 597 978 591 978 l 597 960 l 629 960 l 636 951 q 646 948 637 951 l 646 928 l 662 928 l 667 918 q 681 916 674 918 q 694 914 688 914 l 694 895 l 709 895 l 709 863 l 727 863 l 734 852 q 742 849 736 852 l 742 815 l 760 815 l 760 781 l 774 781 l 774 750 l 792 750 l 792 701 l 808 701 l 808 651 l 825 651 l 825 385 l 814 378 q 811 340 814 359 q 808 302 808 321 l 798 296 q 795 276 798 286 q 792 256 792 266 l 774 256 l 774 221 l 765 214 q 763 201 765 208 q 761 189 761 194 l 742 189 l 742 172 l 732 165 q 732 163 732 164 q 731 160 731 161 l 709 157 l 709 122 l 700 115 q 699 113 700 114 q 697 109 697 111 l 677 109 l 677 92 l 646 92 l 646 75 l 636 68 q 633 55 636 61 q 631 43 631 49 l 597 43 l 597 24 l 587 19 l 582 -50 l 597 -50 l 602 -60 q 612 -62 604 -60 l 612 -81 l 629 -81 l 636 -92 q 646 -95 637 -92 l 646 -114 l 662 -114 l 662 -148 l 677 -148 l 682 -157 q 692 -159 688 -157 l 694 -159 l 694 -179 l 709 -179 l 715 -189 q 724 -190 720 -189 l 727 -190 l 727 -213 l 742 -213 l 749 -222 l 821 -228 l 821 -213 l 825 -213 l 830 -222 q 842 -224 836 -222 q 854 -227 848 -227 l 854 -282 l 825 -282 l 825 -298 l 774 -298 l 774 -315 l 742 -315 l 742 -332 l 709 -332 l 709 -347 l 688 -347 l 681 -339 q 678 -338 680 -339 q 675 -338 677 -338 l 673 -298 l 658 -298 l 658 -267 l 640 -267 l 640 -232 l 623 -232 l 616 -224 q 613 -222 614 -224 q 609 -221 612 -221 l 609 -184 l 593 -184 l 593 -167 l 576 -167 l 576 -134 l 559 -134 l 559 -102 l 528 -102 l 528 -69 l 494 -69 l 494 -38 l 458 -38 l 452 -30 q 439 -27 448 -30 l 429 -23 l 429 -4 l 313 -4 l 307 4 q 293 7 301 4 q 281 9 285 9 l 274 19 q 271 20 273 19 q 267 22 270 22 l 267 43 l 232 43 l 225 52 q 222 52 224 52 q 220 53 221 53 l 217 76 l 183 76 l 176 85 q 174 87 175 85 q 170 88 172 88 l 170 123 l 152 123 l 152 142 l 134 142 l 127 151 q 125 152 126 151 q 121 153 123 153 l 121 189 l 104 189 l 104 222 l 90 222 l 90 256 l 71 256 l 71 304 l 56 304 l 56 370 l 39 370 l 39 651 l 56 651 l 56 716 l 64 722 l 68 747 q 70 755 69 750 q 71 765 71 761 l 90 765 l 90 796 l 98 803 q 99 815 98 811 l 121 815 l 121 846 l 129 852 q 129 857 129 853 q 130 863 129 860 l 152 863 l 152 880 l 170 880 l 170 895 l 178 901 q 179 907 178 903 q 180 913 180 910 l 202 913 l 202 928 l 210 933 q 212 945 210 941 l 233 945 l 233 960 l 241 966 q 243 977 241 972 l 298 977 l 298 993 l 365 993 l 365 1008 z "},"R":{"ha":977,"x_min":38,"x_max":952,"o":"m 639 667 l 654 673 l 654 810 l 639 810 l 639 857 l 624 857 l 624 875 l 608 875 l 600 883 q 585 886 593 883 q 574 888 578 888 l 574 907 l 557 907 l 551 917 l 552 917 l 525 920 q 504 922 514 921 q 491 924 494 924 l 491 940 l 301 940 l 301 922 l 292 916 q 290 902 292 907 q 288 890 288 897 l 269 890 l 269 552 l 286 552 l 292 537 l 541 537 l 541 552 l 574 552 l 574 570 l 591 570 l 591 586 l 600 591 q 601 597 600 594 q 602 602 602 600 l 624 602 l 624 617 l 632 623 l 639 667 m 71 1008 l 138 1008 l 144 998 l 198 993 l 198 1008 l 221 1008 l 227 993 l 395 993 l 395 1008 l 431 1008 l 438 998 q 515 996 473 998 q 595 993 556 993 l 602 982 q 623 979 613 982 q 643 977 633 977 l 650 966 q 653 964 651 966 q 659 963 655 963 l 659 945 l 677 945 l 677 928 l 692 928 l 697 918 q 708 916 700 918 l 708 895 l 724 895 l 730 886 q 739 884 735 886 l 742 884 l 742 846 l 757 846 l 757 781 l 774 781 l 774 696 l 762 688 q 760 666 762 677 q 757 644 757 655 l 747 637 q 745 625 747 631 q 743 613 743 620 l 724 613 l 724 597 l 715 590 q 712 576 715 583 q 709 564 709 570 l 677 564 l 677 548 l 659 548 l 659 533 l 627 533 l 627 514 l 595 514 l 595 499 l 564 499 l 564 484 l 530 484 l 530 425 l 545 425 l 545 406 l 579 406 l 585 396 q 595 393 587 396 l 595 374 l 612 374 l 617 365 q 627 362 618 365 l 627 342 l 643 342 l 650 331 q 653 330 651 331 q 659 328 655 328 l 659 293 l 677 293 l 684 282 q 692 279 686 282 l 692 262 l 708 262 l 708 227 l 724 227 l 724 195 l 742 195 l 749 184 q 757 182 751 184 l 757 146 l 774 146 l 774 114 l 789 114 l 789 81 l 822 81 l 829 69 q 842 67 836 69 q 854 65 848 65 l 854 49 l 936 49 l 936 31 l 952 31 l 952 9 l 941 3 q 939 -9 941 -4 q 937 -22 937 -15 l 751 -22 l 751 -4 l 735 -4 l 728 4 q 726 5 727 4 q 723 5 724 5 l 720 26 l 704 26 l 704 58 l 686 58 l 686 76 l 671 76 l 671 109 l 652 109 l 646 117 q 643 118 644 117 q 639 119 642 119 l 639 157 l 624 157 l 624 189 l 608 189 l 608 222 l 591 222 l 591 256 l 574 256 l 574 289 l 559 289 l 559 321 l 541 321 l 541 353 l 509 353 l 509 370 l 491 370 l 491 401 l 475 401 l 475 419 l 458 419 l 452 427 q 437 430 445 427 q 426 433 430 433 l 426 452 l 408 452 l 403 467 l 286 467 l 286 450 l 269 444 l 269 81 l 286 81 l 293 69 q 306 67 300 69 q 319 65 312 65 l 319 49 l 414 49 l 414 31 l 448 31 l 448 9 l 438 4 l 434 -4 l 84 -4 l 77 4 q 75 5 76 4 q 71 7 73 7 l 71 31 l 79 37 q 80 49 79 45 l 103 49 l 103 64 l 151 64 l 151 81 l 183 81 l 183 907 l 167 907 l 159 917 q 155 918 156 917 q 151 920 153 920 l 151 940 l 54 940 l 46 948 q 42 949 43 948 q 38 951 41 951 l 38 977 l 46 982 q 47 987 46 985 q 49 993 49 990 l 71 993 l 71 1008 m 96 916 l 94 916 l 91 922 l 91 940 l 103 940 l 96 916 z "},"S":{"ha":757,"x_min":39,"x_max":728,"o":"m 315 1027 l 517 1027 l 517 1008 l 663 1008 l 669 998 q 678 996 670 998 l 678 880 l 696 880 l 696 875 l 678 875 l 678 830 l 696 830 l 696 792 l 678 792 l 678 760 l 669 754 q 667 749 667 751 q 666 743 666 747 l 609 743 l 609 777 l 593 777 l 593 857 l 575 857 l 575 875 l 560 875 l 560 907 l 526 907 l 519 917 q 517 918 518 917 q 513 920 515 920 l 513 940 l 448 940 l 438 955 l 288 955 l 288 940 l 240 940 l 240 922 l 229 916 q 227 907 229 913 l 208 907 l 208 890 l 190 890 l 190 873 l 180 867 q 178 855 180 861 q 176 842 176 849 l 157 842 l 157 701 l 175 701 l 175 667 l 190 667 l 190 636 l 208 636 l 208 617 l 224 617 l 229 608 q 251 605 240 608 q 273 602 262 602 l 279 591 q 300 589 289 591 q 320 586 311 586 l 327 575 q 340 573 334 575 q 353 571 346 571 l 353 552 l 418 552 l 423 543 q 462 540 442 543 q 500 537 481 537 l 507 526 q 519 524 514 526 q 532 521 525 521 l 532 505 l 566 505 l 566 487 l 597 487 l 602 477 q 613 475 605 477 l 613 456 l 631 456 l 637 445 q 646 442 640 445 l 646 425 l 663 425 l 663 406 l 678 406 l 684 396 q 693 395 689 396 l 696 395 l 696 342 l 711 342 l 711 293 l 728 293 l 728 221 l 718 214 l 718 216 q 713 198 715 206 q 711 183 712 191 q 711 172 711 175 l 701 165 q 699 154 701 159 q 697 142 697 149 l 678 142 l 678 107 l 669 100 q 668 98 669 99 q 667 95 667 96 l 646 92 l 646 75 l 636 68 q 633 58 636 66 l 613 58 l 613 42 l 602 35 q 601 31 602 33 q 600 26 600 28 l 566 26 l 566 11 l 532 11 l 532 -4 l 484 -4 l 484 -22 l 236 -22 l 236 -4 l 125 -4 l 125 -22 l 87 -22 l 87 -4 l 57 -4 l 57 26 l 39 26 l 39 227 l 57 227 l 57 262 l 65 267 q 66 277 65 273 l 110 277 l 110 241 l 125 241 l 125 195 l 142 195 l 142 146 l 157 146 l 157 114 l 175 114 l 175 96 l 190 96 l 195 87 q 210 85 203 87 q 224 83 217 83 l 224 64 l 255 64 l 260 49 l 480 49 l 480 64 l 513 64 l 513 81 l 544 81 l 544 96 l 553 102 q 555 114 553 110 l 575 114 l 575 129 l 593 129 l 593 146 l 601 152 q 603 181 601 163 q 608 212 605 199 l 625 212 l 625 289 l 609 289 l 609 336 l 593 336 l 593 370 l 575 370 l 575 387 l 559 387 l 552 395 q 549 395 549 395 q 547 396 548 396 l 544 419 l 511 419 l 505 427 l 480 431 q 463 434 472 434 l 463 452 l 412 452 l 406 460 l 381 464 q 363 467 373 467 l 363 484 l 282 484 l 275 492 l 277 492 l 258 495 q 244 498 251 496 q 235 499 237 499 l 228 507 q 214 510 221 507 q 202 513 206 513 l 202 533 l 184 533 l 178 541 q 163 544 171 541 q 152 547 156 547 l 152 564 l 119 564 l 113 572 q 109 574 110 572 q 104 575 107 575 l 104 613 l 87 613 l 87 629 l 72 629 l 72 663 l 57 663 l 57 711 l 39 711 l 39 750 l 57 750 l 57 815 l 65 821 q 68 834 65 826 q 71 846 71 842 l 80 852 q 83 867 80 859 q 85 880 85 875 l 104 880 l 104 913 l 114 918 q 115 928 114 924 l 152 928 l 152 945 l 171 945 l 171 960 l 179 966 q 180 977 179 972 l 217 977 l 217 993 l 267 993 l 267 1008 l 315 1008 l 315 1027 m 713 955 l 697 940 l 696 945 l 678 945 l 678 955 l 713 955 m 640 711 l 625 727 l 631 728 l 631 743 l 640 743 l 640 711 z "},"T":{"ha":898,"x_min":39,"x_max":872,"o":"m 72 993 l 838 993 l 845 982 q 853 981 849 982 l 856 981 l 856 945 l 872 945 l 872 727 l 863 720 q 860 707 863 713 q 857 696 857 701 l 803 696 l 803 728 l 785 728 l 785 875 l 769 875 l 762 883 q 760 884 761 883 q 757 884 758 884 l 754 907 l 705 907 l 700 924 l 564 924 l 564 907 l 514 907 l 514 888 l 499 883 l 499 552 l 514 552 l 514 547 l 499 541 l 499 439 l 514 439 l 514 433 l 499 427 l 499 227 l 514 227 l 514 172 l 505 167 l 499 114 l 514 114 l 514 81 l 548 81 l 555 69 q 574 66 564 69 q 595 64 585 64 l 601 54 q 655 52 628 54 q 711 49 682 49 l 711 31 l 726 31 l 732 20 q 742 18 734 20 l 742 9 l 731 3 q 729 -9 731 -4 q 727 -22 727 -15 l 217 -22 l 217 31 l 225 37 q 227 49 225 45 l 282 49 l 282 64 l 347 64 l 347 81 l 396 81 l 396 96 l 411 102 l 411 890 l 396 890 l 396 907 l 330 907 l 324 917 l 237 924 l 237 907 l 189 907 l 189 888 l 178 882 q 176 879 178 880 q 175 875 175 878 l 157 875 l 157 856 l 146 849 q 144 805 146 829 q 141 760 141 781 l 130 753 q 127 724 130 738 q 125 696 125 711 l 92 696 l 92 678 l 72 678 l 72 711 l 54 711 l 54 842 l 39 842 l 39 880 l 47 886 q 51 930 47 907 q 54 977 54 954 l 72 977 l 72 993 m 656 -22 l 650 -46 l 647 -46 l 647 -22 l 656 -22 z "},"U":{"ha":928,"x_min":35,"x_max":905,"o":"m 68 996 l 35 996 l 35 951 q 50 948 43 951 q 62 945 57 945 l 69 937 l 133 937 l 133 917 q 141 914 136 914 l 149 905 l 164 905 l 164 171 l 180 171 l 180 121 l 195 121 l 195 90 l 214 90 l 214 52 q 224 49 217 49 l 231 41 l 245 41 l 245 22 q 259 19 252 22 q 273 16 266 16 l 279 7 q 292 4 286 7 q 305 1 298 1 l 312 -7 l 343 -7 l 343 -24 l 582 -24 l 582 -7 l 614 -7 l 614 8 l 662 8 l 662 23 l 680 23 l 680 41 l 715 41 q 716 45 715 43 q 718 49 718 46 l 727 56 l 727 73 l 745 73 l 745 106 l 762 106 q 764 119 762 114 q 766 132 766 123 l 777 140 q 780 160 777 151 q 783 179 783 170 l 792 186 l 792 822 l 810 822 q 811 848 810 836 q 815 880 812 861 l 826 887 l 826 921 l 873 921 l 873 937 l 905 937 l 905 982 q 894 985 897 985 l 890 996 l 605 996 l 605 979 l 587 979 l 587 971 l 605 971 l 605 948 q 611 945 608 945 q 616 945 614 945 l 623 937 l 669 937 l 669 921 l 703 921 l 703 872 l 718 872 l 718 350 l 734 350 l 734 312 l 718 312 q 714 241 718 277 q 711 168 711 205 l 703 163 l 703 132 l 680 132 q 677 121 677 123 l 669 115 l 669 99 l 652 99 l 652 84 l 621 84 l 621 66 l 556 66 l 556 52 l 406 52 l 400 66 l 369 66 l 369 85 q 355 87 362 85 q 340 90 347 90 l 335 99 l 321 99 l 321 117 l 304 117 l 304 134 q 294 137 296 137 l 288 149 l 273 149 l 273 507 l 256 507 q 260 686 258 591 q 263 865 262 780 l 273 872 q 275 893 273 883 q 278 914 278 903 l 289 921 l 289 937 l 357 937 q 358 941 357 940 q 359 945 359 943 l 369 952 l 369 996 l 320 996 l 212 996 l 206 1010 l 68 1010 l 68 996 m 321 1019 l 331 1010 l 327 996 l 321 996 l 321 1019 m 392 986 l 385 979 l 385 982 q 374 985 377 985 l 373 986 l 392 986 z "},"V":{"ha":960,"x_min":38,"x_max":936,"o":"m 199 1027 l 301 1027 l 301 1008 l 385 1008 l 385 955 l 301 955 l 301 940 l 270 940 l 270 906 l 259 899 l 254 863 l 270 863 l 270 781 l 286 781 l 286 731 l 301 731 l 301 667 l 319 667 l 319 617 l 335 617 l 335 570 l 351 570 l 351 537 l 366 537 l 366 472 l 385 472 l 385 425 l 400 425 l 400 359 l 415 359 l 415 326 l 431 326 l 431 277 l 448 277 l 448 227 l 464 227 l 464 179 l 480 179 l 480 161 l 499 161 l 505 152 l 541 146 l 541 179 l 559 179 l 559 212 l 567 217 q 570 239 567 228 q 574 262 574 250 l 591 262 l 591 309 l 600 315 l 604 347 q 606 363 605 354 q 608 374 608 372 l 624 374 l 624 406 l 632 411 l 632 410 q 635 437 633 423 q 637 458 636 448 q 639 472 639 468 l 658 472 l 658 537 l 666 543 q 669 568 667 556 q 671 589 670 579 q 673 602 673 598 l 681 608 q 684 629 681 618 q 686 651 686 640 l 704 651 l 704 716 l 713 722 q 717 756 713 732 q 720 796 720 780 l 738 796 l 738 924 l 720 924 l 720 940 l 637 940 l 631 948 q 628 949 629 948 q 624 951 627 951 l 624 993 l 632 998 q 633 1008 632 1004 l 920 1008 l 925 998 q 936 996 928 998 l 936 939 l 925 932 q 924 929 925 930 q 924 926 924 928 l 888 924 l 888 907 l 854 907 l 854 873 l 845 867 q 842 845 845 856 q 840 823 840 834 l 829 817 q 826 796 829 807 q 823 776 823 785 l 812 769 q 810 749 812 761 q 807 728 807 738 l 789 728 l 789 677 l 780 670 q 777 650 780 661 q 774 628 774 639 l 762 621 q 760 600 762 610 q 757 578 757 589 l 747 571 q 745 551 747 560 q 742 533 742 543 l 731 525 q 728 504 731 514 q 726 483 726 494 l 716 476 q 713 448 716 463 q 711 419 711 433 l 692 419 l 692 369 l 682 362 q 680 340 682 351 q 677 320 677 330 l 666 313 q 663 292 666 302 q 661 270 661 281 l 650 263 q 647 235 650 248 q 644 206 644 221 l 635 199 q 632 178 635 189 q 629 157 629 167 l 612 157 l 612 107 l 602 100 l 598 76 q 596 67 597 73 q 595 57 595 61 l 585 50 q 583 38 585 43 q 581 26 581 33 l 564 26 l 564 11 l 547 11 l 547 -5 l 536 -12 q 533 -22 536 -14 l 475 -22 l 475 -4 l 460 -4 l 460 26 l 444 26 l 444 76 l 427 76 l 427 109 l 412 109 l 412 157 l 395 157 l 395 189 l 378 189 l 378 256 l 362 256 l 362 289 l 347 289 l 347 336 l 330 336 l 330 387 l 313 387 l 313 434 l 297 434 l 297 484 l 282 484 l 282 514 l 263 514 l 263 564 l 248 564 l 248 613 l 232 613 l 232 663 l 217 663 l 217 711 l 199 711 l 199 761 l 184 761 l 184 810 l 170 810 l 170 857 l 151 857 l 151 890 l 136 890 l 136 907 l 118 907 l 111 917 q 97 920 104 917 q 85 922 90 922 l 85 940 l 69 940 l 62 948 q 60 949 61 948 q 57 949 58 949 l 54 974 l 38 974 l 38 993 l 46 998 q 47 1002 47 998 q 50 1008 47 1005 l 199 1008 l 199 1027 m 407 982 l 407 979 l 401 977 l 385 977 l 385 989 l 407 982 z "},"W":{"ha":1104,"x_min":38,"x_max":1084,"o":"m 85 1008 l 254 1008 l 259 998 l 296 993 l 296 1008 l 300 1008 l 307 998 q 345 996 326 998 q 384 993 365 993 l 391 982 q 399 979 393 982 l 399 955 l 319 955 l 319 940 l 269 940 l 269 906 l 259 901 l 254 863 l 269 863 l 269 731 l 285 731 l 285 552 l 300 552 l 300 425 l 319 425 l 319 277 l 334 277 l 334 227 l 350 227 l 355 217 l 393 212 l 393 227 l 411 227 l 411 262 l 420 267 q 423 281 420 273 q 426 293 426 289 l 444 293 l 444 342 l 452 347 q 454 366 450 351 q 458 391 458 380 l 467 396 q 469 425 467 407 q 473 456 471 444 l 491 456 l 491 487 l 499 492 q 502 507 499 499 q 505 519 505 515 l 524 519 l 524 570 l 534 575 q 537 590 534 582 q 540 602 540 598 l 578 602 l 585 591 q 595 589 587 591 l 595 570 l 610 570 l 610 519 l 628 519 l 628 487 l 644 487 l 644 439 l 661 439 l 661 406 l 675 406 l 675 342 l 692 342 l 692 309 l 708 309 l 708 277 l 723 277 l 728 267 q 738 266 734 267 l 741 266 l 741 241 l 784 241 l 784 262 l 800 262 l 800 293 l 810 298 q 813 367 810 334 q 817 439 817 400 l 834 439 l 834 570 l 849 575 l 849 890 l 834 890 l 834 907 l 815 907 l 808 917 q 804 918 806 917 q 800 920 803 920 l 800 940 l 718 940 l 711 948 q 708 949 709 948 q 704 951 707 951 l 704 977 l 712 982 q 713 987 712 985 q 715 993 715 990 l 834 993 l 834 1008 l 1084 1008 l 1084 955 l 1034 955 l 1034 940 l 1000 940 l 1000 924 l 966 924 l 966 873 l 956 867 q 954 813 956 840 q 951 760 951 787 l 940 753 q 937 715 940 734 q 935 677 935 696 l 925 670 q 922 591 925 631 q 920 513 920 552 l 909 506 q 906 470 909 488 q 903 433 903 452 l 892 426 q 890 373 892 399 q 887 320 887 347 l 878 313 q 875 245 878 281 q 872 174 872 210 l 853 174 l 853 91 l 844 84 q 841 62 844 73 q 838 42 838 52 l 827 35 q 825 24 827 30 q 823 11 823 18 l 807 11 l 807 -22 l 751 -22 l 751 -4 l 734 -4 l 727 4 q 724 5 726 4 q 722 5 723 5 l 719 58 l 704 58 l 704 109 l 688 109 l 688 142 l 671 142 l 671 189 l 656 189 l 656 239 l 639 239 l 639 289 l 623 289 l 623 336 l 606 336 l 606 370 l 591 370 l 591 387 l 511 387 l 511 351 l 502 345 q 499 325 502 335 q 496 304 496 315 l 479 304 l 479 270 l 469 263 q 469 253 469 260 q 467 238 468 245 q 464 225 465 231 q 463 220 463 220 l 463 221 l 452 214 q 449 193 452 203 q 446 172 446 183 l 437 165 q 434 138 437 153 q 431 107 431 123 l 422 100 q 419 73 422 88 q 416 42 416 58 l 404 35 q 402 24 404 30 q 400 11 400 18 l 384 11 l 384 -4 l 366 -4 l 366 -22 l 328 -22 l 328 -4 l 312 -4 l 305 4 q 303 3 304 4 q 301 3 302 3 q 300 3 300 3 q 298 4 300 4 l 296 58 l 281 58 l 281 142 l 263 142 l 263 222 l 247 222 l 247 321 l 231 321 l 231 467 l 216 467 l 216 548 l 201 548 l 201 678 l 183 678 l 183 792 l 168 792 l 168 890 l 151 890 l 151 907 l 133 907 l 126 917 q 114 920 122 917 q 103 922 106 922 l 103 940 l 38 940 l 38 993 l 85 993 l 85 1008 z "},"X":{"ha":977,"x_min":38,"x_max":952,"o":"m 71 1027 l 221 1027 l 221 1008 l 366 1008 l 372 998 q 381 997 377 998 l 384 997 l 384 977 l 399 977 l 399 972 l 389 966 q 387 955 389 963 l 336 955 l 336 940 l 304 940 l 304 863 l 319 863 l 319 815 l 336 815 l 336 796 l 351 796 l 351 765 l 366 765 l 366 731 l 384 731 l 389 722 q 399 719 391 722 l 399 682 l 416 682 l 422 673 q 431 670 423 673 l 431 636 l 449 636 l 449 617 l 526 617 l 526 636 l 543 636 l 543 651 l 552 656 q 553 662 552 659 q 555 667 555 665 l 576 667 l 576 701 l 585 707 q 587 720 585 712 q 590 731 590 727 l 609 731 l 609 750 l 617 755 l 621 780 q 624 796 624 791 l 632 803 q 635 818 632 810 q 637 830 637 826 l 655 830 l 655 940 l 609 940 l 601 948 q 587 951 595 948 q 576 954 579 954 l 576 993 l 585 998 q 586 1008 585 1004 l 836 1008 l 836 1027 l 840 1027 l 840 1008 l 887 1008 l 892 998 q 902 997 898 998 l 905 997 l 905 955 l 887 955 l 887 939 l 876 932 q 876 929 876 930 q 875 926 875 928 l 807 924 l 807 906 l 798 899 q 795 890 798 898 l 774 890 l 774 873 l 764 867 q 762 862 764 864 q 761 857 761 860 l 742 857 l 742 823 l 732 817 q 731 814 732 815 q 730 810 730 812 l 708 810 l 708 776 l 699 769 q 698 766 699 768 q 697 764 697 765 l 677 761 l 677 727 l 667 720 q 665 711 667 719 l 643 711 l 643 677 l 633 670 q 632 667 633 669 q 631 663 631 666 l 612 663 l 612 628 l 601 621 q 600 618 601 620 q 600 616 600 617 l 581 613 l 581 578 l 570 571 q 568 559 570 564 q 566 548 566 555 l 549 548 l 549 505 l 564 505 l 564 472 l 581 472 l 581 439 l 595 439 l 595 406 l 612 406 l 617 396 q 628 393 620 396 l 628 359 l 643 359 l 650 347 q 654 346 652 347 q 662 345 656 345 l 662 326 l 677 326 l 677 293 l 693 293 l 693 262 l 708 262 l 708 241 l 727 241 l 727 212 l 742 212 l 749 201 q 758 198 750 201 l 758 161 l 774 161 l 774 129 l 792 129 l 798 119 q 807 117 799 119 l 807 81 l 840 81 l 846 69 q 882 66 864 69 q 920 64 901 64 l 925 54 q 935 53 930 54 l 937 53 l 937 15 l 952 15 l 952 11 l 920 11 l 920 -4 l 654 -4 l 647 4 q 635 7 643 4 q 623 9 627 9 l 616 19 q 613 20 614 19 q 609 22 612 22 l 609 64 l 639 64 l 639 81 l 671 81 l 671 174 l 655 174 l 655 222 l 639 222 l 639 239 l 624 239 l 624 289 l 609 289 l 601 297 q 599 296 600 297 q 597 296 598 296 q 595 296 595 296 q 594 297 595 297 l 591 321 l 576 321 l 576 353 l 559 353 l 559 370 l 543 370 l 543 387 l 526 387 l 526 419 l 490 419 l 484 427 l 449 434 l 449 419 l 438 411 q 435 398 438 403 q 433 387 433 393 l 416 387 l 416 370 l 399 370 l 399 335 l 389 328 q 387 316 389 321 q 385 304 385 311 l 366 304 l 366 270 l 357 263 q 355 260 357 262 q 354 256 354 259 l 336 256 l 336 221 l 324 214 q 322 201 324 208 q 320 189 320 194 l 304 189 l 304 157 l 286 157 l 286 81 l 336 81 l 343 69 q 363 66 353 69 q 384 64 373 64 l 384 24 l 372 18 q 370 15 372 16 q 369 11 369 14 l 336 11 l 336 -4 l 69 -4 l 62 4 q 60 5 61 4 q 56 7 58 7 l 56 26 l 38 26 l 38 64 l 71 64 l 71 81 l 136 81 l 136 96 l 144 102 q 145 114 144 110 l 168 114 l 168 129 l 176 134 q 178 144 176 141 l 179 146 l 201 146 l 201 179 l 209 184 q 210 190 209 187 q 212 195 212 193 l 233 195 l 233 227 l 241 232 q 244 248 241 237 q 247 262 247 258 l 266 262 l 266 277 l 275 282 q 278 296 275 289 q 281 309 281 302 l 298 309 l 298 326 l 307 331 q 308 336 307 334 q 309 342 309 339 l 332 342 l 332 374 l 340 380 q 342 385 340 382 q 343 391 343 388 l 363 391 l 363 406 l 372 411 q 374 431 372 422 q 377 456 377 441 l 388 463 q 389 467 388 464 q 391 472 391 469 l 411 472 l 411 564 l 395 564 l 395 613 l 378 613 l 378 629 l 363 629 l 363 663 l 346 663 l 339 671 q 336 673 338 671 q 332 674 335 674 l 332 696 l 313 696 l 313 728 l 297 728 l 290 736 q 288 737 289 736 q 285 738 286 738 l 282 777 l 266 777 l 266 810 l 247 810 l 240 818 q 237 819 239 818 q 233 821 236 821 l 233 857 l 216 857 l 216 890 l 201 890 l 201 907 l 182 907 l 175 917 q 172 918 174 917 q 168 920 171 920 l 168 940 l 102 940 l 95 948 q 81 951 90 948 q 71 954 73 954 l 71 1027 z "},"Y":{"ha":928,"x_min":38,"x_max":902,"o":"m 71 1027 l 156 1027 l 156 1008 l 232 1008 l 232 1027 l 286 1027 l 286 1008 l 366 1008 l 366 974 l 357 966 q 354 955 357 963 l 286 955 l 286 939 l 275 932 l 270 880 l 286 880 l 286 846 l 301 846 l 301 815 l 319 815 l 319 781 l 334 781 l 340 770 q 349 769 345 770 l 351 769 l 351 731 l 366 731 l 373 722 q 384 719 376 722 l 384 682 l 399 682 l 399 651 l 414 651 l 414 617 l 433 617 l 438 608 q 448 605 439 608 l 448 586 l 464 586 l 464 552 l 543 552 l 543 586 l 559 586 l 559 602 l 567 608 q 568 617 567 613 l 590 617 l 590 651 l 608 651 l 608 682 l 624 682 l 624 716 l 632 722 q 635 735 632 728 q 637 750 637 742 l 656 750 l 656 781 l 665 787 q 666 796 665 792 l 686 796 l 686 863 l 705 863 l 705 907 l 686 907 l 686 940 l 637 940 l 631 948 q 618 951 627 948 q 608 954 610 954 l 608 974 l 590 974 l 590 993 l 608 993 l 608 1008 l 850 1008 l 850 1027 l 872 1027 l 872 1008 l 902 1008 l 902 974 l 892 966 q 890 955 892 963 l 872 955 l 872 940 l 823 940 l 823 906 l 814 899 q 811 892 814 898 l 811 894 q 810 890 810 892 l 789 890 l 789 873 l 780 867 q 778 855 780 861 q 776 842 776 849 l 758 842 l 758 810 l 747 802 q 745 789 747 795 q 743 777 743 784 l 724 777 l 724 760 l 715 754 q 713 749 713 751 q 712 743 712 747 l 692 743 l 692 696 l 682 688 q 681 681 682 684 l 659 678 l 659 644 l 650 637 q 647 629 650 635 l 628 629 l 628 597 l 617 590 q 615 577 617 583 q 613 564 613 571 l 597 564 l 597 547 l 585 540 q 583 527 585 533 q 581 514 581 521 l 563 514 l 563 483 l 552 476 q 549 454 552 465 q 547 433 547 444 l 537 427 l 530 359 l 547 359 l 547 114 l 563 114 l 563 81 l 709 81 l 716 69 q 729 67 723 69 q 742 65 735 65 l 742 49 l 758 49 l 758 42 l 747 35 q 745 24 747 30 q 743 11 743 18 l 692 11 l 692 -4 l 685 -4 l 680 11 l 547 11 l 547 -4 l 441 -4 l 434 4 q 366 7 399 4 q 297 11 332 11 l 297 64 l 330 64 l 330 81 l 411 81 l 411 96 l 419 102 q 420 114 419 110 l 442 114 l 442 452 l 426 452 l 426 484 l 410 484 l 403 492 q 400 493 401 492 q 397 494 399 494 l 395 548 l 380 548 l 380 564 l 359 564 l 353 572 q 350 574 351 572 q 346 575 349 575 l 346 613 l 330 613 l 330 629 l 313 629 l 313 663 l 297 663 l 297 696 l 281 696 l 274 704 q 269 705 271 704 q 264 707 267 707 l 264 743 l 248 743 l 248 777 l 231 777 l 224 785 q 221 787 222 785 q 217 788 220 788 l 217 825 l 198 825 l 198 842 l 183 842 l 183 875 l 167 875 l 160 883 q 157 884 159 883 q 155 884 156 884 l 152 924 l 136 924 l 136 940 l 69 940 l 62 948 q 51 951 57 948 q 38 954 45 954 l 38 1008 l 71 1008 l 71 1027 m 270 37 l 279 43 l 297 43 l 297 31 l 270 37 m 391 982 l 391 979 l 385 977 l 366 977 l 366 989 l 391 982 z "},"Z":{"ha":819,"x_min":39,"x_max":792,"o":"m 119 1027 l 255 1027 l 255 1008 l 693 1008 l 699 998 q 713 996 707 998 q 726 994 719 994 l 726 977 l 743 977 l 743 922 l 732 916 q 730 901 732 909 q 727 890 727 894 l 711 890 l 711 875 l 693 875 l 693 841 l 684 834 q 681 825 684 833 l 661 825 l 661 810 l 651 802 q 650 795 651 798 l 629 792 l 629 760 l 621 755 l 617 743 l 595 743 l 595 727 l 586 720 q 584 708 586 713 q 582 696 582 703 l 563 696 l 563 677 l 553 670 q 552 667 553 669 q 551 663 551 666 l 533 663 l 533 629 l 515 629 l 515 612 l 505 605 q 503 591 505 598 q 500 579 500 585 l 483 579 l 483 563 l 473 556 q 473 553 473 555 q 472 551 472 552 l 448 548 l 448 513 l 438 506 q 437 503 438 505 q 435 499 435 502 l 416 499 l 416 483 l 407 476 q 405 464 407 469 q 403 452 403 458 l 384 452 l 384 433 l 374 426 q 373 423 374 425 q 372 419 372 422 l 351 419 l 351 385 l 340 378 q 340 376 340 377 q 339 373 339 374 l 319 370 l 319 335 l 309 328 q 307 316 309 321 q 305 304 305 311 l 289 304 l 289 289 l 270 289 l 270 270 l 260 263 q 258 253 260 260 q 256 239 256 245 l 239 239 l 239 221 l 228 214 q 226 201 228 208 q 224 189 224 194 l 205 189 l 205 172 l 195 165 q 193 154 195 159 q 191 142 191 149 l 172 142 l 172 81 l 205 81 l 212 64 l 510 64 l 510 81 l 608 81 l 608 96 l 642 96 l 642 114 l 650 119 q 651 129 650 125 l 673 129 l 673 146 l 682 152 q 685 167 682 159 q 688 179 688 175 l 705 179 l 705 227 l 713 232 q 716 248 713 237 q 719 262 719 258 l 776 262 l 776 227 l 792 227 l 792 142 l 781 134 q 779 91 781 114 q 776 43 776 68 l 758 43 l 758 -5 l 749 -12 q 746 -22 749 -14 l 642 -22 l 642 -4 l 126 -4 l 126 -22 l 88 -22 l 88 -4 l 53 -4 l 46 4 q 43 5 45 4 q 39 7 42 7 l 39 96 l 47 102 q 50 117 47 109 q 53 129 53 125 l 73 129 l 73 146 l 81 152 q 83 161 81 157 l 103 161 l 103 195 l 119 195 l 119 212 l 129 217 q 132 230 129 222 q 134 241 134 237 l 153 241 l 153 262 l 161 267 q 163 277 161 273 l 186 277 l 186 309 l 194 315 q 195 320 194 317 q 197 326 197 323 l 217 326 l 217 342 l 225 347 q 228 362 225 353 q 231 374 231 372 l 251 374 l 251 391 l 259 396 q 260 406 259 401 l 282 406 l 282 439 l 292 445 q 293 450 292 448 q 294 456 294 453 l 316 456 l 316 472 l 324 477 q 327 492 324 484 q 330 505 330 500 l 339 510 q 340 519 339 515 l 363 519 l 363 537 l 372 543 q 374 557 372 549 q 377 570 377 566 l 396 570 l 396 586 l 406 591 q 407 597 406 594 q 408 602 408 600 l 429 602 l 429 636 l 437 642 q 438 651 437 647 l 463 651 l 463 667 l 471 673 q 473 689 471 680 q 476 701 476 699 l 495 701 l 495 716 l 503 722 q 505 731 503 727 l 528 731 l 528 765 l 536 770 q 537 776 536 773 q 538 781 538 779 l 560 781 l 560 815 l 570 821 q 572 834 570 826 q 575 846 575 842 l 585 852 q 585 857 585 853 q 586 863 585 860 l 608 863 l 608 940 l 270 940 l 270 924 l 222 924 l 222 907 l 205 907 l 205 890 l 172 890 l 172 841 l 163 834 q 160 812 163 823 q 157 791 157 802 l 146 784 q 144 772 146 777 q 142 761 142 768 l 88 761 l 88 777 l 73 777 l 73 913 l 81 918 l 85 963 q 87 978 87 970 q 88 993 88 986 l 96 998 q 98 1008 96 1004 l 119 1008 l 119 1027 z "},"":{"ha":760,"x_min":38,"x_max":738,"o":"m 517 708 l 524 697 q 543 694 533 697 q 564 692 553 692 l 564 677 l 594 677 l 600 667 q 612 665 604 667 l 612 644 l 627 644 l 632 635 q 640 633 637 635 l 640 614 l 658 614 l 658 582 l 673 582 l 673 502 l 690 502 l 690 498 l 678 491 q 676 479 678 484 q 674 467 674 473 l 658 467 l 658 450 l 609 450 l 601 460 q 587 463 595 460 q 576 465 579 465 l 576 499 l 559 499 l 559 594 l 544 594 l 537 602 q 534 603 536 602 q 532 604 533 604 l 529 627 l 479 627 l 473 642 l 324 642 l 324 627 l 294 627 l 294 609 l 262 609 l 262 593 l 252 586 q 252 583 252 585 q 251 581 251 582 l 229 578 l 229 563 l 216 563 l 216 545 l 203 540 q 201 535 202 537 q 201 529 201 533 l 183 529 l 183 499 l 172 491 q 170 469 172 483 l 165 450 l 152 450 l 152 247 l 165 247 l 165 201 l 183 201 l 183 187 l 198 187 l 198 153 l 216 153 l 222 142 q 229 141 227 142 l 229 121 l 262 121 l 269 110 q 281 108 275 110 q 294 106 288 106 l 300 96 l 298 96 q 331 92 316 94 q 357 90 345 91 q 376 90 369 90 l 382 73 l 496 73 l 496 90 l 591 90 l 591 104 l 623 104 l 623 121 l 669 121 l 669 137 l 724 137 l 731 126 q 738 125 735 126 l 738 102 l 724 102 l 724 84 l 711 77 q 710 75 711 76 q 709 72 709 73 l 673 69 l 673 54 l 627 54 l 627 38 l 594 38 l 594 23 l 517 23 l 517 5 l 468 5 l 468 -9 l 458 -9 l 476 -72 l 471 -73 l 496 -167 l 488 -168 q 488 -175 488 -170 q 490 -184 488 -180 l 479 -186 q 479 -193 479 -187 q 480 -202 479 -198 l 449 -209 l 446 -199 q 432 -203 439 -201 q 418 -206 425 -205 l 404 -155 l 393 -159 l 353 -9 l 305 -9 l 298 -1 l 300 -1 q 275 1 288 0 q 255 4 264 3 q 243 5 245 5 l 243 23 l 193 23 l 186 31 q 182 32 183 31 q 180 33 182 33 l 180 54 l 164 54 l 164 69 l 148 69 l 148 85 l 134 85 l 126 94 q 124 93 125 94 q 122 92 123 92 q 121 93 121 92 q 119 94 121 94 l 117 118 l 102 118 l 102 149 l 84 149 l 84 183 l 69 183 l 69 229 l 52 229 l 52 275 l 38 275 l 38 359 l 52 359 l 52 454 l 69 454 l 69 484 l 77 491 q 80 505 77 496 q 83 517 83 513 l 102 517 l 102 549 l 110 555 q 111 560 110 557 q 113 566 113 563 l 134 566 l 134 582 l 148 582 l 148 598 l 164 598 l 164 614 l 174 620 q 175 629 174 625 l 194 629 l 194 644 l 227 644 l 227 662 l 243 662 l 243 677 l 290 677 l 290 692 l 339 692 l 339 708 l 517 708 m 506 -186 l 517 -195 q 494 -191 498 -194 q 490 -184 490 -187 l 500 -183 l 496 -167 l 517 -165 l 506 -186 m 450 -232 l 429 -214 l 449 -209 l 450 -232 m 499 -72 l 481 -91 l 476 -72 l 499 -72 m 486 -9 l 468 -28 l 468 -9 l 486 -9 z "},"":{"ha":792,"x_min":39,"x_max":764,"o":"m 514 994 l 521 983 q 556 981 538 983 q 593 978 574 978 l 598 968 q 665 965 631 968 q 734 962 699 962 l 734 948 l 747 948 l 747 917 l 764 917 l 764 911 l 747 906 l 747 727 l 764 727 l 764 722 l 753 715 q 751 712 753 713 q 750 708 750 711 l 734 708 l 734 693 l 696 693 l 689 701 q 686 702 686 701 q 684 703 685 703 l 684 739 l 666 739 l 666 819 l 651 819 l 651 849 l 633 849 l 627 857 q 624 859 625 857 l 621 882 l 602 882 l 595 890 q 583 892 591 890 q 572 895 575 895 l 572 913 l 357 913 l 357 897 l 326 897 l 326 882 l 294 882 l 294 865 l 283 857 q 282 853 283 854 q 281 849 281 852 l 262 849 l 262 833 l 251 826 q 249 813 251 819 q 247 800 247 807 l 237 793 q 236 791 237 792 q 235 787 235 789 l 214 787 l 214 755 l 205 749 q 202 728 205 738 q 199 708 199 718 l 186 708 l 186 644 l 175 637 q 172 570 175 604 q 168 503 168 536 l 159 498 l 153 430 l 168 430 l 168 304 l 186 304 l 186 241 l 199 241 l 199 194 l 214 194 l 221 183 q 232 180 224 183 l 232 148 l 245 148 l 252 137 q 259 134 254 137 l 258 134 q 262 133 259 133 l 262 115 l 277 115 l 283 104 q 296 102 290 104 q 309 100 302 100 l 315 91 q 328 89 321 91 q 340 87 334 87 l 340 68 l 372 68 l 377 53 l 541 53 l 541 68 l 572 68 l 572 85 l 604 85 l 604 99 l 621 99 l 621 115 l 635 115 l 635 148 l 651 148 l 651 161 l 659 167 l 659 165 q 662 191 661 179 q 665 212 663 202 q 666 225 666 221 l 684 225 l 684 273 l 697 273 l 697 289 l 705 294 q 708 304 705 298 l 734 304 l 734 289 l 764 289 l 764 111 l 753 104 q 752 102 753 103 q 751 99 751 100 l 734 96 l 734 79 l 722 72 q 721 69 722 71 q 720 66 720 68 l 685 64 l 685 47 l 675 41 q 674 35 675 38 l 639 35 l 639 18 l 606 18 l 606 3 l 544 3 l 544 -14 l 526 -14 l 552 -114 l 547 -115 l 562 -172 q 568 -197 564 -184 q 574 -221 571 -209 l 564 -222 q 565 -230 564 -225 q 566 -237 566 -235 l 555 -239 q 556 -247 555 -241 q 559 -256 557 -252 l 519 -269 l 519 -256 q 505 -260 513 -258 q 491 -263 498 -262 l 477 -206 l 464 -210 l 416 -14 l 336 -14 l 336 3 l 289 3 l 282 11 q 269 14 275 11 q 259 16 263 16 l 259 35 l 228 35 l 228 49 l 212 49 l 205 57 q 202 58 203 57 q 199 58 201 58 l 197 80 l 180 80 l 174 90 q 172 89 172 90 q 170 88 171 88 q 168 89 168 88 q 167 90 168 90 l 164 113 l 151 113 l 151 144 l 133 144 l 126 152 q 123 153 125 152 q 119 155 122 155 l 119 175 l 102 175 l 102 221 l 87 221 l 87 255 l 71 255 l 71 300 l 56 300 l 56 380 l 39 380 l 39 570 l 56 570 l 56 632 l 71 632 l 71 680 l 87 680 l 87 727 l 95 732 q 98 747 95 738 q 100 760 100 755 l 119 760 l 119 791 l 127 796 q 127 801 127 798 q 129 807 127 804 l 151 807 l 151 837 l 164 837 l 164 853 l 182 853 l 182 869 l 190 875 q 191 880 190 878 q 193 886 193 883 l 213 886 l 213 899 l 228 899 l 228 917 l 236 922 q 237 932 236 928 l 273 932 l 273 948 l 290 948 l 290 962 l 321 962 l 321 978 l 368 978 l 368 994 l 514 994 m 575 -113 l 514 -132 l 552 -114 l 575 -113 m 585 -236 l 567 -256 q 567 -245 567 -251 q 566 -237 567 -240 l 585 -236 z "},"":{"ha":928,"x_min":35,"x_max":910,"o":"m 248 947 l 380 947 l 387 930 l 631 930 l 631 947 l 727 947 l 734 936 q 743 933 735 936 l 743 916 l 758 916 l 758 863 l 749 856 q 747 844 749 850 q 745 831 745 838 l 680 831 l 680 815 l 220 815 l 220 831 l 201 831 l 194 840 q 191 841 193 840 q 187 842 190 842 l 187 916 l 195 921 q 197 930 195 926 l 248 930 l 248 947 m 511 703 l 625 703 l 632 692 q 642 689 633 692 l 642 671 l 671 671 l 678 661 q 691 659 685 661 q 704 656 697 656 l 704 639 l 720 639 l 720 625 l 735 625 l 742 614 q 751 612 743 614 l 751 576 l 769 576 l 769 528 l 785 528 l 785 84 l 800 84 l 807 73 q 844 71 826 73 q 880 68 861 68 l 887 58 q 899 56 892 58 q 910 53 905 53 l 910 0 l 880 0 l 880 -15 l 780 -15 l 773 -7 q 696 -3 732 -7 q 623 0 659 0 l 623 35 l 639 35 l 639 52 l 654 52 l 654 68 l 670 68 l 670 84 l 678 90 q 682 179 678 132 q 685 274 685 227 l 700 274 l 700 444 l 685 444 l 685 524 l 670 524 l 670 557 l 654 557 l 654 571 l 639 571 l 639 589 l 621 589 l 614 597 q 602 600 610 597 q 590 602 593 602 l 590 621 l 453 621 l 453 604 l 420 604 l 420 589 l 373 589 l 373 571 l 340 571 l 340 557 l 293 557 l 293 522 l 282 515 q 279 448 282 481 q 277 381 277 415 l 260 374 l 260 179 l 277 179 l 277 84 l 293 84 l 300 73 q 336 71 317 73 q 373 68 354 68 l 378 58 q 391 56 385 58 q 404 53 397 53 l 404 35 l 420 35 l 420 16 l 404 16 l 404 0 l 132 0 l 132 16 l 114 16 l 110 22 l 115 22 l 115 52 l 132 52 l 132 68 l 163 68 l 163 84 l 179 90 l 179 589 l 161 589 l 155 597 q 105 600 130 597 q 50 604 80 604 l 50 621 l 35 621 l 35 639 l 43 644 q 43 649 43 646 q 45 655 43 652 l 83 655 l 83 671 l 163 671 l 163 685 l 229 685 l 229 671 l 245 671 l 252 661 q 260 659 258 661 l 260 625 l 351 625 l 351 639 l 368 639 l 368 655 l 400 655 l 400 671 l 464 671 l 464 685 l 511 685 l 511 703 m 587 22 l 604 33 l 623 33 l 623 22 l 587 22 m 100 39 l 100 22 q 104 26 103 27 q 109 24 106 24 l 109 22 l 81 22 l 100 39 m 420 33 l 442 22 l 442 23 l 420 22 l 420 33 z "},"":{"ha":898,"x_min":27,"x_max":872,"o":"m 233 1218 l 363 1218 l 370 1202 l 612 1202 l 612 1218 l 707 1218 l 713 1207 q 723 1204 715 1207 l 723 1185 l 738 1185 l 738 1137 l 728 1128 q 726 1117 728 1123 q 724 1105 724 1111 l 661 1105 l 661 1089 l 205 1089 l 205 1105 l 187 1105 l 187 1119 l 172 1119 l 172 1185 l 180 1192 q 182 1202 180 1198 l 233 1202 l 233 1218 m 54 994 l 121 994 l 127 983 q 193 981 159 983 q 262 978 227 978 l 267 968 q 275 966 270 968 l 274 966 q 278 964 275 964 l 278 932 l 292 932 l 292 899 l 309 899 l 309 869 l 324 869 l 330 860 q 340 857 332 860 l 340 807 l 354 807 l 354 774 l 370 774 l 376 765 q 387 762 378 765 l 387 727 l 400 727 l 400 696 l 418 696 l 418 665 l 433 665 l 433 632 l 449 632 l 454 623 q 464 620 456 623 l 464 601 l 483 601 l 483 570 l 496 570 l 496 538 l 513 538 l 513 507 l 529 507 l 534 498 q 545 495 537 498 l 545 460 l 559 460 l 559 446 l 575 446 l 575 415 l 591 415 l 591 384 l 605 384 l 612 373 q 621 370 613 373 l 621 351 l 637 351 l 637 320 l 669 320 l 675 309 l 713 304 l 713 723 l 697 723 l 697 849 l 681 849 l 681 882 l 663 882 l 656 890 l 658 890 l 633 892 q 615 895 624 894 q 604 897 606 897 l 604 913 l 572 913 l 572 928 l 541 928 l 541 962 l 549 968 q 551 978 549 974 l 856 978 l 863 968 q 867 967 864 970 q 872 964 869 964 l 872 926 l 863 920 q 861 913 863 917 l 825 913 l 825 897 l 793 897 l 793 818 l 784 812 l 779 741 l 793 741 l 793 693 l 779 685 l 779 351 l 793 351 l 793 16 l 784 9 q 783 7 784 8 q 781 3 781 5 l 749 3 l 749 -14 l 727 -14 l 727 3 l 712 3 l 705 11 q 703 12 704 11 q 700 12 701 12 l 697 35 l 681 35 l 681 64 l 665 64 l 665 96 l 650 96 l 650 126 l 632 126 l 632 159 l 618 159 l 618 189 l 604 189 l 604 221 l 587 221 l 587 271 l 572 271 l 572 285 l 556 285 l 556 331 l 541 331 l 541 347 l 524 347 l 524 380 l 509 380 l 502 388 q 499 389 500 388 q 496 389 498 389 l 494 426 l 479 426 l 479 457 l 460 457 l 460 488 l 445 488 l 445 505 l 429 505 l 429 536 l 414 536 l 414 566 l 397 566 l 397 598 l 382 598 l 382 614 l 369 614 l 369 646 l 351 646 l 351 677 l 336 677 l 336 708 l 319 708 l 312 716 q 308 717 309 716 q 305 718 307 718 l 305 757 l 274 757 l 274 770 l 229 770 l 229 738 l 214 732 l 214 289 l 229 289 l 229 148 l 245 148 l 245 115 l 262 115 l 269 104 q 288 102 278 104 q 309 99 298 99 l 309 85 l 370 85 l 377 73 q 387 71 378 73 l 387 53 l 400 53 l 400 18 l 309 18 l 309 3 l 87 3 l 79 11 q 65 14 73 11 q 54 16 57 16 l 54 53 l 71 53 l 71 68 l 79 73 q 80 79 79 76 q 81 85 81 83 l 103 85 l 103 99 l 117 99 l 117 115 l 149 115 l 149 897 l 133 897 l 133 913 l 54 913 l 54 928 l 39 928 l 39 978 l 47 983 l 54 994 m 27 42 l 54 49 l 54 37 l 27 42 z "},"":{"ha":288,"x_min":23,"x_max":248,"o":"m 172 765 l 136 765 l 136 781 l 121 781 l 114 789 q 111 790 113 789 q 109 791 110 791 l 106 814 l 90 814 l 90 827 l 73 827 l 73 844 l 60 844 l 60 926 l 73 926 l 73 940 l 90 940 l 90 956 l 122 956 l 122 972 l 168 972 l 168 989 l 172 989 l 179 978 q 191 976 186 978 q 202 974 195 974 l 202 956 l 218 956 l 225 945 q 235 943 227 945 l 235 926 l 248 926 l 248 827 l 235 827 l 235 812 l 224 806 q 221 796 224 804 l 202 796 l 202 781 l 172 781 l 172 765 m 23 863 l 41 876 l 60 876 l 60 863 l 23 863 m 186 -98 l 121 -98 l 114 -90 q 102 -87 109 -90 q 90 -84 96 -84 l 90 -65 l 73 -65 l 73 -35 l 60 -35 l 60 12 l 43 12 l 43 15 l 60 15 l 60 125 l 73 125 l 73 233 l 90 233 l 90 361 l 99 366 q 102 503 99 435 q 106 644 106 571 l 122 644 l 122 690 l 152 690 l 152 705 l 156 705 l 161 696 q 172 693 164 696 l 172 673 l 186 673 l 186 595 l 202 595 l 202 297 l 218 297 l 218 172 l 235 172 l 235 125 l 248 125 l 248 -4 l 235 -4 l 235 -53 l 224 -60 q 222 -65 224 -62 l 202 -65 l 202 -81 l 193 -88 l 186 -98 z "},"!":{"ha":288,"x_min":42,"x_max":255,"o":"m 119 201 l 156 201 l 163 189 q 170 187 167 189 l 170 168 l 186 168 l 193 157 q 201 155 195 157 l 201 137 l 218 137 l 225 125 q 232 123 229 125 l 232 39 l 218 39 l 218 22 l 206 15 q 205 12 206 14 q 205 9 205 11 l 170 7 l 170 -7 l 123 -7 l 123 -23 l 118 -24 l 119 -7 l 88 -7 l 88 7 l 73 7 l 73 23 l 56 23 l 49 33 q 45 33 46 33 q 42 34 43 34 l 42 137 l 57 137 l 57 152 l 73 152 l 73 168 l 81 174 q 83 183 81 179 l 119 183 l 119 201 m 255 95 l 255 92 l 250 90 l 232 90 l 232 102 l 255 95 m 106 1061 l 170 1061 l 170 1047 l 201 1047 l 208 1036 q 218 1034 210 1036 l 218 998 l 232 998 l 232 952 l 248 952 l 248 947 l 237 940 q 235 891 237 916 q 232 840 232 867 l 218 840 l 218 728 l 206 722 q 203 662 206 690 q 201 602 201 633 l 191 595 q 189 460 191 528 q 186 320 186 392 l 175 313 q 172 294 175 304 q 170 275 170 283 l 138 275 l 138 260 l 134 259 l 127 269 q 125 269 126 269 q 122 270 123 270 l 119 292 l 106 292 l 106 370 l 88 370 l 88 666 l 73 666 l 73 791 l 57 791 l 57 840 l 42 840 l 42 970 l 57 970 l 57 1015 l 73 1015 l 73 1031 l 81 1036 q 83 1042 81 1039 q 84 1047 84 1044 l 106 1047 l 106 1061 z "},"":{"ha":374,"x_min":38,"x_max":335,"o":"m 66 1206 l 45 1195 l 49 1187 l 42 1180 l 71 1135 l 77 1141 l 84 1130 l 92 1135 l 96 1124 l 312 1252 l 305 1264 l 334 1280 l 324 1297 l 330 1302 l 311 1340 l 302 1335 l 297 1343 q 289 1339 293 1339 l 282 1348 l 244 1325 q 246 1320 244 1324 q 250 1314 248 1316 l 126 1251 l 115 1253 q 85 1232 98 1240 q 60 1217 73 1223 l 58 1215 l 66 1206 m 100 1115 l 85 1120 q 81 1123 83 1122 q 76 1126 79 1124 q 84 1130 80 1126 l 88 1120 q 96 1124 92 1120 l 100 1115 m 305 1348 l 297 1343 l 293 1352 l 294 1352 l 305 1348 m 279 1358 l 292 1352 l 283 1348 l 279 1358 m 52 1214 l 56 1226 l 60 1217 l 58 1215 l 52 1214 m 335 1308 q 334 1304 335 1306 q 332 1299 332 1302 q 330 1303 330 1302 l 335 1308 m 41 1184 l 42 1180 l 38 1177 l 41 1184 m 292 1352 l 293 1354 l 292 1352 z "},"`":{"ha":374,"x_min":45,"x_max":339,"o":"m 311 1211 l 332 1198 l 330 1192 q 334 1187 331 1191 q 338 1184 336 1184 l 311 1139 l 301 1143 l 296 1134 l 286 1138 l 281 1124 l 69 1256 l 69 1270 q 57 1277 64 1272 q 45 1284 50 1282 l 56 1301 l 49 1306 l 69 1341 l 77 1337 l 83 1347 l 91 1343 q 96 1355 94 1352 l 136 1329 l 136 1316 q 195 1280 164 1297 q 255 1244 227 1263 l 260 1256 l 319 1221 l 311 1211 m 293 1124 q 297 1134 293 1130 l 302 1128 l 293 1124 m 61 1345 l 73 1348 l 69 1341 l 61 1345 m 305 1130 q 304 1128 304 1128 l 308 1137 q 316 1135 313 1137 l 305 1130 m 338 1203 q 338 1198 339 1199 q 339 1194 338 1196 q 332 1196 335 1194 l 338 1203 m 85 1355 l 83 1347 l 77 1350 l 85 1355 m 73 1348 l 75 1351 l 73 1348 m 305 1130 l 307 1127 l 305 1130 z "},"^":{"ha":331,"x_min":43,"x_max":296,"o":"m 156 1326 l 141 1333 l 47 1175 q 56 1171 49 1171 l 43 1146 l 54 1138 l 53 1134 l 72 1123 l 72 1137 l 87 1120 l 88 1122 l 88 1120 l 94 1126 l 96 1123 l 111 1150 q 104 1154 107 1154 l 168 1261 l 231 1153 l 224 1149 l 239 1123 q 241 1124 240 1124 q 243 1126 243 1124 l 244 1119 l 263 1137 l 263 1123 q 283 1135 273 1127 l 292 1145 q 284 1158 289 1150 q 277 1171 279 1165 l 286 1175 l 288 1175 l 193 1336 l 179 1326 l 178 1335 l 168 1328 q 165 1326 165 1326 l 156 1332 l 156 1326 m 171 1347 l 172 1345 l 175 1348 l 190 1339 l 178 1332 l 178 1341 l 168 1335 l 167 1329 l 165 1336 l 157 1339 l 157 1335 l 145 1337 l 159 1347 l 160 1344 q 163 1350 160 1347 l 171 1347 m 266 1107 l 251 1116 l 241 1116 l 245 1120 l 252 1116 l 263 1123 l 266 1107 m 296 1179 l 292 1166 l 286 1173 l 288 1175 l 296 1179 m 217 1157 l 222 1149 q 217 1147 220 1147 q 213 1145 214 1146 l 217 1157 m 96 1116 l 92 1116 l 95 1119 q 96 1121 96 1120 q 98 1123 96 1122 l 103 1119 l 96 1116 m 92 1116 l 83 1116 q 87 1120 83 1116 l 88 1120 l 92 1116 m 136 1336 l 144 1337 q 141 1333 141 1335 l 136 1336 m 103 1119 l 107 1118 l 107 1120 l 103 1119 m 49 1138 l 53 1135 l 53 1133 l 49 1138 m 96 1116 l 96 1114 l 96 1116 m 144 1337 l 145 1337 l 144 1337 z "},"":{"ha":572,"x_min":38,"x_max":543,"o":"m 38 1251 l 38 1176 l 54 1176 l 54 1162 l 69 1162 l 69 1130 l 159 1130 q 159 1134 159 1133 q 160 1137 160 1135 l 174 1146 l 174 1176 l 187 1176 l 187 1251 l 174 1251 l 174 1268 q 168 1270 171 1268 q 160 1271 164 1271 l 156 1282 l 69 1282 l 69 1265 l 54 1265 l 54 1251 l 38 1251 m 111 1111 l 110 1130 l 117 1130 l 111 1111 m 114 1295 q 118 1293 117 1293 l 118 1282 l 110 1282 l 114 1295 m 395 1234 l 395 1208 l 411 1208 l 411 1162 l 425 1162 l 425 1130 l 457 1130 l 457 1114 l 496 1114 l 496 1130 l 515 1130 q 516 1134 515 1133 q 517 1137 517 1135 l 529 1146 l 529 1162 l 543 1162 l 543 1251 l 529 1251 l 529 1268 q 517 1271 521 1271 l 513 1282 l 441 1282 l 441 1268 l 411 1255 l 411 1234 l 395 1234 m 465 1303 l 475 1293 q 474 1287 475 1290 q 473 1282 473 1284 l 465 1282 l 465 1303 z "},".":{"ha":320,"x_min":39,"x_max":285,"o":"m 220 106 l 99 106 q 96 95 96 98 l 88 90 l 88 73 l 68 73 q 67 71 68 72 q 66 68 66 69 l 66 69 q 65 64 65 68 l 57 58 l 57 -4 l 39 -4 l 39 -12 l 57 -12 l 57 -45 l 72 -45 l 72 -58 l 88 -58 l 88 -76 q 101 -79 95 -76 q 114 -81 107 -81 l 121 -91 l 167 -91 l 167 -107 l 191 -107 q 195 -98 195 -98 l 206 -91 l 206 -75 l 222 -75 q 227 -65 227 -65 l 237 -58 l 237 -45 l 254 -45 q 258 -35 258 -35 l 269 -27 l 269 43 l 252 43 l 252 73 l 237 73 l 237 94 q 225 96 229 96 l 220 106 m 167 106 l 157 106 l 157 129 l 168 119 l 167 106 m 285 12 l 269 11 l 269 18 l 285 12 z "},":":{"ha":258,"x_min":30,"x_max":225,"o":"m 104 100 l 123 100 l 130 90 q 150 87 140 90 q 170 84 160 84 l 170 69 l 202 69 l 202 38 l 218 38 l 218 1 l 208 -5 q 206 -8 208 -7 q 205 -12 205 -9 l 186 -12 l 186 -31 l 175 -38 q 174 -43 175 -41 l 88 -43 l 88 -30 l 75 -30 l 75 -12 l 58 -12 l 58 53 l 75 53 l 75 84 l 104 84 l 104 100 m 30 28 l 42 34 l 58 34 l 58 20 l 30 28 m 88 540 l 156 540 l 163 529 q 170 528 167 529 l 170 507 l 202 507 l 202 426 l 191 419 q 189 410 191 418 l 156 410 l 156 395 l 87 395 l 80 403 q 77 404 77 403 q 75 404 76 404 l 75 427 l 58 427 l 58 507 l 75 507 l 58 522 l 88 522 l 88 540 m 30 467 l 42 473 l 58 473 l 58 460 l 30 467 m 202 473 l 225 460 l 225 463 l 220 460 l 202 460 l 202 473 z "},",":{"ha":288,"x_min":30,"x_max":248,"o":"m 151 119 l 170 119 l 176 109 q 186 106 178 109 l 186 88 l 218 88 l 225 76 q 232 75 229 76 l 232 41 l 248 41 l 248 -106 l 237 -113 q 235 -124 237 -119 q 233 -136 233 -129 l 224 -144 q 222 -151 224 -148 l 201 -151 l 201 -168 l 191 -175 q 190 -178 191 -176 q 189 -182 189 -179 l 170 -182 l 170 -199 l 156 -199 l 156 -214 l 144 -221 q 142 -224 144 -222 q 141 -228 141 -225 l 123 -228 l 123 -244 l 113 -254 q 111 -258 113 -256 q 110 -262 110 -259 l 57 -262 l 57 -210 l 73 -210 l 73 -194 l 81 -189 q 84 -176 81 -183 q 87 -164 87 -168 l 106 -164 l 106 -148 l 119 -148 l 119 -132 l 127 -126 l 134 -42 l 119 -42 l 119 -24 l 106 -24 l 98 -16 q 96 -17 96 -16 q 94 -18 95 -18 q 92 -17 92 -18 q 91 -16 92 -16 l 88 37 l 73 37 l 73 41 l 81 46 q 84 67 81 57 q 87 88 87 77 l 119 88 l 119 103 l 151 103 l 151 119 m 30 -235 l 39 -228 l 57 -228 l 57 -240 l 30 -235 m 81 -286 l 79 -286 l 79 -262 l 88 -262 l 81 -286 z "},";":{"ha":313,"x_min":42,"x_max":274,"o":"m 119 106 l 115 102 l 117 100 q 144 117 144 100 l 145 119 l 161 119 l 161 123 l 164 123 l 163 119 l 164 118 l 170 118 l 164 118 l 164 103 l 209 103 q 213 94 209 100 q 222 82 217 88 q 233 71 228 76 q 241 65 239 66 q 241 63 241 64 q 240 61 240 62 q 256 39 240 43 l 256 16 q 255 9 255 14 q 260 -1 255 3 q 270 -7 264 -5 l 271 -69 l 274 -69 l 271 -75 l 273 -80 l 270 -80 q 269 -77 269 -79 l 269 -79 l 269 -76 l 269 -73 q 256 -85 259 -77 l 259 -85 l 256 -90 q 257 -92 256 -91 q 258 -94 258 -92 l 255 -94 l 255 -88 q 243 -94 245 -90 q 241 -107 241 -99 l 241 -117 l 243 -119 l 241 -118 l 243 -123 l 240 -123 l 240 -119 q 228 -132 228 -119 l 228 -136 q 214 -141 217 -136 q 210 -156 210 -146 l 212 -175 l 209 -175 l 209 -170 q 210 -167 209 -168 q 194 -176 202 -167 l 194 -182 q 180 -198 180 -182 l 180 -203 l 178 -203 q 180 -198 178 -201 q 158 -212 170 -199 q 146 -229 146 -225 l 148 -239 l 145 -239 l 145 -232 q 146 -229 145 -231 q 135 -234 138 -229 q 129 -244 132 -239 l 122 -244 q 106 -250 111 -244 q 100 -264 100 -256 q 103 -273 100 -267 q 106 -277 104 -275 l 103 -278 l 99 -270 l 99 -266 q 100 -264 99 -264 q 98 -264 99 -264 q 95 -263 96 -263 l 83 -263 q 83 -265 83 -264 q 84 -269 84 -266 l 80 -277 l 77 -275 q 83 -263 83 -270 l 79 -263 l 79 -260 q 83 -262 81 -260 q 68 -244 80 -244 l 71 -210 q 83 -195 83 -198 l 98 -195 l 98 -179 q 104 -175 96 -179 q 121 -163 111 -171 q 138 -147 130 -156 q 145 -130 145 -138 l 144 -111 l 146 -111 l 146 -114 l 146 -115 q 159 -99 159 -111 l 157 -77 q 158 -75 157 -76 q 159 -73 159 -75 q 144 -53 159 -61 l 144 -42 q 132 -47 133 -42 l 130 -46 l 130 -47 l 130 -46 l 129 -45 q 114 -27 125 -27 q 115 -33 115 -28 l 113 -33 l 114 -27 l 111 -27 l 111 -24 q 114 -26 111 -24 q 98 -9 111 -11 l 98 15 q 99 20 99 16 q 98 30 99 27 l 98 88 l 100 91 q 99 88 100 88 q 111 100 110 91 l 111 103 l 119 106 m 43 476 q 52 472 47 472 l 57 519 l 68 532 l 79 532 q 98 548 94 532 q 110 556 110 553 q 107 563 110 557 l 121 563 l 123 576 l 160 576 q 159 582 159 576 l 161 582 l 161 576 l 168 575 l 161 575 l 161 562 l 202 562 q 213 541 202 551 q 231 532 224 532 l 232 530 q 239 519 233 525 l 244 420 l 241 420 l 241 423 l 239 423 l 239 425 l 224 407 q 216 395 216 399 l 216 391 l 213 391 l 213 393 l 214 395 q 202 382 202 393 q 210 384 203 384 l 220 380 l 218 377 q 211 382 213 381 q 206 382 209 382 q 202 378 203 382 l 199 380 q 192 374 194 378 q 189 366 190 370 l 163 365 l 151 366 q 138 361 141 366 q 132 350 134 355 l 134 351 q 137 343 134 349 q 140 339 138 340 l 137 338 l 133 346 q 132 350 133 349 q 123 351 130 351 q 126 345 126 349 l 123 345 l 122 351 l 119 350 l 119 353 q 123 351 122 353 q 119 361 122 355 q 109 366 115 366 q 103 366 106 366 q 96 365 100 365 q 84 381 94 376 l 98 395 l 66 395 l 68 397 l 68 395 q 71 406 71 400 q 57 427 71 423 l 58 438 q 42 454 58 450 l 42 475 q 43 476 43 475 m 81 24 q 82 27 81 26 q 83 31 83 28 q 82 34 83 33 q 81 37 81 35 l 83 37 q 91 35 87 37 q 98 30 95 33 l 98 23 l 81 24 m 256 49 l 274 43 q 260 39 269 39 l 256 39 l 256 49 m 56 -210 l 56 -208 q 61 -209 57 -209 q 68 -206 65 -209 l 71 -209 q 61 -212 68 -212 l 56 -210 m 197 366 l 190 358 q 189 362 190 361 q 189 366 189 363 l 197 366 m 95 553 q 90 545 99 545 l 90 548 l 96 548 q 96 549 96 549 q 95 551 95 549 l 95 553 m 221 548 l 221 545 q 214 548 216 545 l 221 548 m 85 -176 l 87 -174 l 94 -179 l 92 -179 l 85 -176 m 209 562 l 209 559 q 203 562 203 559 l 209 562 m 205 572 l 208 571 q 202 564 202 566 l 202 567 l 205 572 m 61 -244 l 64 -244 l 66 -252 l 61 -244 m 80 -194 q 81 -196 83 -194 q 79 -198 80 -198 l 81 -194 l 80 -194 m 232 411 q 228 406 227 406 l 228 407 l 228 408 q 229 410 228 410 q 232 411 231 410 m 233 532 l 232 530 l 231 532 l 231 537 l 233 532 m 240 76 q 241 72 241 75 q 240 76 240 72 m 98 -180 q 94 -179 95 -180 q 98 -180 96 -176 m 213 100 q 209 103 210 100 l 213 100 m 81 24 q 77 22 79 22 l 81 24 m 91 -9 l 95 -9 l 95 -12 l 91 -9 m 227 91 l 227 92 l 228 90 l 227 91 m 243 68 l 244 69 q 241 72 241 69 l 243 68 m 129 -146 l 130 -144 l 129 -146 m 43 476 q 42 477 42 476 l 43 476 m 84 380 q 81 381 81 380 l 81 382 l 84 380 m 57 519 q 56 517 57 518 l 57 518 l 57 519 m 208 103 l 209 104 l 208 103 m 208 562 l 202 563 l 208 562 z "},"":{"ha":578,"x_min":41,"x_max":545,"o":"m 244 -98 l 244 -84 l 182 -84 l 182 -66 l 164 -66 l 157 -58 q 146 -56 153 -58 q 136 -53 138 -53 l 136 -35 l 119 -35 l 111 -26 q 107 -24 109 -26 q 103 -23 106 -23 l 103 -5 l 87 -5 l 87 11 l 71 11 l 64 19 q 62 18 62 19 q 60 18 61 18 q 58 18 58 18 q 57 19 58 19 l 54 73 l 41 73 l 41 172 l 54 172 l 54 218 l 72 218 l 72 252 l 80 258 q 83 271 80 263 q 85 282 85 278 l 103 282 l 103 297 l 111 304 q 113 309 111 307 q 114 315 114 312 l 136 315 l 136 328 l 149 328 l 149 345 l 165 345 l 165 361 l 175 366 q 176 372 175 369 q 178 377 178 374 l 195 377 l 195 408 l 212 408 l 212 423 l 220 429 q 221 438 220 434 l 244 438 l 244 469 l 258 469 l 258 500 l 274 500 l 274 612 l 282 617 l 285 625 l 342 625 l 342 612 l 357 612 l 357 544 l 347 537 q 345 515 347 526 q 342 495 342 505 l 330 488 q 328 476 330 483 q 326 464 326 469 l 316 457 q 315 454 316 456 q 313 450 313 453 l 294 450 l 294 420 l 285 412 q 282 400 285 406 q 279 388 279 395 l 247 388 l 247 354 l 236 347 q 235 342 236 345 l 216 342 l 216 324 l 205 317 q 203 306 205 312 q 201 293 201 300 l 184 293 l 184 262 l 174 255 q 171 241 174 248 q 168 228 168 235 l 153 222 l 153 77 l 167 77 l 167 30 l 184 30 l 184 -1 l 216 -1 l 221 -16 l 384 -16 l 384 -1 l 403 -1 l 403 15 l 416 15 l 416 46 l 425 52 q 428 110 425 79 q 431 172 431 141 l 448 172 l 448 186 l 463 186 l 463 202 l 515 202 l 521 193 q 529 190 524 193 l 529 172 l 545 172 l 545 90 l 534 81 q 533 77 534 79 q 532 73 532 76 l 515 73 l 515 42 l 505 35 q 502 22 505 28 q 499 11 499 16 l 483 11 l 483 -7 l 472 -14 q 471 -24 472 -18 q 468 -35 469 -31 l 434 -35 l 434 -52 l 404 -52 l 404 -68 l 393 -75 q 391 -79 393 -77 q 389 -84 389 -80 l 342 -84 l 342 -98 l 244 -98 m 273 750 l 266 758 q 254 761 262 758 q 244 764 247 764 l 244 781 l 212 781 l 212 812 l 195 812 l 195 844 l 182 844 l 182 863 l 195 863 l 195 894 l 212 894 l 212 925 l 244 925 l 244 940 l 357 940 l 362 930 q 373 928 365 930 l 373 907 l 387 907 l 387 827 l 373 827 l 373 811 l 362 804 q 360 793 362 799 q 358 781 358 787 l 324 781 l 324 765 l 244 765 l 294 750 l 273 750 z "},"?":{"ha":578,"x_min":41,"x_max":545,"o":"m 342 1046 l 347 1036 q 376 1034 361 1036 q 406 1031 391 1031 l 412 1019 q 420 1016 415 1019 l 420 1000 l 452 1000 l 458 989 q 468 986 460 989 l 468 968 l 483 968 l 483 954 l 499 954 l 506 943 q 515 940 507 943 l 515 922 l 532 922 l 532 873 l 545 873 l 545 776 l 532 776 l 532 727 l 521 720 q 519 709 521 713 q 517 697 517 704 l 499 697 l 499 665 l 488 658 q 487 655 488 656 q 486 651 486 654 l 468 651 l 468 632 l 457 625 q 456 620 457 623 l 437 620 l 437 602 l 426 595 q 425 593 426 594 q 423 589 423 591 l 406 589 l 406 571 l 389 571 l 389 538 l 378 532 q 377 525 378 529 l 358 525 l 358 509 l 347 502 q 345 492 347 498 q 343 480 343 486 l 332 472 q 330 460 332 465 q 328 448 328 454 l 311 448 l 311 335 l 301 328 q 300 323 301 326 l 244 323 l 244 336 l 228 336 l 228 403 l 237 408 q 240 427 236 412 q 244 452 244 441 l 260 452 l 260 483 l 274 483 l 274 498 l 292 498 l 292 529 l 300 534 q 302 548 300 540 q 305 560 305 556 l 338 560 l 338 593 l 355 593 l 355 606 l 369 606 l 369 623 l 385 623 l 385 655 l 393 661 q 395 667 393 663 q 397 674 396 671 l 401 685 l 419 685 l 419 718 l 433 718 l 433 871 l 419 871 l 419 918 l 403 918 l 403 949 l 368 949 l 362 964 l 201 964 l 201 948 l 190 941 q 189 939 190 940 q 189 936 189 937 l 170 933 l 170 899 l 160 892 q 157 834 160 861 q 155 774 155 807 l 144 768 q 142 762 144 765 l 125 762 l 125 745 l 71 745 l 64 755 q 60 756 61 755 q 57 757 58 757 l 57 776 l 41 776 l 41 860 l 57 860 l 57 873 l 72 873 l 72 905 l 88 905 l 88 937 l 96 943 q 98 948 96 945 q 99 954 99 951 l 121 954 l 121 983 l 152 983 l 152 1000 l 183 1000 l 183 1013 l 191 1019 q 193 1028 191 1025 l 194 1031 l 244 1031 l 244 1046 l 342 1046 m 311 199 l 317 189 q 330 186 324 189 q 342 184 335 184 l 342 167 l 373 167 l 373 137 l 389 137 l 389 104 l 406 104 l 406 87 l 389 87 l 389 53 l 378 46 q 376 35 378 41 q 374 23 374 28 l 342 23 l 342 8 l 227 8 l 220 16 q 217 17 218 16 q 214 18 216 18 l 212 41 l 198 41 l 198 121 l 212 121 l 212 137 l 228 137 l 228 167 l 260 167 l 260 183 l 342 183 l 292 199 l 311 199 z "},"(":{"ha":518,"x_min":41,"x_max":484,"o":"m 418 1093 l 453 1093 l 458 1084 q 469 1081 461 1084 l 469 1061 l 484 1061 l 484 1042 l 475 1035 q 473 1024 475 1032 q 471 1012 471 1016 l 438 1012 l 438 996 l 426 989 q 425 986 426 987 q 425 983 425 985 l 407 981 l 407 963 l 396 956 q 395 954 396 955 q 395 951 395 952 l 373 948 l 373 933 l 362 926 q 361 924 362 925 q 361 921 361 922 l 343 918 l 343 901 l 334 894 q 333 891 334 892 q 332 888 332 890 l 311 886 l 311 872 l 297 872 l 297 838 l 286 831 q 286 829 286 830 q 285 826 285 827 l 264 823 l 264 789 l 254 783 q 252 772 254 779 q 250 762 251 766 l 233 762 l 233 728 l 222 722 q 220 710 222 715 q 218 699 218 705 l 208 690 q 205 664 208 677 q 202 633 202 651 l 191 627 q 189 591 191 609 q 186 555 186 574 l 176 548 q 174 522 176 537 q 171 494 171 507 l 160 487 l 153 435 l 171 435 l 171 416 l 160 408 l 153 355 l 171 355 l 171 278 l 186 278 l 186 201 l 202 201 l 202 168 l 217 168 l 217 119 l 233 119 l 233 90 l 248 90 l 248 57 l 264 57 l 264 43 l 281 43 l 281 11 l 297 11 l 302 1 q 311 0 308 1 l 311 -20 l 328 -20 l 328 -52 l 343 -52 l 349 -61 q 357 -62 354 -61 l 357 -83 l 373 -83 l 373 -98 l 407 -98 l 414 -109 q 420 -110 418 -109 l 420 -129 l 438 -129 l 438 -161 l 453 -161 l 460 -172 q 469 -175 461 -172 l 469 -210 l 438 -210 l 438 -227 l 418 -227 l 418 -210 l 403 -210 l 403 -197 l 387 -197 l 387 -179 l 369 -179 l 362 -171 q 359 -170 361 -171 q 355 -168 358 -168 l 355 -151 l 339 -151 l 339 -133 l 326 -133 l 317 -125 q 315 -125 316 -125 q 313 -126 315 -126 q 312 -125 312 -126 q 311 -125 312 -125 l 308 -102 l 292 -102 l 285 -94 q 282 -93 283 -94 q 279 -92 281 -92 l 277 -69 l 260 -69 l 260 -56 l 244 -56 l 244 -39 l 229 -39 l 222 -31 q 218 -30 220 -31 q 213 -28 216 -28 l 213 7 l 198 7 l 198 23 l 182 23 l 182 56 l 168 56 l 168 85 l 151 85 l 151 102 l 134 102 l 127 110 q 124 111 125 110 q 122 111 123 111 l 122 148 l 106 148 l 106 197 l 90 197 l 90 260 l 73 260 l 73 292 l 58 292 l 58 446 l 41 446 l 41 467 l 58 467 l 58 575 l 66 582 q 68 610 66 593 q 72 639 69 627 l 90 639 l 90 685 l 98 692 q 99 697 98 694 q 100 703 100 700 l 122 703 l 122 750 l 136 750 l 136 764 l 144 769 q 146 783 144 774 q 149 795 149 791 l 168 795 l 168 827 l 182 827 l 182 844 l 198 844 l 198 859 l 206 864 q 208 869 206 867 q 209 875 209 872 l 231 875 l 231 890 l 244 890 l 244 921 l 260 921 l 260 937 l 270 943 q 271 952 270 948 l 293 952 l 293 970 l 301 975 q 302 985 301 981 l 326 985 l 326 998 l 339 998 l 339 1031 l 355 1031 l 355 1047 l 363 1053 q 365 1057 363 1055 q 366 1061 366 1058 l 403 1061 l 403 1078 l 411 1084 l 418 1093 z "},")":{"ha":502,"x_min":28,"x_max":468,"o":"m 56 1109 l 90 1109 l 96 1099 q 107 1096 99 1099 l 107 1078 l 122 1078 l 129 1066 q 138 1063 130 1066 l 138 1047 l 155 1047 l 161 1036 q 171 1034 163 1036 l 171 1015 l 201 1015 l 201 985 l 217 985 l 222 975 q 233 972 225 975 l 233 952 l 247 952 l 252 943 q 258 941 255 943 q 263 940 260 940 l 263 921 l 279 921 l 279 906 l 293 906 l 293 875 l 309 875 l 316 864 q 326 861 317 864 l 326 844 l 342 844 l 342 812 l 357 812 l 363 802 q 369 800 366 802 l 368 800 q 376 798 370 798 l 376 764 l 389 764 l 389 732 l 406 732 l 412 722 q 420 719 415 722 l 420 685 l 438 685 l 438 623 l 452 623 l 452 529 l 468 529 l 468 290 l 457 283 q 454 263 457 274 q 452 241 452 252 l 438 241 l 438 210 l 426 203 q 423 183 426 194 q 420 163 420 172 l 411 156 q 409 144 411 151 q 407 133 407 138 l 389 133 l 389 102 l 376 102 l 376 85 l 362 77 q 361 66 362 73 q 358 56 359 60 l 342 56 l 342 38 l 331 31 q 329 19 331 24 q 327 7 327 14 l 309 7 l 309 -8 l 298 -15 q 298 -18 298 -16 q 297 -20 297 -19 l 279 -23 l 279 -41 l 269 -47 q 268 -50 269 -49 q 267 -53 267 -52 l 247 -56 l 247 -69 l 233 -69 l 233 -88 l 222 -95 q 221 -98 222 -96 q 220 -102 220 -99 l 201 -102 l 201 -119 l 190 -126 q 189 -129 190 -127 q 187 -133 187 -130 l 171 -133 l 171 -152 l 160 -159 q 159 -164 160 -161 l 138 -164 l 138 -198 l 127 -205 q 126 -210 127 -208 l 76 -210 l 76 -227 l 71 -228 l 72 -210 l 56 -210 l 56 -161 l 72 -161 l 72 -146 l 80 -140 q 81 -134 80 -137 q 83 -129 83 -132 l 104 -129 l 104 -114 l 134 -114 l 134 -98 l 142 -92 q 145 -83 142 -88 l 167 -83 l 167 -52 l 175 -46 q 176 -41 175 -43 q 178 -35 178 -38 l 198 -35 l 198 -20 l 213 -20 l 213 11 l 229 11 l 229 28 l 237 34 q 239 43 237 39 l 260 43 l 260 73 l 275 73 l 275 106 l 283 111 q 286 124 283 118 q 289 137 289 130 l 307 137 l 307 168 l 321 168 l 321 231 l 338 231 l 338 293 l 353 298 l 353 572 l 338 572 l 338 618 l 321 618 l 321 681 l 307 681 l 307 713 l 290 713 l 290 762 l 275 762 l 275 791 l 260 791 l 260 823 l 244 823 l 244 840 l 229 840 l 229 872 l 213 872 l 213 886 l 198 886 l 198 902 l 180 902 l 174 910 q 171 911 172 910 q 167 913 170 913 l 167 935 l 149 935 l 149 964 l 133 964 l 126 974 q 115 977 122 974 q 104 979 107 979 l 104 997 l 85 997 l 79 1005 q 76 1006 77 1005 q 72 1008 75 1008 l 72 1027 l 56 1027 l 56 1043 l 41 1043 l 41 1093 l 56 1093 l 56 1109 m 28 -186 l 56 -179 l 56 -191 l 28 -186 z "},"@":{"ha":914,"x_min":39,"x_max":891,"o":"m 742 483 l 760 483 l 760 556 l 742 556 l 742 587 l 728 587 l 728 604 l 712 604 l 705 612 q 696 613 700 612 l 696 635 l 681 635 l 674 644 q 651 648 665 644 q 632 651 637 651 l 627 659 l 560 666 l 560 651 l 511 651 l 511 635 l 498 635 l 498 618 l 464 618 l 464 604 l 450 604 l 450 587 l 439 579 q 438 572 439 575 l 418 572 l 418 540 l 407 533 q 404 513 407 524 q 401 495 401 503 l 388 495 l 388 355 l 401 355 l 401 311 l 418 311 l 418 278 l 434 278 l 434 264 l 450 264 l 457 254 q 464 252 461 254 l 464 231 l 633 231 l 633 247 l 666 247 l 666 264 l 696 264 l 696 293 l 713 293 l 713 311 l 722 316 l 722 315 q 724 346 723 331 q 727 370 726 358 q 728 388 728 382 l 742 388 l 742 483 m 446 1078 l 481 1078 l 488 1066 q 553 1063 521 1066 q 623 1061 586 1061 l 623 1047 l 669 1047 l 675 1036 q 688 1034 682 1036 q 701 1032 694 1032 l 701 1015 l 715 1015 l 722 1004 q 731 1001 723 1004 l 731 985 l 764 985 l 769 975 q 779 972 770 975 l 779 952 l 795 952 l 795 921 l 810 921 l 810 906 l 826 906 l 826 859 l 841 859 l 841 812 l 857 812 l 857 650 l 846 643 q 844 608 846 625 q 841 571 841 590 l 831 564 q 829 545 831 556 q 826 524 826 534 l 815 517 q 812 482 815 499 q 810 446 810 465 l 795 446 l 795 293 l 810 293 l 810 264 l 841 264 l 848 254 q 860 252 854 254 q 872 250 865 250 l 872 231 l 888 231 l 888 197 l 857 197 l 857 179 l 806 179 l 806 197 l 773 197 l 766 205 q 764 206 765 205 q 760 208 762 208 l 760 228 l 685 228 l 685 210 l 674 203 q 673 201 674 202 q 671 197 671 199 l 623 197 l 623 178 l 612 171 q 610 168 612 170 q 609 164 609 167 l 507 164 l 500 172 q 481 176 491 172 q 461 179 472 179 l 461 197 l 430 197 l 422 205 l 416 205 q 415 206 415 205 l 415 228 l 399 228 l 399 241 l 384 241 l 384 260 l 365 260 l 358 269 q 355 270 357 269 q 351 271 354 271 l 351 307 l 335 307 l 335 384 l 321 384 l 321 404 l 335 404 l 335 483 l 351 483 l 351 545 l 359 551 q 362 564 359 556 q 365 575 365 571 l 384 575 l 384 608 l 392 613 q 393 623 392 618 l 415 623 l 415 639 l 430 639 l 430 654 l 446 654 l 446 670 l 454 675 q 456 685 454 681 l 509 685 l 509 703 l 556 703 l 556 716 l 623 716 l 623 703 l 685 703 l 692 692 l 774 685 l 774 703 l 791 703 l 791 743 l 774 743 l 774 872 l 760 872 l 760 902 l 741 902 l 734 910 q 730 911 731 910 q 728 911 730 911 l 728 935 l 713 935 l 713 948 l 696 948 l 696 964 l 665 964 l 658 974 q 638 977 647 974 q 620 981 629 981 l 620 997 l 570 997 l 564 1012 l 418 1012 l 418 997 l 355 997 l 355 981 l 324 981 l 324 964 l 293 964 l 293 947 l 282 940 q 281 935 282 937 l 262 935 l 262 918 l 250 910 q 248 906 250 907 q 247 902 247 905 l 231 902 l 231 884 l 221 878 q 220 872 221 875 l 198 872 l 198 840 l 184 840 l 184 808 l 174 800 q 172 789 174 795 q 170 777 170 783 l 153 777 l 153 742 l 141 735 q 139 725 141 731 q 137 713 137 719 l 121 713 l 121 650 l 110 643 q 107 555 110 600 q 104 463 104 510 l 91 463 l 91 326 l 104 326 l 104 231 l 121 231 l 121 168 l 136 168 l 136 106 l 153 106 l 153 73 l 168 73 l 168 43 l 184 43 l 190 34 q 198 33 195 34 l 198 -4 l 216 -4 l 222 -15 q 231 -18 225 -15 l 231 -35 l 244 -35 l 251 -46 q 262 -49 254 -46 l 262 -66 l 277 -66 l 283 -77 q 295 -79 290 -77 q 307 -81 300 -81 l 313 -92 q 324 -95 316 -92 l 324 -114 l 339 -114 l 345 -123 q 358 -125 351 -123 q 372 -127 365 -127 l 372 -146 l 401 -146 l 407 -156 q 429 -159 418 -156 q 450 -161 439 -161 l 457 -172 q 622 -175 538 -172 q 795 -178 705 -178 l 795 -212 l 784 -218 q 783 -221 784 -220 q 783 -224 783 -222 l 715 -227 l 715 -241 l 593 -241 l 593 -260 l 587 -260 l 587 -241 l 492 -241 l 486 -233 l 487 -233 l 460 -231 q 441 -228 449 -229 q 430 -227 433 -227 l 430 -210 l 384 -210 l 384 -197 l 351 -197 l 351 -179 l 334 -179 l 327 -171 q 315 -168 323 -171 q 302 -165 307 -165 l 296 -157 q 293 -156 294 -157 q 289 -155 292 -155 l 289 -133 l 259 -133 l 251 -125 q 247 -123 248 -125 q 243 -122 245 -122 l 243 -102 l 225 -102 l 218 -94 q 215 -93 216 -94 q 213 -92 214 -92 l 213 -69 l 195 -69 l 195 -56 l 180 -56 l 180 -39 l 163 -39 l 156 -31 q 153 -30 155 -31 q 149 -28 152 -28 l 149 7 l 132 7 l 132 23 l 118 23 l 118 56 l 102 56 l 102 102 l 85 102 l 85 133 l 69 133 l 69 212 l 56 212 l 56 307 l 39 307 l 39 591 l 56 591 l 56 654 l 69 654 l 69 716 l 85 716 l 85 750 l 95 755 q 98 778 95 772 q 102 795 102 784 l 118 795 l 118 827 l 132 827 l 132 859 l 149 859 l 149 875 l 157 880 q 159 890 157 886 l 180 890 l 180 921 l 189 926 q 190 932 189 929 q 191 937 191 935 l 213 937 l 213 952 l 227 952 l 227 970 l 243 970 l 243 985 l 251 990 q 252 994 251 993 q 254 998 254 996 l 289 998 l 289 1015 l 297 1020 q 298 1031 297 1027 l 335 1031 l 335 1047 l 384 1047 l 384 1061 l 446 1061 l 446 1078 m 891 730 l 875 716 l 857 716 l 857 730 l 891 730 z "},"#":{"ha":898,"x_min":37,"x_max":875,"o":"m 716 1050 l 680 1050 l 680 1034 l 663 1034 q 662 1026 663 1034 q 659 1009 661 1019 q 657 990 658 1000 q 656 977 656 981 l 648 971 l 648 878 l 631 878 l 631 798 l 617 798 l 617 719 l 601 719 q 597 671 601 696 q 594 629 594 647 l 586 624 l 586 562 l 568 562 q 567 528 568 547 q 563 491 566 510 l 553 484 l 553 407 l 537 407 l 537 345 l 522 345 l 522 267 l 506 267 q 505 231 506 248 q 500 191 503 214 l 491 184 l 491 140 l 473 140 l 473 60 l 458 60 q 453 19 458 39 l 444 12 l 444 -64 l 427 -64 l 427 -126 l 412 -126 l 412 -199 l 427 -199 l 427 -213 l 450 -213 l 450 -199 l 468 -199 q 470 -186 468 -191 q 472 -174 472 -182 l 484 -167 q 487 -146 484 -156 q 490 -127 490 -137 l 500 -121 l 500 -72 l 514 -72 q 517 -22 514 -49 q 519 30 519 4 l 532 37 q 534 79 532 56 q 537 123 537 102 l 547 130 q 549 151 547 142 q 552 170 552 159 l 563 176 l 563 225 l 595 225 l 595 239 l 766 239 l 766 258 l 798 258 l 798 273 l 812 273 l 812 281 l 798 281 l 798 298 q 787 301 789 301 l 780 313 q 708 316 749 313 q 629 319 667 319 l 624 328 l 595 328 l 595 444 l 609 444 q 612 473 609 457 q 614 500 614 488 l 625 507 l 625 522 l 686 522 l 686 538 l 860 538 l 860 553 l 875 553 l 875 578 l 860 578 l 860 595 q 846 597 852 595 q 833 600 840 600 l 829 610 l 671 610 l 671 642 l 658 642 l 658 678 l 671 678 q 674 715 671 697 q 677 753 677 734 l 686 760 q 689 794 686 776 q 692 830 692 812 l 704 837 q 707 863 704 849 q 709 892 709 878 l 719 899 q 721 912 719 906 q 723 925 723 918 l 734 932 l 734 1036 q 722 1039 726 1039 l 716 1050 m 757 1009 l 746 1000 q 740 1000 743 1000 q 734 1001 736 1001 l 734 1009 l 757 1009 m 709 1050 l 704 1050 l 704 1072 l 713 1061 l 709 1050 m 766 522 l 766 538 l 772 538 l 766 522 m 458 1034 l 427 1034 l 427 972 l 412 972 l 412 892 l 396 892 q 395 863 396 880 q 391 836 393 845 l 381 829 l 381 735 l 365 735 l 361 715 q 357 704 358 711 q 357 693 357 697 l 349 686 l 349 625 l 332 625 l 332 610 l 115 610 l 115 594 l 99 594 l 99 549 q 105 547 102 547 q 110 547 109 547 l 117 538 q 182 535 151 538 q 248 532 214 532 l 256 522 l 319 522 l 319 438 l 301 438 q 300 416 301 430 q 296 396 298 403 l 286 389 l 286 328 l 256 328 l 256 313 l 53 313 l 53 296 l 37 296 l 37 258 l 53 258 l 53 239 l 239 239 l 239 225 l 256 225 l 256 140 l 239 140 q 235 120 237 134 q 232 96 232 106 l 224 91 l 224 31 l 210 31 l 210 -18 l 193 -18 q 189 -57 193 -35 q 186 -91 186 -79 l 178 -96 l 178 -159 l 161 -159 l 161 -182 l 178 -182 l 178 -213 l 221 -213 q 222 -206 222 -210 l 233 -199 l 233 -167 l 247 -167 q 250 -140 247 -155 q 252 -111 252 -126 l 264 -104 q 267 -62 264 -85 q 270 -16 270 -39 l 279 -9 q 282 33 279 11 q 285 75 285 54 l 296 83 l 296 145 l 311 145 q 313 182 311 164 q 316 218 316 199 l 327 225 q 330 254 327 239 q 332 282 332 269 l 342 289 q 345 315 342 302 q 347 343 347 328 l 358 350 q 361 390 358 369 q 365 423 365 411 l 374 430 q 377 465 374 446 q 380 500 380 483 l 391 507 l 391 570 l 404 570 q 407 590 404 582 q 410 609 410 598 l 422 616 q 425 658 422 635 q 427 704 427 681 l 437 711 l 437 788 l 450 788 q 453 817 450 802 q 456 845 456 831 l 467 852 q 469 873 467 863 q 472 892 472 883 l 484 899 q 487 927 484 913 q 490 955 490 941 l 500 962 l 500 1036 q 488 1039 492 1039 l 484 1050 l 458 1050 l 458 1034 m 210 -213 l 210 -236 q 205 -231 208 -235 q 201 -227 202 -228 q 201 -220 201 -224 q 202 -213 202 -216 l 210 -213 z "},"$":{"ha":700,"x_min":41,"x_max":677,"o":"m 336 1172 l 373 1172 l 380 1161 q 387 1160 384 1161 l 387 1047 l 403 1047 l 410 1036 q 418 1034 412 1036 l 418 1015 l 467 1015 l 473 1004 q 493 1001 483 1004 q 513 998 503 998 l 513 985 l 560 985 l 566 975 q 576 972 568 975 l 576 952 l 591 952 l 597 943 q 608 940 600 943 l 608 906 l 623 906 l 623 789 l 613 783 q 612 777 613 780 l 541 777 l 541 791 l 526 791 l 526 823 l 510 823 l 510 918 l 495 918 l 495 935 l 477 935 l 477 948 l 414 948 l 414 964 l 308 964 l 308 948 l 278 948 l 278 935 l 245 935 l 245 918 l 216 918 l 216 901 l 206 894 q 205 891 206 892 q 205 888 205 890 l 183 886 l 183 854 l 170 854 l 170 808 l 159 800 l 153 716 l 170 716 l 170 703 l 183 703 l 183 670 l 199 670 l 206 659 q 216 656 208 659 l 216 639 l 245 639 l 252 628 q 273 625 262 628 q 294 623 285 623 l 300 613 q 336 610 317 613 q 373 608 354 608 l 380 597 q 398 594 389 597 q 418 591 407 591 l 425 582 l 450 578 q 467 575 461 575 l 473 564 q 493 562 483 564 q 513 559 503 559 l 513 545 l 545 545 l 552 534 q 560 532 555 534 l 560 513 l 576 513 l 582 503 q 595 501 589 503 q 608 499 601 499 l 608 467 l 623 467 l 629 456 q 639 453 631 456 l 639 404 l 654 404 l 654 275 l 639 275 l 639 240 l 628 233 q 626 223 628 229 q 624 212 624 217 l 608 212 l 608 178 l 597 171 q 595 168 597 170 q 594 164 594 167 l 576 164 l 576 148 l 545 148 l 545 132 l 534 125 q 534 122 534 123 q 533 119 533 121 l 499 117 l 499 102 l 467 102 l 467 85 l 418 85 l 418 69 l 408 62 q 407 60 408 61 q 406 56 406 58 l 387 56 l 387 -87 l 373 -87 l 373 -212 l 361 -218 q 359 -230 361 -225 q 357 -241 357 -235 l 335 -241 l 328 -233 q 325 -233 326 -233 q 323 -232 324 -232 l 323 -210 l 305 -210 l 305 56 l 273 56 l 266 64 l 267 64 q 241 66 254 65 q 222 69 231 68 q 212 71 214 71 l 212 85 l 133 85 l 133 102 l 102 102 l 95 110 q 81 113 90 110 q 71 115 73 115 l 71 133 l 57 133 l 57 164 l 41 164 l 41 278 l 57 278 l 57 326 l 106 326 l 106 293 l 121 293 l 121 247 l 137 247 l 137 214 l 153 214 l 153 201 l 170 201 l 176 189 q 183 187 180 189 l 183 168 l 199 168 l 206 157 q 219 155 213 157 q 232 153 225 153 l 232 137 l 433 137 l 433 152 l 464 152 l 464 168 l 495 168 l 495 183 l 503 189 q 505 198 503 195 l 506 201 l 526 201 l 526 214 l 541 214 l 541 247 l 557 247 l 557 293 l 566 298 l 572 353 l 557 353 l 557 400 l 541 400 l 533 408 l 528 408 q 526 410 526 408 l 526 433 l 510 433 l 510 446 l 495 446 l 495 463 l 463 463 l 456 472 q 446 473 450 472 q 434 475 441 473 l 414 479 l 414 495 l 366 495 l 359 503 q 340 507 349 503 q 323 510 331 510 l 315 518 l 282 522 q 258 525 271 525 l 251 534 q 239 537 247 534 q 227 540 231 540 l 220 549 q 208 552 214 549 q 197 555 202 555 l 197 572 l 165 572 l 165 587 l 148 587 l 148 604 l 132 604 l 125 612 q 122 612 123 612 q 119 613 121 613 l 117 635 l 103 635 l 103 666 l 87 666 l 87 699 l 71 699 l 71 827 l 87 827 l 87 859 l 96 864 q 99 878 96 869 q 102 890 102 886 l 110 895 q 111 901 110 898 q 113 906 113 903 l 133 906 l 133 937 l 141 943 q 142 952 141 948 l 180 952 l 180 970 l 197 970 l 197 985 l 228 985 l 228 998 l 259 998 l 259 1015 l 290 1015 l 290 1031 l 298 1036 q 302 1087 298 1059 q 305 1142 305 1115 l 323 1142 l 323 1156 l 336 1156 l 336 1172 m 80 351 l 87 345 l 87 326 l 75 326 l 80 351 m 654 343 l 677 343 l 677 326 l 654 353 l 654 343 m 587 777 l 581 754 l 578 754 l 578 777 l 587 777 z "},"%":{"ha":928,"x_min":38,"x_max":902,"o":"m 590 43 l 608 43 l 613 34 q 621 33 618 34 l 621 11 l 637 11 l 643 1 q 665 -1 651 1 l 667 -1 l 667 -20 l 743 -20 l 743 -4 l 789 -4 l 789 11 l 822 11 l 822 43 l 838 43 l 838 148 l 822 148 l 822 164 l 806 164 l 806 197 l 788 197 l 783 212 l 637 212 l 637 197 l 627 189 q 625 182 627 184 l 608 179 l 608 146 l 597 140 l 590 43 m 635 264 l 779 264 l 785 254 q 804 250 793 254 q 825 247 815 247 l 831 236 q 841 233 833 236 l 841 214 l 856 214 l 856 201 l 873 201 l 873 168 l 887 168 l 887 119 l 902 119 l 902 54 l 892 47 q 890 35 892 41 q 888 22 888 28 l 879 15 q 877 5 879 11 q 875 -7 875 -1 l 856 -7 l 856 -23 l 846 -31 q 845 -35 846 -34 q 844 -39 844 -37 l 825 -39 l 825 -56 l 793 -56 l 793 -69 l 762 -69 l 762 -87 l 666 -87 l 666 -69 l 635 -69 l 635 -56 l 604 -56 l 604 -39 l 585 -39 l 578 -31 q 575 -30 576 -31 q 571 -28 574 -28 l 571 7 l 555 7 l 555 39 l 541 39 l 541 152 l 555 152 l 555 183 l 571 183 l 571 214 l 579 220 q 581 225 579 222 q 582 231 582 228 l 618 231 l 618 247 l 635 247 l 635 264 m 336 875 l 350 875 l 350 935 l 336 935 l 336 981 l 320 981 l 320 997 l 302 997 l 296 1005 q 283 1008 290 1005 q 273 1010 277 1010 l 267 1019 l 183 1027 l 183 1012 l 152 1012 l 152 996 l 141 989 q 140 986 141 987 q 140 983 140 985 l 119 981 l 119 948 l 106 948 l 106 859 l 119 859 l 119 827 l 136 827 l 141 818 q 155 816 149 818 q 168 814 161 814 l 168 795 l 274 795 l 274 812 l 304 812 l 304 827 l 312 833 q 313 838 312 836 q 315 844 315 841 l 336 844 l 336 875 m 212 1093 l 229 1093 l 235 1084 q 271 1081 254 1084 q 308 1078 289 1078 l 315 1066 q 334 1063 326 1066 q 354 1061 343 1061 l 354 1047 l 433 1047 l 439 1036 q 459 1034 449 1036 q 480 1031 469 1031 l 488 1020 q 496 1017 491 1020 l 496 996 l 487 989 q 486 986 487 987 q 486 983 486 985 l 416 981 l 416 964 l 403 964 l 403 871 l 392 864 q 390 852 392 857 q 388 840 388 846 l 372 840 l 372 808 l 359 800 q 358 793 359 796 l 339 791 l 339 776 l 328 769 q 327 766 328 768 q 326 762 326 765 l 292 762 l 292 743 l 260 743 l 260 730 l 179 730 l 179 743 l 146 743 l 146 762 l 115 762 l 109 770 q 106 772 107 770 q 102 773 104 773 l 102 791 l 84 791 l 84 808 l 69 808 l 62 817 q 60 817 61 817 q 57 818 58 818 l 54 872 l 38 872 l 38 952 l 47 958 l 52 982 q 54 998 54 990 l 71 998 l 71 1015 l 84 1015 l 84 1031 l 102 1031 l 102 1047 l 110 1053 q 111 1057 110 1055 q 113 1061 113 1058 l 164 1061 l 164 1078 l 212 1078 l 212 1093 m 680 1078 l 716 1078 l 723 1066 q 730 1065 727 1066 l 730 1027 l 716 1027 l 716 996 l 705 989 l 705 990 q 703 982 704 990 q 701 970 703 974 q 701 966 701 967 q 700 964 700 966 l 684 964 l 684 918 l 673 910 q 671 906 673 907 q 670 902 670 905 l 654 902 l 654 853 l 643 846 q 641 835 643 840 q 639 823 639 830 l 621 823 l 621 791 l 608 791 l 608 742 l 597 735 q 595 725 597 731 q 593 713 593 719 l 575 713 l 575 665 l 564 658 q 563 655 564 656 q 562 651 562 654 l 544 651 l 544 602 l 532 595 q 529 576 532 586 q 526 556 526 566 l 513 556 l 513 524 l 502 517 q 499 497 502 506 q 496 477 496 488 l 487 471 q 484 458 487 464 q 481 446 481 453 l 463 446 l 463 416 l 449 416 l 449 382 l 438 376 q 436 365 438 373 q 434 353 434 357 l 416 353 l 416 307 l 403 307 l 403 274 l 392 267 q 389 248 392 258 q 387 227 387 237 l 377 220 q 375 208 377 213 q 373 197 373 203 l 354 197 l 354 146 l 345 140 q 342 120 345 130 q 339 100 339 110 l 328 94 q 326 74 328 83 q 323 56 323 65 l 308 56 l 308 22 l 297 15 q 294 -5 297 4 q 292 -23 292 -14 l 282 -31 q 280 -43 282 -38 q 278 -56 278 -49 l 260 -56 l 260 -69 l 245 -69 l 245 -87 l 225 -87 l 225 -69 l 212 -69 l 212 11 l 225 11 l 225 43 l 241 43 l 241 73 l 250 79 q 251 90 250 85 l 274 90 l 274 152 l 288 152 l 288 183 l 304 183 l 304 214 l 312 220 q 313 233 312 225 q 317 247 315 241 l 336 247 l 336 293 l 350 293 l 350 326 l 366 326 l 366 373 l 376 378 q 378 392 376 384 q 381 404 381 400 l 399 404 l 399 450 l 407 456 q 410 471 407 461 q 412 483 412 480 l 431 483 l 431 513 l 445 513 l 445 545 l 453 551 q 456 564 453 556 q 458 575 458 571 l 476 575 l 476 623 l 492 623 l 492 654 l 509 654 l 509 703 l 517 708 q 517 720 517 715 q 519 730 518 724 l 524 750 l 541 750 l 541 764 l 555 764 l 555 812 l 571 812 l 571 844 l 579 849 q 582 863 579 854 q 585 875 585 871 l 604 875 l 604 906 l 612 913 q 615 935 612 929 q 618 952 618 941 l 635 952 l 635 998 l 650 998 l 650 1047 l 666 1047 l 666 1061 l 674 1066 l 680 1078 z "},"&":{"ha":930,"x_min":38,"x_max":911,"o":"m 137 247 l 152 247 l 152 201 l 168 201 l 168 168 l 183 168 l 190 157 q 199 155 191 157 l 199 137 l 214 137 l 214 106 l 245 106 l 252 95 q 260 94 256 95 l 263 94 l 263 73 l 308 73 l 315 57 l 476 57 l 476 73 l 526 73 l 526 90 l 541 90 l 541 106 l 572 106 l 572 119 l 589 119 l 589 137 l 604 137 l 604 212 l 589 212 l 589 241 l 572 241 l 572 275 l 557 275 l 557 307 l 541 307 l 541 338 l 525 338 l 518 346 q 515 347 517 346 q 513 347 514 347 l 510 384 l 495 384 l 495 400 l 475 400 l 468 408 q 465 410 467 408 q 461 411 464 411 l 461 446 l 445 446 l 445 463 l 431 463 l 423 472 q 421 471 422 472 q 419 471 420 471 q 418 471 418 471 q 416 472 418 472 l 414 495 l 397 495 l 391 503 q 387 504 388 503 q 385 505 387 505 l 385 525 l 263 525 l 263 509 l 251 502 q 250 499 251 500 q 248 495 248 498 l 214 495 l 214 479 l 199 479 l 199 461 l 189 454 q 188 452 189 453 q 187 449 187 450 l 168 446 l 168 416 l 157 408 q 155 389 157 397 q 152 370 152 381 l 137 370 l 137 247 m 399 1015 l 403 1015 l 410 1004 l 445 998 l 445 1015 l 449 1015 l 456 1004 q 482 1001 467 1004 q 513 998 498 998 l 513 985 l 529 985 l 534 975 q 549 973 543 975 q 562 971 555 971 l 562 937 l 575 937 l 575 902 l 562 902 l 562 886 l 529 886 l 529 872 l 510 872 l 510 886 l 495 886 l 495 902 l 460 902 l 454 910 l 340 918 l 340 902 l 308 902 l 308 886 l 294 886 l 294 871 l 278 864 l 278 750 l 294 750 l 294 716 l 308 716 l 308 703 l 326 703 l 326 670 l 340 670 l 347 659 q 357 656 349 659 l 357 639 l 372 639 l 378 628 q 387 625 381 628 l 387 608 l 403 608 l 410 597 q 416 595 414 597 l 416 575 l 434 575 l 441 564 q 449 562 444 564 l 449 545 l 465 545 l 465 513 l 480 513 l 488 503 q 499 500 491 503 l 499 483 l 513 483 l 518 473 q 529 471 521 473 l 529 435 l 545 435 l 552 425 q 562 422 553 425 l 562 404 l 575 404 l 582 393 q 591 391 583 393 l 591 355 l 608 355 l 608 326 l 621 326 l 621 293 l 666 293 l 666 311 l 697 311 l 697 435 l 705 441 q 708 456 705 445 l 712 467 l 730 467 l 730 483 l 888 483 l 888 416 l 856 416 l 856 400 l 827 400 l 827 384 l 795 384 l 795 369 l 784 362 q 781 340 784 351 q 779 321 779 330 l 765 321 l 765 274 l 753 267 q 751 254 753 260 q 749 241 749 248 l 732 241 l 732 210 l 716 203 l 716 106 l 747 106 l 754 95 l 792 90 l 792 106 l 806 106 l 806 119 l 838 119 l 838 137 l 856 137 l 863 125 q 875 123 867 125 q 888 121 883 121 l 888 38 l 879 33 q 877 28 878 30 q 876 23 876 26 l 841 23 l 841 7 l 810 7 l 810 -7 l 776 -7 l 776 7 l 730 7 l 730 23 l 713 23 l 705 33 q 701 34 703 33 q 697 35 700 35 l 697 56 l 665 56 l 659 64 l 621 71 l 621 56 l 591 56 l 591 39 l 562 39 l 562 23 l 529 23 l 529 7 l 499 7 l 499 -7 l 449 -7 l 449 -23 l 305 -23 l 305 -7 l 258 -7 l 258 7 l 228 7 l 228 23 l 194 23 l 187 33 q 176 35 183 33 q 165 38 168 38 l 165 56 l 148 56 l 141 64 q 138 64 140 64 q 136 65 137 65 l 133 85 l 119 85 l 119 102 l 103 102 l 103 133 l 87 133 l 87 164 l 71 164 l 71 197 l 56 197 l 56 228 l 38 228 l 38 388 l 56 388 l 56 419 l 64 425 q 66 438 64 430 q 69 450 69 446 l 87 450 l 87 467 l 95 473 q 96 477 95 475 q 99 483 98 480 l 119 483 l 119 498 l 133 498 l 133 513 l 149 513 l 149 529 l 179 529 l 179 545 l 212 545 l 212 559 l 241 559 l 241 575 l 258 575 l 258 651 l 241 651 l 241 681 l 228 681 l 228 699 l 212 699 l 212 730 l 195 730 l 195 777 l 179 777 l 179 859 l 195 859 l 195 890 l 203 895 q 206 910 203 899 l 210 921 l 228 921 l 228 937 l 241 937 l 241 952 l 274 952 l 274 970 l 290 970 l 290 985 l 323 985 l 323 998 l 399 998 l 399 1015 m 911 95 l 911 92 l 906 90 l 888 90 l 888 102 l 911 95 z "},"*":{"ha":884,"x_min":39,"x_max":859,"o":"m 415 1093 l 481 1093 l 487 1084 q 500 1082 494 1084 q 513 1080 506 1080 l 513 979 l 503 972 q 500 922 503 949 q 498 871 498 895 l 487 864 q 484 827 487 846 q 481 791 481 808 l 465 791 l 465 777 l 458 773 l 430 777 l 430 808 l 415 808 l 415 918 l 399 918 l 399 997 l 384 997 l 384 1061 l 392 1066 q 393 1072 392 1069 q 395 1078 395 1076 l 415 1078 l 415 1093 m 537 1036 l 537 1034 l 532 1031 l 513 1031 l 513 1043 l 537 1036 m 446 761 l 452 762 q 453 766 452 765 q 454 770 454 768 l 461 773 l 461 743 l 446 761 m 368 639 l 388 639 l 395 628 q 401 627 399 628 l 401 572 l 388 572 l 388 555 l 377 548 q 375 536 377 543 q 373 525 373 530 l 355 525 l 355 494 l 345 487 q 342 474 345 480 q 340 461 340 468 l 331 454 q 329 444 331 450 q 327 433 327 438 l 309 433 l 309 382 l 298 376 q 296 365 298 373 q 294 353 294 357 l 263 353 l 263 338 l 225 338 l 218 346 q 207 349 214 346 q 197 351 199 351 l 197 370 l 180 370 l 180 435 l 189 441 q 190 450 189 446 l 210 450 l 210 467 l 227 467 l 227 483 l 235 488 q 236 498 235 494 l 259 498 l 259 513 l 267 518 q 267 523 267 519 q 269 529 267 526 l 290 529 l 290 545 l 304 545 l 304 559 l 321 559 l 321 575 l 330 582 q 331 591 330 587 l 353 591 l 353 608 l 368 608 l 368 639 m 145 404 l 161 416 l 180 416 l 180 404 l 145 404 m 425 597 l 425 594 l 419 591 l 401 591 l 401 604 l 425 597 m 71 859 l 136 859 l 136 844 l 168 844 l 175 833 q 187 831 182 833 q 199 829 193 829 l 199 812 l 231 812 l 237 802 q 250 799 243 802 q 263 796 256 796 l 263 780 l 277 780 l 283 769 q 304 766 292 769 q 326 764 316 764 l 326 750 l 355 750 l 362 738 q 372 735 363 738 l 372 712 l 362 705 q 361 694 362 700 q 357 681 359 688 l 351 680 l 353 699 l 289 699 l 282 707 q 224 710 254 707 q 164 713 194 713 l 164 730 l 102 730 l 102 743 l 56 743 l 56 777 l 39 777 l 39 812 l 56 812 l 56 844 l 64 849 l 71 859 m 761 854 l 826 844 l 833 833 q 841 830 836 833 l 841 795 l 859 795 l 859 776 l 846 769 q 844 757 846 762 q 842 743 842 751 l 826 743 l 826 730 l 716 730 l 716 713 l 639 713 l 639 699 l 575 699 l 575 681 l 544 681 l 544 591 l 560 591 l 566 582 q 570 581 567 582 q 575 578 572 579 l 575 559 l 593 559 l 593 545 l 606 545 l 613 534 q 623 532 614 534 l 623 513 l 639 513 l 644 503 q 654 500 646 503 l 654 483 l 670 483 l 675 473 q 684 472 681 473 l 684 450 l 701 450 l 707 441 q 716 438 708 441 l 716 404 l 732 404 l 732 399 l 722 392 q 721 389 722 391 q 720 387 720 388 l 701 384 l 701 353 l 670 353 l 670 338 l 632 338 l 625 346 q 622 347 623 346 q 620 347 621 347 l 620 370 l 604 370 l 604 400 l 589 400 l 581 408 q 578 408 579 408 q 576 407 578 407 q 575 408 575 407 q 574 408 575 408 l 571 446 l 557 446 l 557 479 l 541 479 l 541 525 l 524 525 l 517 534 q 514 535 515 534 q 511 536 513 536 l 509 572 l 495 572 l 495 639 l 525 639 l 525 750 l 571 750 l 571 764 l 633 764 l 633 780 l 651 780 l 651 795 l 681 795 l 681 812 l 712 812 l 712 827 l 743 827 l 743 859 l 761 844 l 761 854 m 464 597 l 477 604 l 495 604 l 495 591 l 464 597 m 761 876 l 761 854 l 742 860 l 761 876 z "},"_":{"ha":1020,"x_min":38,"x_max":996,"o":"m 85 -320 l 152 -320 l 152 -334 l 791 -334 l 791 -320 l 808 -320 l 808 -334 l 884 -334 l 884 -320 l 949 -320 l 949 -334 l 979 -334 l 979 -366 l 996 -366 l 996 -401 l 985 -408 q 983 -412 983 -411 q 982 -416 982 -414 l 209 -416 l 203 -407 l 117 -400 l 53 -400 l 46 -392 q 39 -376 39 -392 q 38 -350 38 -359 l 54 -350 l 54 -334 l 85 -334 l 85 -320 m 103 -419 l 103 -400 l 117 -400 l 117 -434 l 103 -419 z "},"":{"ha":502,"x_min":23,"x_max":486,"o":"m 311 1044 l 317 1034 q 337 1031 327 1034 q 357 1028 347 1028 l 357 1013 l 374 1013 l 382 1002 q 391 1000 385 1002 l 391 982 l 407 982 l 407 951 l 420 951 l 420 902 l 437 902 l 437 837 l 426 830 q 424 819 426 823 q 422 807 422 814 l 412 799 q 410 787 412 792 q 408 774 408 781 l 391 774 l 391 757 l 381 750 q 380 742 381 745 l 357 742 l 357 726 l 327 726 l 327 711 l 294 711 l 294 694 l 198 694 l 198 711 l 167 711 l 160 719 q 147 722 156 719 q 136 724 138 724 l 136 742 l 119 742 l 119 758 l 106 758 l 106 789 l 88 789 l 88 822 l 73 822 l 73 935 l 81 940 q 84 953 81 945 q 87 964 87 960 l 106 964 l 106 997 l 119 997 l 119 1013 l 151 1013 l 151 1028 l 168 1028 l 168 1044 l 311 1044 m 171 978 l 160 971 q 159 964 160 967 l 140 962 l 140 929 l 123 922 l 123 825 l 140 825 l 140 811 l 155 811 l 161 799 q 171 796 163 799 l 171 779 l 199 779 l 206 768 l 277 762 l 277 779 l 323 779 l 323 793 l 354 793 l 354 825 l 370 825 l 370 930 l 354 930 l 354 947 l 339 947 l 339 979 l 323 979 l 323 993 l 171 993 l 171 978 m 168 617 l 160 605 l 378 605 l 378 617 l 445 617 l 445 605 l 457 605 l 457 594 l 468 594 l 468 560 l 457 560 l 457 537 l 408 537 l 408 524 l 65 524 l 65 537 l 53 537 l 53 548 l 41 548 l 41 594 l 53 594 l 53 605 l 87 605 l 87 617 l 168 617 m 184 643 l 195 617 l 168 617 l 184 643 m 457 623 l 475 617 l 457 605 l 457 623 m 486 560 l 468 543 l 468 560 l 486 560 m 34 537 l 53 560 l 53 518 l 34 537 m 41 612 l 41 594 l 23 594 l 41 612 z "},"":{"ha":502,"x_min":31,"x_max":477,"o":"m 304 989 q 279 1004 296 1000 q 254 1009 262 1009 l 231 1009 l 220 1001 q 218 1001 220 1000 q 213 1006 216 1001 q 206 998 210 1002 q 205 996 205 997 l 205 993 q 189 983 191 993 l 176 974 q 161 948 174 951 l 161 933 l 148 940 l 141 940 q 138 939 140 940 q 132 939 136 939 q 123 941 126 939 l 125 941 l 117 947 q 113 948 114 947 q 110 949 111 948 l 110 993 q 116 999 111 993 q 127 1013 121 1005 q 143 1025 134 1020 q 163 1031 152 1031 l 175 1034 q 182 1038 176 1038 l 202 1038 q 216 1046 213 1038 l 317 1046 q 344 1034 328 1046 q 361 1021 359 1023 l 361 1023 l 378 1008 l 378 996 l 385 996 l 385 914 q 378 901 385 907 l 378 761 q 392 743 378 743 q 410 754 401 743 q 419 753 412 753 l 426 753 q 428 753 427 753 q 431 754 429 754 q 442 745 437 754 q 448 734 448 736 l 448 715 l 444 709 q 427 707 441 707 q 414 715 422 707 q 404 700 406 700 q 399 702 401 700 q 385 715 396 704 l 385 693 l 338 693 q 336 692 336 693 q 334 692 335 692 l 336 685 l 334 685 q 328 697 334 692 l 316 707 q 307 708 312 707 q 297 709 301 709 q 281 706 285 705 q 271 704 278 707 l 273 704 q 264 700 269 700 q 260 701 262 700 q 255 701 259 701 l 239 701 l 239 694 l 133 692 q 123 701 132 696 q 104 711 114 707 q 85 720 94 716 q 77 724 77 723 l 92 739 q 71 738 76 739 l 71 769 l 64 762 l 62 789 q 62 792 62 791 q 61 798 61 793 q 66 817 61 808 q 75 833 71 826 l 87 846 l 87 845 l 94 854 l 94 861 l 96 861 q 97 857 96 859 q 98 853 98 854 l 107 853 l 111 863 q 114 864 113 864 q 118 867 115 864 l 118 869 q 120 870 119 869 q 122 871 121 871 q 123 872 122 872 q 126 873 123 872 l 126 871 l 121 868 l 126 868 l 144 878 q 146 877 145 878 q 148 876 146 876 q 157 879 153 876 q 163 884 160 882 l 199 884 l 195 890 l 237 892 q 238 895 237 894 q 239 898 239 897 q 240 899 239 899 q 247 897 244 899 l 250 894 q 254 892 252 892 q 260 891 255 891 q 265 892 263 891 q 270 892 267 892 l 283 891 q 292 899 285 899 l 307 901 l 304 907 q 315 916 308 907 l 324 924 l 324 970 q 316 981 320 974 q 309 994 312 989 l 304 989 m 183 620 l 183 608 l 374 608 l 374 620 l 448 620 l 448 608 l 460 608 l 460 597 l 471 597 l 471 557 l 460 557 l 460 534 l 411 534 l 411 521 l 62 521 l 62 534 l 50 534 l 50 545 l 38 545 l 38 597 l 50 597 l 50 608 l 84 608 l 84 620 l 183 620 m 205 854 q 194 846 199 846 l 178 848 q 177 844 178 845 q 176 841 176 842 q 160 852 160 848 l 160 833 l 149 833 q 144 823 145 825 q 142 821 142 822 l 133 811 l 133 812 q 124 789 126 798 q 122 777 122 780 l 153 745 q 163 736 161 742 l 254 736 q 252 742 254 739 q 250 747 251 745 q 257 746 252 747 q 264 745 262 745 l 270 745 q 275 754 273 754 l 283 762 q 306 777 297 762 q 315 803 315 792 l 316 836 q 303 852 316 850 q 267 854 290 854 l 205 854 m 395 693 l 388 685 q 385 693 385 690 l 395 693 m 42 534 l 50 534 l 50 526 l 42 534 m 385 1009 l 381 1004 q 378 1010 377 1006 q 377 1012 378 1013 l 378 1012 l 385 1009 m 460 616 l 467 608 l 460 608 l 460 616 m 477 557 l 471 551 l 471 557 l 477 557 m 38 604 l 38 597 l 31 597 l 38 604 m 104 951 l 109 951 l 109 947 l 104 951 m 216 1046 q 216 1048 216 1047 q 217 1051 217 1050 l 216 1046 m 165 932 q 163 930 164 930 l 163 932 l 161 933 l 165 932 z "},"/":{"ha":594,"x_min":41,"x_max":562,"o":"m 495 1105 l 532 1105 l 537 1096 q 545 1095 543 1096 l 545 1073 l 562 1073 l 562 1038 l 551 1031 q 549 1020 551 1028 q 547 1008 547 1012 l 537 1000 q 535 988 537 993 q 533 977 533 983 l 515 977 l 515 943 l 505 936 q 502 916 505 925 q 499 897 499 907 l 488 890 q 486 871 488 880 q 483 850 483 861 l 473 844 q 471 832 473 837 q 469 821 469 827 l 450 821 l 450 773 l 437 773 l 437 738 l 427 731 q 425 721 427 727 q 423 709 423 715 l 406 709 l 406 648 l 389 648 l 389 598 l 378 591 q 376 572 378 582 q 373 552 373 562 l 363 545 q 361 534 363 540 q 359 522 359 528 l 342 522 l 342 475 l 327 475 l 327 427 l 316 420 q 314 408 316 414 q 312 396 312 403 l 296 396 l 296 349 l 283 342 q 281 321 283 332 q 278 300 278 311 l 269 293 q 267 283 269 289 q 264 271 264 277 l 247 271 l 247 209 l 233 209 l 233 175 l 221 168 q 219 158 221 164 q 217 146 217 152 l 201 146 l 201 84 l 187 84 l 187 34 l 176 27 q 173 7 176 16 q 170 -12 170 -1 l 160 -19 q 157 -46 160 -33 q 155 -75 155 -60 l 144 -81 q 141 -109 144 -95 q 138 -137 138 -123 l 125 -137 l 125 -153 l 113 -160 q 107 -164 113 -163 q 94 -166 102 -165 q 79 -168 87 -167 q 66 -168 72 -168 l 57 -168 l 57 -152 l 41 -152 l 41 -133 l 57 -133 l 57 -71 l 72 -71 l 72 -24 l 88 -24 l 88 23 l 96 30 q 100 52 96 46 q 103 69 103 58 l 119 69 l 119 102 l 129 107 q 132 120 129 113 q 134 132 134 127 l 152 132 l 152 180 l 165 180 l 165 227 l 183 227 l 183 274 l 191 279 q 194 301 191 290 q 197 323 197 312 l 214 323 l 214 354 l 228 354 l 228 385 l 237 391 l 241 415 q 244 431 244 426 l 260 431 l 260 495 l 274 495 l 274 541 l 292 541 l 292 571 l 300 576 q 302 595 298 581 q 307 620 307 609 l 323 620 l 323 666 l 331 671 l 335 696 q 338 712 338 707 l 355 712 l 355 762 l 369 762 l 369 792 l 385 792 l 385 840 l 393 845 q 401 887 393 863 l 419 887 l 419 933 l 433 933 l 433 981 l 449 981 l 449 1010 l 458 1016 q 461 1034 457 1020 q 465 1059 465 1048 l 479 1059 l 479 1090 l 495 1090 l 495 1105 m 66 -168 l 61 -168 l 61 -191 l 64 -191 l 72 -168 l 66 -168 z "}}}
